<svg width="75" height="72" viewBox="0 0 75 72" fill="none" xmlns="http://www.w3.org/2000/svg">
<g clip-path="url(#clip0_1084_931)">
<path opacity="0.5" d="M33 72L5.94 63.359V37.4362M33 72L60.06 63.359V37.4362M33 72V34.7774M60.06 37.4362L66 34.7774L60.06 24.8071M60.06 37.4362L41.58 44.0831L33 34.7774M60.06 24.8071L33 34.7774M60.06 24.8071L48.84 20.8454M33 34.7774L5.94 24.8071M33 34.7774L24.42 44.0831L5.94 37.4362M5.94 37.4362L0 34.7774L5.94 24.8071M5.94 24.8071L17.82 20.5973M17.82 20.5973L12.54 17.4954L18.48 14.172C15.84 6.19572 6.38 3.3154 1.98 2.87227C13.596 -0.31823 22.66 6.8604 25.74 10.8485L31.02 8.18978L29.7 17.4954M17.82 20.5973L28.38 26.8011L29.7 17.4954M48.84 20.8454L38.28 26.8011L36.9252 17.25M48.84 20.8454L54.78 17.4954L48.84 14.172C49.94 11.0701 54.648 4.46746 64.68 2.87227C60.5 1.32131 50.028 0.745202 41.58 10.8485L35.64 8.18978L36.9252 17.25M29.7 17.4954L33 16.1662L36.9252 17.25" stroke="#44240C" stroke-width="2" stroke-linejoin="round"/>
</g>
<defs>
<clipPath id="clip0_1084_931">
<rect width="75" height="72" fill="white"/>
</clipPath>
</defs>
</svg>
