<svg width="75" height="72" viewBox="0 0 75 72" fill="none" xmlns="http://www.w3.org/2000/svg">
<path opacity="0.5" d="M10.4557 35.1023L11.3889 35.4618C11.5746 34.9798 11.3626 34.4356 10.8997 34.2063C10.4369 33.977 9.87549 34.1379 9.60444 34.5776L10.4557 35.1023ZM5.19554 48.757L4.26239 48.3976C4.16857 48.6411 4.17368 48.9117 4.27663 49.1515L5.19554 48.757ZM9.40369 51.383H10.4037C10.4037 51.0512 10.2392 50.7411 9.96455 50.555C9.68991 50.369 9.34088 50.3312 9.03281 50.4543L9.40369 51.383ZM9.40369 59.2607H8.40369C8.40369 59.4583 8.46228 59.6516 8.57205 59.816L9.40369 59.2607ZM22.5542 59.2607L23.373 59.8347C23.4909 59.6665 23.5542 59.4661 23.5542 59.2607H22.5542ZM22.5542 51.383L22.6954 50.393C22.4084 50.352 22.1178 50.4376 21.8989 50.6276C21.6799 50.8175 21.5542 51.0931 21.5542 51.383H22.5542ZM26.7623 48.757L27.7486 48.9217C27.7781 48.7454 27.7597 48.5644 27.6955 48.3976L26.7623 48.757ZM22.4353 34.7429C22.2367 34.2275 21.658 33.9707 21.1426 34.1692C20.6273 34.3677 20.3704 34.9464 20.569 35.4618L22.4353 34.7429ZM16.7159 50.3326C16.7159 49.7803 16.2682 49.3326 15.7159 49.3326C15.1636 49.3326 14.7159 49.7803 14.7159 50.3326H16.7159ZM6.24758 41.9297L6.35784 42.9236C6.66392 42.8896 6.93728 42.7166 7.09887 42.4544L6.24758 41.9297ZM8.35177 19.3469L8.79842 18.4522C8.49078 18.2986 8.12582 18.3139 7.83206 18.4926C7.5383 18.6713 7.35695 18.9884 7.35188 19.3322L8.35177 19.3469ZM9.92983 19.3469L10.6364 20.0546C10.8652 19.8261 10.9694 19.5012 10.9162 19.1823L9.92983 19.3469ZM11.5079 11.9944L11.137 11.0657L11.5079 11.9944ZM19.9242 11.9944L20.3708 11.0997L19.9242 11.9944ZM21.5021 19.3469L20.5375 19.0834C20.4117 19.5436 20.6287 20.0286 21.0556 20.2417L21.5021 19.3469ZM23.0803 19.3469L23.7868 20.0546L23.7868 20.0546L23.0803 19.3469ZM29.9185 37.7283L29.0525 38.2282C29.1727 38.4366 29.364 38.5946 29.5913 38.6733L29.9185 37.7283ZM52.0113 35.1023L53.0111 35.1241C53.0221 34.6151 52.649 34.179 52.1445 34.1112C51.6399 34.0434 51.1649 34.3656 51.0412 34.8594L52.0113 35.1023ZM51.4853 59.2607L50.4855 59.2389C50.4805 59.469 50.555 59.6937 50.6964 59.8752L51.4853 59.2607ZM64.1097 59.2607L64.8618 59.9198C65.0266 59.7318 65.1149 59.4888 65.1095 59.2389L64.1097 59.2607ZM63.5837 35.1023L64.4914 34.6827C64.2927 34.2528 63.8197 34.0213 63.3583 34.1281C62.8969 34.2348 62.5736 34.6506 62.5839 35.1241L63.5837 35.1023ZM66.7398 41.9297L65.8321 42.3493C65.9523 42.6094 66.1784 42.8054 66.4529 42.8876L66.7398 41.9297ZM72 37.7283H73C73 37.5679 72.9614 37.4098 72.8875 37.2674L72 37.7283ZM64.6357 23.5484L65.5232 23.0875C65.4453 22.9375 65.3306 22.8097 65.1899 22.716L64.6357 23.5484ZM62.0056 22.4981V23.4981C62.113 23.4981 62.2196 23.4808 62.3214 23.4469L62.0056 22.4981ZM44.121 37.7283L44.4052 38.6871C44.6603 38.6115 44.8748 38.4373 45.0012 38.203L44.121 37.7283ZM51.4853 24.0736L52.3654 24.5483C52.3927 24.4977 52.4156 24.4448 52.4338 24.3903L51.4853 24.0736ZM55.3836 22.4981L55.8007 21.5892L55.3836 22.4981ZM60.2114 22.4981L59.7943 21.5892L60.2114 22.4981ZM58.7975 42.9801C58.7975 42.4279 58.3498 41.9801 57.7975 41.9801C57.2452 41.9801 56.7975 42.4279 56.7975 42.9801H58.7975ZM27.8145 42.455L28.1651 41.5184C27.8999 41.4192 27.605 41.437 27.3537 41.5675L27.8145 42.455ZM32.0226 44.0305H33.0226C33.0226 43.6135 32.7638 43.2402 32.3732 43.094L32.0226 44.0305ZM32.5486 52.9586H33.5486C33.5486 52.6931 33.443 52.4385 33.2552 52.2509L32.5486 52.9586ZM32.5486 59.7859H31.5486C31.5486 59.879 31.5616 59.9716 31.5872 60.0611L32.5486 59.7859ZM40.9649 59.7859L41.9263 60.0611C41.9519 59.9716 41.9649 59.879 41.9649 59.7859H40.9649ZM40.9649 52.9586L40.2583 52.251C40.0704 52.4386 39.9649 52.6931 39.9649 52.9586H40.9649ZM41.4909 44.0305L41.1752 43.0817C40.7666 43.2176 40.4909 43.5999 40.4909 44.0305H41.4909ZM46.2251 42.455L46.6717 41.5602C46.4348 41.442 46.1606 41.4225 45.9093 41.5061L46.2251 42.455ZM50.4332 41.4046L51.1398 42.1123C51.2682 41.9841 51.3592 41.8235 51.4033 41.6475L50.4332 41.4046ZM36.7568 39.8289L36.7568 38.8289L36.7568 39.8289ZM41.4909 35.1023L42.4909 35.1022L41.4909 35.1023ZM34.9258 39.4624L35.3124 38.5401L35.3124 38.5401L34.9258 39.4624ZM37.7568 52.9586C37.7568 52.4063 37.3091 51.9586 36.7568 51.9586C36.2045 51.9586 35.7568 52.4063 35.7568 52.9586H37.7568ZM9.52257 34.7429L4.26239 48.3976L6.1287 49.1165L11.3889 35.4618L9.52257 34.7429ZM4.27663 49.1515C4.58118 49.861 5.18791 50.8729 6.06417 51.6099C6.96659 52.3689 8.27093 52.9121 9.77457 52.3116L9.03281 50.4543C8.43238 50.6941 7.89566 50.537 7.35153 50.0793C6.78123 49.5997 6.33592 48.8785 6.11446 48.3626L4.27663 49.1515ZM8.40369 51.383V59.2607H10.4037V51.383H8.40369ZM8.57205 59.816C9.16395 60.7024 10.2929 61.8808 11.7706 62.241C12.5433 62.4294 13.3927 62.3867 14.2439 61.9796C15.079 61.5801 15.8485 60.8629 16.5476 59.816L14.8843 58.7054C14.3209 59.5491 13.8016 59.9741 13.3809 60.1753C12.9762 60.3689 12.6026 60.3853 12.2443 60.2979C11.4602 60.1068 10.6955 59.3945 10.2353 58.7054L8.57205 59.816ZM14.8588 59.7758C15.4474 60.7552 16.6027 62.0628 18.1794 62.4621C19.0028 62.6706 19.9073 62.6196 20.8227 62.1813C21.7199 61.7517 22.5712 60.9782 23.373 59.8347L21.7353 58.6866C21.0642 59.6438 20.4559 60.1395 19.9591 60.3774C19.4805 60.6065 19.0568 60.6211 18.6704 60.5233C17.8275 60.3098 17.0365 59.5167 16.573 58.7456L14.8588 59.7758ZM23.5542 59.2607V51.383H21.5542V59.2607H23.5542ZM22.413 52.3729C23.1584 52.4793 24.2995 52.4532 25.3552 51.9999C26.4642 51.5237 27.4738 50.5681 27.7486 48.9217L25.7759 48.5924C25.63 49.4669 25.1492 49.9118 24.5661 50.1621C23.9299 50.4353 23.1773 50.4617 22.6954 50.393L22.413 52.3729ZM27.6955 48.3976L22.4353 34.7429L20.569 35.4618L25.8291 49.1165L27.6955 48.3976ZM14.7159 50.3326V59.2607H16.7159V50.3326H14.7159ZM9.60444 34.5776L5.3963 41.405L7.09887 42.4544L11.307 35.627L9.60444 34.5776ZM6.13732 40.9358C5.4696 41.0099 4.54971 40.928 3.89173 40.5503C3.58203 40.3726 3.34629 40.1397 3.19638 39.8322C3.04579 39.5233 2.94566 39.0648 3.03169 38.3777L1.04718 38.1292C0.922798 39.1227 1.04623 39.9858 1.39864 40.7087C1.75174 41.4329 2.29845 41.9419 2.89614 42.2849C4.05291 42.9489 5.44751 43.0246 6.35784 42.9236L6.13732 40.9358ZM3.03169 38.3777C3.11741 37.693 3.46495 36.6678 4.03613 35.3894C4.59689 34.1343 5.33574 32.7158 6.14123 31.2716C7.75247 28.3827 9.59537 25.4525 10.7402 23.6061L9.04039 22.5522C7.90577 24.3821 6.03366 27.3585 4.39453 30.2974C3.57484 31.767 2.80467 33.2427 2.2101 34.5735C1.62596 35.881 1.17186 37.1333 1.04718 38.1292L3.03169 38.3777ZM10.4444 22.2467C9.97666 21.9354 9.67176 21.3137 9.50302 20.5916C9.42369 20.2521 9.38533 19.9361 9.36721 19.7044C9.35822 19.5895 9.3544 19.4979 9.35281 19.4377C9.35201 19.4076 9.35177 19.3855 9.3517 19.3725C9.35167 19.366 9.35169 19.3617 9.3517 19.3599C9.3517 19.3589 9.3517 19.3586 9.3517 19.3589C9.3517 19.359 9.3517 19.3594 9.35169 19.3598C9.35169 19.36 9.35168 19.3603 9.35168 19.3606C9.35168 19.3608 9.35167 19.361 9.35167 19.3611C9.35167 19.3614 9.35167 19.3617 8.35177 19.3469C7.35188 19.3322 7.35188 19.3325 7.35187 19.3328C7.35187 19.3329 7.35187 19.3332 7.35187 19.3334C7.35186 19.3339 7.35185 19.3344 7.35185 19.335C7.35183 19.3361 7.35182 19.3374 7.3518 19.3388C7.35177 19.3417 7.35174 19.3452 7.35172 19.3494C7.35168 19.3578 7.35166 19.3687 7.35173 19.3821C7.35186 19.4088 7.35231 19.4454 7.35351 19.4907C7.35591 19.5812 7.36133 19.7074 7.3733 19.8603C7.39707 20.1643 7.44745 20.5844 7.55549 21.0467C7.76148 21.9282 8.22584 23.1726 9.33619 23.9116L10.4444 22.2467ZM7.90513 20.2416C8.1631 20.3704 8.56915 20.5193 9.01226 20.5649C9.43393 20.6082 10.1138 20.5763 10.6364 20.0546L9.22329 18.6392C9.27196 18.5906 9.31862 18.5771 9.3236 18.5759C9.32445 18.5757 9.31606 18.5778 9.29649 18.5786C9.27702 18.5794 9.25045 18.5788 9.21674 18.5753C9.14741 18.5682 9.06697 18.5508 8.98495 18.5252C8.9029 18.4996 8.83663 18.4713 8.79842 18.4522L7.90513 20.2416ZM10.9162 19.1823C10.7512 18.1938 10.6304 16.6654 10.7913 15.3164C10.8718 14.6412 11.0167 14.066 11.224 13.6389C11.4288 13.2168 11.6565 13.0118 11.8788 12.9231L11.137 11.0657C10.3072 11.3971 9.76782 12.0586 9.42468 12.7657C9.08402 13.4677 8.90019 14.2843 8.80536 15.0796C8.61553 16.6716 8.75781 18.3993 8.94348 19.5116L10.9162 19.1823ZM11.8788 12.9231C14.3766 11.9255 16.6813 11.4932 19.4775 12.8891L20.3708 11.0997C16.8548 9.34446 13.8993 9.96252 11.137 11.0657L11.8788 12.9231ZM19.4775 12.8891C20.2781 13.2887 20.73 14.2048 20.8623 15.5211C20.9915 16.8076 20.7777 18.204 20.5375 19.0834L22.4668 19.6104C22.7526 18.5641 23.0123 16.9145 22.8522 15.3212C22.6952 13.7578 22.0951 11.9604 20.3708 11.0997L19.4775 12.8891ZM21.0556 20.2417C21.3136 20.3704 21.7196 20.5193 22.1627 20.5648C22.5843 20.6082 23.2642 20.5763 23.7868 20.0546L22.3738 18.6392C22.4225 18.5906 22.4692 18.5771 22.4741 18.5759C22.4749 18.5757 22.4665 18.5777 22.4469 18.5785C22.4274 18.5793 22.4009 18.5788 22.3671 18.5753C22.2978 18.5682 22.2173 18.5508 22.1353 18.5252C22.0532 18.4996 21.9869 18.4712 21.9487 18.4521L21.0556 20.2417ZM23.7868 20.0546C23.7461 20.0952 23.6018 20.2291 23.3505 20.2747C23.045 20.3301 22.7691 20.223 22.5898 20.0662C22.444 19.9387 22.3892 19.8059 22.3754 19.7708C22.3571 19.724 22.355 19.6998 22.3569 19.7128C22.3682 19.7861 22.3704 20.0329 22.2851 20.39C22.1145 21.1045 21.7004 21.8428 21.016 22.1845L21.9093 23.9739C23.3291 23.2651 23.9868 21.8748 24.2304 20.8545C24.3523 20.3442 24.3972 19.822 24.3337 19.4089C24.317 19.3002 24.2888 19.1721 24.2379 19.0419C24.1915 18.9233 24.0973 18.7277 23.9064 18.5607C23.6819 18.3644 23.355 18.2412 22.9933 18.3068C22.6859 18.3626 22.4802 18.5329 22.3738 18.6392L23.7868 20.0546ZM20.5966 23.5791L29.0525 38.2282L30.7846 37.2284L22.3288 22.5792L20.5966 23.5791ZM9.64812 24.0494C11.8444 24.5975 16.4405 25.3633 21.7048 24.0494L21.2205 22.1089C16.3853 23.3157 12.1444 22.6111 10.1324 22.1089L9.64812 24.0494ZM51.0115 35.0806L50.4855 59.2389L52.485 59.2824L53.0111 35.1241L51.0115 35.0806ZM50.6964 59.8752C51.3728 60.7435 52.6016 61.8911 54.0817 62.2424C54.8564 62.4263 55.7113 62.3922 56.5471 61.97C57.3694 61.5546 58.079 60.8113 58.6713 59.7469L56.9237 58.7744C56.4639 59.6006 56.012 59.9996 55.6453 60.1849C55.292 60.3633 54.9304 60.3883 54.5436 60.2965C53.7004 60.0964 52.8251 59.3534 52.2742 58.6461L50.6964 59.8752ZM56.9499 59.7913C57.4734 60.6276 58.5102 61.6993 59.9603 62.0223C61.5138 62.3684 63.221 61.7919 64.8618 59.9198L63.3577 58.6016C62.0527 60.0905 61.0422 60.2143 60.3952 60.0702C59.6448 59.903 58.9983 59.2942 58.6451 58.7301L56.9499 59.7913ZM65.1095 59.2389L64.5835 35.0806L62.5839 35.1241L63.11 59.2824L65.1095 59.2389ZM62.676 35.5219L65.8321 42.3493L67.6475 41.5101L64.4914 34.6827L62.676 35.5219ZM66.4529 42.8876C67.469 43.192 69.0658 43.3455 70.4683 42.6566C71.9829 41.9127 73 40.3271 73 37.7283H71C71 39.7511 70.2637 40.5289 69.5865 40.8615C68.7973 41.2492 67.7641 41.1926 67.0268 40.9717L66.4529 42.8876ZM72.8875 37.2674L65.5232 23.0875L63.7483 24.0093L71.1125 38.1892L72.8875 37.2674ZM65.1899 22.716C65.1982 22.7216 65.183 22.7124 65.1339 22.6646C65.0842 22.6162 65.032 22.5606 64.9502 22.4744C64.8031 22.3194 64.5816 22.0869 64.3001 21.8839C64.0075 21.6729 63.6361 21.4821 63.1725 21.405C62.7088 21.3278 62.2145 21.3746 61.6899 21.5492L62.3214 23.4469C62.5858 23.3589 62.749 23.362 62.8442 23.3778C62.9395 23.3937 63.0284 23.4326 63.1303 23.5061C63.2433 23.5876 63.3506 23.6942 63.4994 23.8511C63.6106 23.9683 63.833 24.2154 64.0816 24.3809L65.1899 22.716ZM45.0012 38.203L52.3654 24.5483L50.6051 23.5989L43.2409 37.2536L45.0012 38.203ZM52.4338 24.3903C52.4922 24.2155 52.6246 23.9355 52.7998 23.7205C52.8844 23.6166 52.9575 23.5546 53.0097 23.5225C53.034 23.5076 53.0495 23.5018 53.0564 23.4996C53.0598 23.4986 53.0617 23.4983 53.0622 23.4982C53.0627 23.4981 53.063 23.4981 53.0633 23.4981V21.4981C52.2018 21.4981 51.5955 22.0322 51.2491 22.4573C50.8895 22.8988 50.6537 23.4065 50.5368 23.7569L52.4338 24.3903ZM57.7975 10.4693C54.0511 10.4693 51.0113 13.5019 51.0113 17.2463H53.0113C53.0113 14.6095 55.1527 12.4693 57.7975 12.4693V10.4693ZM64.5837 17.2463C64.5837 13.5019 61.5439 10.4693 57.7975 10.4693V12.4693C60.4424 12.4693 62.5837 14.6095 62.5837 17.2463H64.5837ZM53.0633 23.4981H55.1674V21.4981H53.0633V23.4981ZM51.0113 17.2463C51.0113 19.9824 52.6348 22.3369 54.9665 23.4069L55.8007 21.5892C54.1518 20.8325 53.0113 19.1708 53.0113 17.2463H51.0113ZM54.9665 23.4069C55.8295 23.803 56.7891 24.0233 57.7975 24.0233V22.0233C57.0827 22.0233 56.4072 21.8675 55.8007 21.5892L54.9665 23.4069ZM55.1674 23.4981H55.3836V21.4981H55.1674V23.4981ZM57.7975 24.0233C58.8059 24.0233 59.7655 23.803 60.6285 23.4069L59.7943 21.5892C59.1878 21.8675 58.5123 22.0233 57.7975 22.0233V24.0233ZM60.6285 23.4069C62.9602 22.3369 64.5837 19.9824 64.5837 17.2463H62.5837C62.5837 19.1708 61.4432 20.8325 59.7943 21.5892L60.6285 23.4069ZM62.0056 21.4981H60.2114V23.4981H62.0056V21.4981ZM56.7975 42.9801V59.2607H58.7975V42.9801H56.7975ZM27.4638 43.3915L31.672 44.967L32.3732 43.094L28.1651 41.5184L27.4638 43.3915ZM31.0226 44.0305V51.383H33.0226V44.0305H31.0226ZM31.0226 51.383C31.0226 51.6376 31.0584 52.0131 31.1612 52.4008C31.2598 52.7726 31.451 53.2758 31.8421 53.6662L33.2552 52.2509C33.2254 52.2212 33.1537 52.1117 33.0944 51.8883C33.0394 51.6807 33.0226 51.4784 33.0226 51.383H31.0226ZM31.5486 52.9586V59.7859H33.5486V52.9586H31.5486ZM31.5872 60.0611C31.7987 60.8001 32.3213 61.8699 33.2919 62.5016C33.7998 62.8322 34.4221 63.0347 35.1385 62.9951C35.8442 62.9561 36.5707 62.6866 37.3109 62.1939L36.2027 60.529C35.6804 60.8766 35.2935 60.9835 35.0282 60.9981C34.7737 61.0122 34.5675 60.9455 34.3829 60.8253C33.9682 60.5555 33.6492 59.9972 33.51 59.5108L31.5872 60.0611ZM36.2027 62.1939C36.8407 62.6186 37.9298 63.0898 39.078 62.9296C39.6785 62.8458 40.2797 62.5891 40.7955 62.0901C41.3034 61.5988 41.6806 60.9198 41.9263 60.0611L40.0035 59.5108C39.8284 60.1226 39.6007 60.4633 39.405 60.6526C39.2173 60.8341 39.0163 60.9188 38.8015 60.9488C38.319 61.0161 37.7249 60.8046 37.3109 60.529L36.2027 62.1939ZM41.9649 59.7859V52.9586H39.9649V59.7859H41.9649ZM41.6716 53.6661C42.0383 53.2999 42.4909 52.4835 42.4909 51.383H40.4909C40.4909 51.6624 40.4328 51.8839 40.3686 52.0405C40.2983 52.2117 40.2335 52.2758 40.2583 52.251L41.6716 53.6661ZM42.4909 51.383C42.4909 51.3813 42.4909 51.3797 42.4909 51.378C42.4909 51.3763 42.4909 51.3746 42.4909 51.3729C42.4909 51.3712 42.4909 51.3695 42.4909 51.3678C42.4909 51.3661 42.4909 51.3644 42.4909 51.3626C42.4909 51.3609 42.4909 51.3591 42.4909 51.3573C42.4909 51.3555 42.4909 51.3538 42.4909 51.352C42.4909 51.3501 42.4909 51.3483 42.4909 51.3465C42.4909 51.3447 42.4909 51.3428 42.4909 51.341C42.4909 51.3391 42.4909 51.3372 42.4909 51.3354C42.4909 51.3335 42.4909 51.3316 42.4909 51.3297C42.4909 51.3278 42.4909 51.3258 42.4909 51.3239C42.4909 51.322 42.4909 51.32 42.4909 51.3181C42.4909 51.3161 42.4909 51.3141 42.4909 51.3121C42.4909 51.3102 42.4909 51.3082 42.4909 51.3061C42.4909 51.3041 42.4909 51.3021 42.4909 51.3001C42.4909 51.298 42.4909 51.296 42.4909 51.2939C42.4909 51.2918 42.4909 51.2898 42.4909 51.2877C42.4909 51.2856 42.4909 51.2835 42.4909 51.2814C42.4909 51.2792 42.4909 51.2771 42.4909 51.275C42.4909 51.2728 42.4909 51.2707 42.4909 51.2685C42.4909 51.2663 42.4909 51.2641 42.4909 51.2619C42.4909 51.2598 42.4909 51.2575 42.4909 51.2553C42.4909 51.2531 42.4909 51.2509 42.4909 51.2486C42.4909 51.2464 42.4909 51.2441 42.4909 51.2419C42.4909 51.2396 42.4909 51.2373 42.4909 51.235C42.4909 51.2327 42.4909 51.2304 42.4909 51.2281C42.4909 51.2258 42.4909 51.2234 42.4909 51.2211C42.4909 51.2188 42.4909 51.2164 42.4909 51.214C42.4909 51.2117 42.4909 51.2093 42.4909 51.2069C42.4909 51.2045 42.4909 51.2021 42.4909 51.1997C42.4909 51.1972 42.4909 51.1948 42.4909 51.1924C42.4909 51.1899 42.4909 51.1875 42.4909 51.185C42.4909 51.1825 42.4909 51.18 42.4909 51.1776C42.4909 51.1751 42.4909 51.1726 42.4909 51.17C42.4909 51.1675 42.4909 51.165 42.4909 51.1625C42.4909 51.1599 42.4909 51.1574 42.4909 51.1548C42.4909 51.1522 42.4909 51.1497 42.4909 51.1471C42.4909 51.1445 42.4909 51.1419 42.4909 51.1393C42.4909 51.1366 42.4909 51.134 42.4909 51.1314C42.4909 51.1287 42.4909 51.1261 42.4909 51.1234C42.4909 51.1208 42.4909 51.1181 42.4909 51.1154C42.4909 51.1127 42.4909 51.11 42.4909 51.1073C42.4909 51.1046 42.4909 51.1019 42.4909 51.0992C42.4909 51.0964 42.4909 51.0937 42.4909 51.0909C42.4909 51.0882 42.4909 51.0854 42.4909 51.0826C42.4909 51.0799 42.4909 51.0771 42.4909 51.0743C42.4909 51.0715 42.4909 51.0687 42.4909 51.0658C42.4909 51.063 42.4909 51.0602 42.4909 51.0573C42.4909 51.0545 42.4909 51.0516 42.4909 51.0487C42.4909 51.0459 42.4909 51.043 42.4909 51.0401C42.4909 51.0372 42.4909 51.0343 42.4909 51.0314C42.4909 51.0285 42.4909 51.0255 42.4909 51.0226C42.4909 51.0197 42.4909 51.0167 42.4909 51.0137C42.4909 51.0108 42.4909 51.0078 42.4909 51.0048C42.4909 51.0018 42.4909 50.9988 42.4909 50.9958C42.4909 50.9928 42.4909 50.9898 42.4909 50.9868C42.4909 50.9838 42.4909 50.9807 42.4909 50.9777C42.4909 50.9746 42.4909 50.9715 42.4909 50.9685C42.4909 50.9654 42.4909 50.9623 42.4909 50.9592C42.4909 50.9561 42.4909 50.953 42.4909 50.9499C42.4909 50.9468 42.4909 50.9436 42.4909 50.9405C42.4909 50.9374 42.4909 50.9342 42.4909 50.9311C42.4909 50.9279 42.4909 50.9247 42.4909 50.9215C42.4909 50.9184 42.4909 50.9152 42.4909 50.912C42.4909 50.9087 42.4909 50.9055 42.4909 50.9023C42.4909 50.8991 42.4909 50.8958 42.4909 50.8926C42.4909 50.8893 42.4909 50.8861 42.4909 50.8828C42.4909 50.8795 42.4909 50.8763 42.4909 50.873C42.4909 50.8697 42.4909 50.8664 42.4909 50.8631C42.4909 50.8598 42.4909 50.8564 42.4909 50.8531C42.4909 50.8498 42.4909 50.8464 42.4909 50.8431C42.4909 50.8397 42.4909 50.8363 42.4909 50.833C42.4909 50.8296 42.4909 50.8262 42.4909 50.8228C42.4909 50.8194 42.4909 50.816 42.4909 50.8126C42.4909 50.8092 42.4909 50.8057 42.4909 50.8023C42.4909 50.7989 42.4909 50.7954 42.4909 50.792C42.4909 50.7885 42.4909 50.785 42.4909 50.7816C42.4909 50.7781 42.4909 50.7746 42.4909 50.7711C42.4909 50.7676 42.4909 50.7641 42.4909 50.7606C42.4909 50.757 42.4909 50.7535 42.4909 50.75C42.4909 50.7464 42.4909 50.7429 42.4909 50.7393C42.4909 50.7358 42.4909 50.7322 42.4909 50.7286C42.4909 50.725 42.4909 50.7214 42.4909 50.7178C42.4909 50.7142 42.4909 50.7106 42.4909 50.707C42.4909 50.7034 42.4909 50.6998 42.4909 50.6961C42.4909 50.6925 42.4909 50.6888 42.4909 50.6852C42.4909 50.6815 42.4909 50.6778 42.4909 50.6742C42.4909 50.6705 42.4909 50.6668 42.4909 50.6631C42.4909 50.6594 42.4909 50.6557 42.4909 50.652C42.4909 50.6482 42.4909 50.6445 42.4909 50.6408C42.4909 50.637 42.4909 50.6333 42.4909 50.6295C42.4909 50.6258 42.4909 50.622 42.4909 50.6182C42.4909 50.6144 42.4909 50.6107 42.4909 50.6069C42.4909 50.6031 42.4909 50.5993 42.4909 50.5954C42.4909 50.5916 42.4909 50.5878 42.4909 50.584C42.4909 50.5801 42.4909 50.5763 42.4909 50.5724C42.4909 50.5686 42.4909 50.5647 42.4909 50.5609C42.4909 50.557 42.4909 50.5531 42.4909 50.5492C42.4909 50.5453 42.4909 50.5414 42.4909 50.5375C42.4909 50.5336 42.4909 50.5297 42.4909 50.5258C42.4909 50.5218 42.4909 50.5179 42.4909 50.5139C42.4909 50.51 42.4909 50.506 42.4909 50.5021C42.4909 50.4981 42.4909 50.4941 42.4909 50.4902C42.4909 50.4862 42.4909 50.4822 42.4909 50.4782C42.4909 50.4742 42.4909 50.4702 42.4909 50.4662C42.4909 50.4621 42.4909 50.4581 42.4909 50.4541C42.4909 50.45 42.4909 50.446 42.4909 50.4419C42.4909 50.4379 42.4909 50.4338 42.4909 50.4297C42.4909 50.4257 42.4909 50.4216 42.4909 50.4175C42.4909 50.4134 42.4909 50.4093 42.4909 50.4052C42.4909 50.4011 42.4909 50.397 42.4909 50.3929C42.4909 50.3887 42.4909 50.3846 42.4909 50.3805C42.4909 50.3763 42.4909 50.3722 42.4909 50.368C42.4909 50.3638 42.4909 50.3597 42.4909 50.3555C42.4909 50.3513 42.4909 50.3471 42.4909 50.3429C42.4909 50.3387 42.4909 50.3345 42.4909 50.3303C42.4909 50.3261 42.4909 50.3219 42.4909 50.3177C42.4909 50.3134 42.4909 50.3092 42.4909 50.3049C42.4909 50.3007 42.4909 50.2964 42.4909 50.2922C42.4909 50.2879 42.4909 50.2837 42.4909 50.2794C42.4909 50.2751 42.4909 50.2708 42.4909 50.2665C42.4909 50.2622 42.4909 50.2579 42.4909 50.2536C42.4909 50.2493 42.4909 50.245 42.4909 50.2406C42.4909 50.2363 42.4909 50.232 42.4909 50.2276C42.4909 50.2233 42.4909 50.2189 42.4909 50.2146C42.4909 50.2102 42.4909 50.2058 42.4909 50.2014C42.4909 50.1971 42.4909 50.1927 42.4909 50.1883C42.4909 50.1839 42.4909 50.1795 42.4909 50.1751C42.4909 50.1707 42.4909 50.1662 42.4909 50.1618C42.4909 50.1574 42.4909 50.153 42.4909 50.1485C42.4909 50.1441 42.4909 50.1396 42.4909 50.1352C42.4909 50.1307 42.4909 50.1262 42.4909 50.1218C42.4909 50.1173 42.4909 50.1128 42.4909 50.1083C42.4909 50.1038 42.4909 50.0993 42.4909 50.0948C42.4909 50.0903 42.4909 50.0858 42.4909 50.0813C42.4909 50.0768 42.4909 50.0722 42.4909 50.0677C42.4909 50.0632 42.4909 50.0586 42.4909 50.0541C42.4909 50.0495 42.4909 50.045 42.4909 50.0404C42.4909 50.0358 42.4909 50.0313 42.4909 50.0267C42.4909 50.0221 42.4909 50.0175 42.4909 50.0129C42.4909 50.0083 42.4909 50.0037 42.4909 49.9991C42.4909 49.9945 42.4909 49.9899 42.4909 49.9852C42.4909 49.9806 42.4909 49.976 42.4909 49.9713C42.4909 49.9667 42.4909 49.962 42.4909 49.9574C42.4909 49.9527 42.4909 49.9481 42.4909 49.9434C42.4909 49.9387 42.4909 49.9341 42.4909 49.9294C42.4909 49.9247 42.4909 49.92 42.4909 49.9153C42.4909 49.9106 42.4909 49.9059 42.4909 49.9012C42.4909 49.8965 42.4909 49.8917 42.4909 49.887C42.4909 49.8823 42.4909 49.8776 42.4909 49.8728C42.4909 49.8681 42.4909 49.8633 42.4909 49.8586C42.4909 49.8538 42.4909 49.849 42.4909 49.8443C42.4909 49.8395 42.4909 49.8347 42.4909 49.8299C42.4909 49.8252 42.4909 49.8204 42.4909 49.8156C42.4909 49.8108 42.4909 49.806 42.4909 49.8012C42.4909 49.7963 42.4909 49.7915 42.4909 49.7867C42.4909 49.7819 42.4909 49.777 42.4909 49.7722C42.4909 49.7674 42.4909 49.7625 42.4909 49.7577C42.4909 49.7528 42.4909 49.748 42.4909 49.7431C42.4909 49.7382 42.4909 49.7334 42.4909 49.7285C42.4909 49.7236 42.4909 49.7187 42.4909 49.7138C42.4909 49.7089 42.4909 49.704 42.4909 49.6991C42.4909 49.6942 42.4909 49.6893 42.4909 49.6844C42.4909 49.6795 42.4909 49.6746 42.4909 49.6696C42.4909 49.6647 42.4909 49.6598 42.4909 49.6548C42.4909 49.6499 42.4909 49.6449 42.4909 49.64C42.4909 49.635 42.4909 49.63 42.4909 49.6251C42.4909 49.6201 42.4909 49.6151 42.4909 49.6101C42.4909 49.6052 42.4909 49.6002 42.4909 49.5952C42.4909 49.5902 42.4909 49.5852 42.4909 49.5802C42.4909 49.5752 42.4909 49.5702 42.4909 49.5651C42.4909 49.5601 42.4909 49.5551 42.4909 49.5501C42.4909 49.545 42.4909 49.54 42.4909 49.535C42.4909 49.5299 42.4909 49.5249 42.4909 49.5198C42.4909 49.5148 42.4909 49.5097 42.4909 49.5046C42.4909 49.4996 42.4909 49.4945 42.4909 49.4894C42.4909 49.4843 42.4909 49.4792 42.4909 49.4742C42.4909 49.4691 42.4909 49.464 42.4909 49.4589C42.4909 49.4538 42.4909 49.4487 42.4909 49.4435C42.4909 49.4384 42.4909 49.4333 42.4909 49.4282C42.4909 49.4231 42.4909 49.4179 42.4909 49.4128C42.4909 49.4076 42.4909 49.4025 42.4909 49.3974C42.4909 49.3922 42.4909 49.3871 42.4909 49.3819C42.4909 49.3767 42.4909 49.3716 42.4909 49.3664C42.4909 49.3612 42.4909 49.3561 42.4909 49.3509C42.4909 49.3457 42.4909 49.3405 42.4909 49.3353C42.4909 49.3301 42.4909 49.3249 42.4909 49.3197C42.4909 49.3145 42.4909 49.3093 42.4909 49.3041C42.4909 49.2989 42.4909 49.2937 42.4909 49.2884C42.4909 49.2832 42.4909 49.278 42.4909 49.2727C42.4909 49.2675 42.4909 49.2623 42.4909 49.257C42.4909 49.2518 42.4909 49.2465 42.4909 49.2413C42.4909 49.236 42.4909 49.2307 42.4909 49.2255C42.4909 49.2202 42.4909 49.2149 42.4909 49.2097C42.4909 49.2044 42.4909 49.1991 42.4909 49.1938C42.4909 49.1885 42.4909 49.1832 42.4909 49.1779C42.4909 49.1726 42.4909 49.1673 42.4909 49.162C42.4909 49.1567 42.4909 49.1514 42.4909 49.1461C42.4909 49.1408 42.4909 49.1354 42.4909 49.1301C42.4909 49.1248 42.4909 49.1195 42.4909 49.1141C42.4909 49.1088 42.4909 49.1034 42.4909 49.0981C42.4909 49.0927 42.4909 49.0874 42.4909 49.082C42.4909 49.0767 42.4909 49.0713 42.4909 49.0659C42.4909 49.0606 42.4909 49.0552 42.4909 49.0498C42.4909 49.0445 42.4909 49.0391 42.4909 49.0337C42.4909 49.0283 42.4909 49.0229 42.4909 49.0175C42.4909 49.0121 42.4909 49.0067 42.4909 49.0013C42.4909 48.9959 42.4909 48.9905 42.4909 48.9851C42.4909 48.9797 42.4909 48.9743 42.4909 48.9689C42.4909 48.9634 42.4909 48.958 42.4909 48.9526C42.4909 48.9471 42.4909 48.9417 42.4909 48.9363C42.4909 48.9308 42.4909 48.9254 42.4909 48.9199C42.4909 48.9145 42.4909 48.909 42.4909 48.9036C42.4909 48.8981 42.4909 48.8927 42.4909 48.8872C42.4909 48.8817 42.4909 48.8763 42.4909 48.8708C42.4909 48.8653 42.4909 48.8598 42.4909 48.8544C42.4909 48.8489 42.4909 48.8434 42.4909 48.8379C42.4909 48.8324 42.4909 48.8269 42.4909 48.8214C42.4909 48.8159 42.4909 48.8104 42.4909 48.8049C42.4909 48.7994 42.4909 48.7939 42.4909 48.7884C42.4909 48.7829 42.4909 48.7774 42.4909 48.7718C42.4909 48.7663 42.4909 48.7608 42.4909 48.7553C42.4909 48.7497 42.4909 48.7442 42.4909 48.7387C42.4909 48.7331 42.4909 48.7276 42.4909 48.722C42.4909 48.7165 42.4909 48.7109 42.4909 48.7054C42.4909 48.6998 42.4909 48.6943 42.4909 48.6887C42.4909 48.6832 42.4909 48.6776 42.4909 48.672C42.4909 48.6665 42.4909 48.6609 42.4909 48.6553C42.4909 48.6497 42.4909 48.6442 42.4909 48.6386C42.4909 48.633 42.4909 48.6274 42.4909 48.6218C42.4909 48.6162 42.4909 48.6106 42.4909 48.605C42.4909 48.5994 42.4909 48.5938 42.4909 48.5882C42.4909 48.5826 42.4909 48.577 42.4909 48.5714C42.4909 48.5658 42.4909 48.5602 42.4909 48.5546C42.4909 48.549 42.4909 48.5433 42.4909 48.5377C42.4909 48.5321 42.4909 48.5265 42.4909 48.5208C42.4909 48.5152 42.4909 48.5096 42.4909 48.5039C42.4909 48.4983 42.4909 48.4926 42.4909 48.487C42.4909 48.4814 42.4909 48.4757 42.4909 48.4701C42.4909 48.4644 42.4909 48.4588 42.4909 48.4531C42.4909 48.4475 42.4909 48.4418 42.4909 48.4361C42.4909 48.4305 42.4909 48.4248 42.4909 48.4191C42.4909 48.4135 42.4909 48.4078 42.4909 48.4021C42.4909 48.3964 42.4909 48.3908 42.4909 48.3851C42.4909 48.3794 42.4909 48.3737 42.4909 48.368C42.4909 48.3624 42.4909 48.3567 42.4909 48.351C42.4909 48.3453 42.4909 48.3396 42.4909 48.3339C42.4909 48.3282 42.4909 48.3225 42.4909 48.3168C42.4909 48.3111 42.4909 48.3054 42.4909 48.2997C42.4909 48.294 42.4909 48.2883 42.4909 48.2825C42.4909 48.2768 42.4909 48.2711 42.4909 48.2654C42.4909 48.2597 42.4909 48.254 42.4909 48.2482C42.4909 48.2425 42.4909 48.2368 42.4909 48.231C42.4909 48.2253 42.4909 48.2196 42.4909 48.2139C42.4909 48.2081 42.4909 48.2024 42.4909 48.1966C42.4909 48.1909 42.4909 48.1852 42.4909 48.1794C42.4909 48.1737 42.4909 48.1679 42.4909 48.1622C42.4909 48.1564 42.4909 48.1507 42.4909 48.1449C42.4909 48.1392 42.4909 48.1334 42.4909 48.1277C42.4909 48.1219 42.4909 48.1161 42.4909 48.1104C42.4909 48.1046 42.4909 48.0988 42.4909 48.0931C42.4909 48.0873 42.4909 48.0815 42.4909 48.0758C42.4909 48.07 42.4909 48.0642 42.4909 48.0585C42.4909 48.0527 42.4909 48.0469 42.4909 48.0411C42.4909 48.0353 42.4909 48.0296 42.4909 48.0238C42.4909 48.018 42.4909 48.0122 42.4909 48.0064C42.4909 48.0006 42.4909 47.9948 42.4909 47.989C42.4909 47.9833 42.4909 47.9775 42.4909 47.9717C42.4909 47.9659 42.4909 47.9601 42.4909 47.9543C42.4909 47.9485 42.4909 47.9427 42.4909 47.9369C42.4909 47.9311 42.4909 47.9253 42.4909 47.9195C42.4909 47.9136 42.4909 47.9078 42.4909 47.902C42.4909 47.8962 42.4909 47.8904 42.4909 47.8846C42.4909 47.8788 42.4909 47.873 42.4909 47.8672C42.4909 47.8613 42.4909 47.8555 42.4909 47.8497C42.4909 47.8439 42.4909 47.8381 42.4909 47.8322C42.4909 47.8264 42.4909 47.8206 42.4909 47.8148C42.4909 47.8089 42.4909 47.8031 42.4909 47.7973C42.4909 47.7915 42.4909 47.7856 42.4909 47.7798C42.4909 47.774 42.4909 47.7681 42.4909 47.7623C42.4909 47.7565 42.4909 47.7506 42.4909 47.7448C42.4909 47.7389 42.4909 47.7331 42.4909 47.7273C42.4909 47.7214 42.4909 47.7156 42.4909 47.7097C42.4909 47.7039 42.4909 47.6981 42.4909 47.6922C42.4909 47.6864 42.4909 47.6805 42.4909 47.6747C42.4909 47.6688 42.4909 47.663 42.4909 47.6571C42.4909 47.6513 42.4909 47.6454 42.4909 47.6396C42.4909 47.6337 42.4909 47.6279 42.4909 47.622C42.4909 47.6162 42.4909 47.6103 42.4909 47.6045C42.4909 47.5986 42.4909 47.5928 42.4909 47.5869C42.4909 47.581 42.4909 47.5752 42.4909 47.5693C42.4909 47.5635 42.4909 47.5576 42.4909 47.5517C42.4909 47.5459 42.4909 47.54 42.4909 47.5342C42.4909 47.5283 42.4909 47.5224 42.4909 47.5166C42.4909 47.5107 42.4909 47.5048 42.4909 47.499C42.4909 47.4931 42.4909 47.4873 42.4909 47.4814C42.4909 47.4755 42.4909 47.4697 42.4909 47.4638C42.4909 47.4579 42.4909 47.452 42.4909 47.4462C42.4909 47.4403 42.4909 47.4344 42.4909 47.4286C42.4909 47.4227 42.4909 47.4168 42.4909 47.411C42.4909 47.4051 42.4909 47.3992 42.4909 47.3933C42.4909 47.3875 42.4909 47.3816 42.4909 47.3757C42.4909 47.3699 42.4909 47.364 42.4909 47.3581C42.4909 47.3522 42.4909 47.3464 42.4909 47.3405C42.4909 47.3346 42.4909 47.3287 42.4909 47.3229C42.4909 47.317 42.4909 47.3111 42.4909 47.3052C42.4909 47.2994 42.4909 47.2935 42.4909 47.2876C42.4909 47.2817 42.4909 47.2759 42.4909 47.27C42.4909 47.2641 42.4909 47.2582 42.4909 47.2524C42.4909 47.2465 42.4909 47.2406 42.4909 47.2347C42.4909 47.2289 42.4909 47.223 42.4909 47.2171C42.4909 47.2112 42.4909 47.2054 42.4909 47.1995C42.4909 47.1936 42.4909 47.1877 42.4909 47.1819C42.4909 47.176 42.4909 47.1701 42.4909 47.1642C42.4909 47.1584 42.4909 47.1525 42.4909 47.1466C42.4909 47.1407 42.4909 47.1349 42.4909 47.129C42.4909 47.1231 42.4909 47.1172 42.4909 47.1114C42.4909 47.1055 42.4909 47.0996 42.4909 47.0937C42.4909 47.0879 42.4909 47.082 42.4909 47.0761C42.4909 47.0702 42.4909 47.0644 42.4909 47.0585C42.4909 47.0526 42.4909 47.0467 42.4909 47.0409C42.4909 47.035 42.4909 47.0291 42.4909 47.0233C42.4909 47.0174 42.4909 47.0115 42.4909 47.0057C42.4909 46.9998 42.4909 46.9939 42.4909 46.988C42.4909 46.9822 42.4909 46.9763 42.4909 46.9704C42.4909 46.9646 42.4909 46.9587 42.4909 46.9528C42.4909 46.947 42.4909 46.9411 42.4909 46.9352C42.4909 46.9294 42.4909 46.9235 42.4909 46.9177C42.4909 46.9118 42.4909 46.9059 42.4909 46.9001C42.4909 46.8942 42.4909 46.8883 42.4909 46.8825C42.4909 46.8766 42.4909 46.8708 42.4909 46.8649C42.4909 46.859 42.4909 46.8532 42.4909 46.8473C42.4909 46.8415 42.4909 46.8356 42.4909 46.8298C42.4909 46.8239 42.4909 46.8181 42.4909 46.8122C42.4909 46.8064 42.4909 46.8005 42.4909 46.7947C42.4909 46.7888 42.4909 46.783 42.4909 46.7771C42.4909 46.7713 42.4909 46.7654 42.4909 46.7596C42.4909 46.7537 42.4909 46.7479 42.4909 46.742C42.4909 46.7362 42.4909 46.7303 42.4909 46.7245C42.4909 46.7187 42.4909 46.7128 42.4909 46.707C42.4909 46.7011 42.4909 46.6953 42.4909 46.6895C42.4909 46.6836 42.4909 46.6778 42.4909 46.672C42.4909 46.6661 42.4909 46.6603 42.4909 46.6545C42.4909 46.6486 42.4909 46.6428 42.4909 46.637C42.4909 46.6312 42.4909 46.6253 42.4909 46.6195C42.4909 46.6137 42.4909 46.6079 42.4909 46.602C42.4909 46.5962 42.4909 46.5904 42.4909 46.5846C42.4909 46.5787 42.4909 46.5729 42.4909 46.5671C42.4909 46.5613 42.4909 46.5555 42.4909 46.5497C42.4909 46.5439 42.4909 46.5381 42.4909 46.5322C42.4909 46.5264 42.4909 46.5206 42.4909 46.5148C42.4909 46.509 42.4909 46.5032 42.4909 46.4974C42.4909 46.4916 42.4909 46.4858 42.4909 46.48C42.4909 46.4742 42.4909 46.4684 42.4909 46.4626C42.4909 46.4568 42.4909 46.451 42.4909 46.4452C42.4909 46.4395 42.4909 46.4337 42.4909 46.4279C42.4909 46.4221 42.4909 46.4163 42.4909 46.4105C42.4909 46.4047 42.4909 46.399 42.4909 46.3932C42.4909 46.3874 42.4909 46.3816 42.4909 46.3759C42.4909 46.3701 42.4909 46.3643 42.4909 46.3585C42.4909 46.3528 42.4909 46.347 42.4909 46.3412C42.4909 46.3355 42.4909 46.3297 42.4909 46.3239C42.4909 46.3182 42.4909 46.3124 42.4909 46.3067C42.4909 46.3009 42.4909 46.2952 42.4909 46.2894C42.4909 46.2836 42.4909 46.2779 42.4909 46.2722C42.4909 46.2664 42.4909 46.2607 42.4909 46.2549C42.4909 46.2492 42.4909 46.2434 42.4909 46.2377C42.4909 46.232 42.4909 46.2262 42.4909 46.2205C42.4909 46.2148 42.4909 46.209 42.4909 46.2033C42.4909 46.1976 42.4909 46.1918 42.4909 46.1861C42.4909 46.1804 42.4909 46.1747 42.4909 46.169C42.4909 46.1632 42.4909 46.1575 42.4909 46.1518C42.4909 46.1461 42.4909 46.1404 42.4909 46.1347C42.4909 46.129 42.4909 46.1233 42.4909 46.1176C42.4909 46.1119 42.4909 46.1062 42.4909 46.1005C42.4909 46.0948 42.4909 46.0891 42.4909 46.0834C42.4909 46.0777 42.4909 46.072 42.4909 46.0663C42.4909 46.0607 42.4909 46.055 42.4909 46.0493C42.4909 46.0436 42.4909 46.0379 42.4909 46.0323C42.4909 46.0266 42.4909 46.0209 42.4909 46.0153C42.4909 46.0096 42.4909 46.0039 42.4909 45.9983C42.4909 45.9926 42.4909 45.987 42.4909 45.9813C42.4909 45.9756 42.4909 45.97 42.4909 45.9643C42.4909 45.9587 42.4909 45.9531 42.4909 45.9474C42.4909 45.9418 42.4909 45.9361 42.4909 45.9305C42.4909 45.9249 42.4909 45.9192 42.4909 45.9136C42.4909 45.908 42.4909 45.9023 42.4909 45.8967C42.4909 45.8911 42.4909 45.8855 42.4909 45.8799C42.4909 45.8743 42.4909 45.8686 42.4909 45.863C42.4909 45.8574 42.4909 45.8518 42.4909 45.8462C42.4909 45.8406 42.4909 45.835 42.4909 45.8294C42.4909 45.8238 42.4909 45.8182 42.4909 45.8126C42.4909 45.8071 42.4909 45.8015 42.4909 45.7959C42.4909 45.7903 42.4909 45.7847 42.4909 45.7792C42.4909 45.7736 42.4909 45.768 42.4909 45.7625C42.4909 45.7569 42.4909 45.7513 42.4909 45.7458C42.4909 45.7402 42.4909 45.7347 42.4909 45.7291C42.4909 45.7236 42.4909 45.718 42.4909 45.7125C42.4909 45.7069 42.4909 45.7014 42.4909 45.6959C42.4909 45.6903 42.4909 45.6848 42.4909 45.6793C42.4909 45.6737 42.4909 45.6682 42.4909 45.6627C42.4909 45.6572 42.4909 45.6516 42.4909 45.6461C42.4909 45.6406 42.4909 45.6351 42.4909 45.6296C42.4909 45.6241 42.4909 45.6186 42.4909 45.6131C42.4909 45.6076 42.4909 45.6021 42.4909 45.5966C42.4909 45.5911 42.4909 45.5857 42.4909 45.5802C42.4909 45.5747 42.4909 45.5692 42.4909 45.5638C42.4909 45.5583 42.4909 45.5528 42.4909 45.5474C42.4909 45.5419 42.4909 45.5364 42.4909 45.531C42.4909 45.5255 42.4909 45.5201 42.4909 45.5146C42.4909 45.5092 42.4909 45.5038 42.4909 45.4983C42.4909 45.4929 42.4909 45.4874 42.4909 45.482C42.4909 45.4766 42.4909 45.4712 42.4909 45.4657C42.4909 45.4603 42.4909 45.4549 42.4909 45.4495C42.4909 45.4441 42.4909 45.4387 42.4909 45.4333C42.4909 45.4279 42.4909 45.4225 42.4909 45.4171C42.4909 45.4117 42.4909 45.4063 42.4909 45.4009C42.4909 45.3956 42.4909 45.3902 42.4909 45.3848C42.4909 45.3794 42.4909 45.3741 42.4909 45.3687C42.4909 45.3633 42.4909 45.358 42.4909 45.3526C42.4909 45.3473 42.4909 45.3419 42.4909 45.3366C42.4909 45.3312 42.4909 45.3259 42.4909 45.3206C42.4909 45.3152 42.4909 45.3099 42.4909 45.3046C42.4909 45.2992 42.4909 45.2939 42.4909 45.2886C42.4909 45.2833 42.4909 45.278 42.4909 45.2727C42.4909 45.2674 42.4909 45.2621 42.4909 45.2568C42.4909 45.2515 42.4909 45.2462 42.4909 45.2409C42.4909 45.2356 42.4909 45.2303 42.4909 45.2251C42.4909 45.2198 42.4909 45.2145 42.4909 45.2093C42.4909 45.204 42.4909 45.1987 42.4909 45.1935C42.4909 45.1882 42.4909 45.183 42.4909 45.1777C42.4909 45.1725 42.4909 45.1673 42.4909 45.162C42.4909 45.1568 42.4909 45.1516 42.4909 45.1463C42.4909 45.1411 42.4909 45.1359 42.4909 45.1307C42.4909 45.1255 42.4909 45.1203 42.4909 45.1151C42.4909 45.1099 42.4909 45.1047 42.4909 45.0995C42.4909 45.0943 42.4909 45.0891 42.4909 45.0839C42.4909 45.0788 42.4909 45.0736 42.4909 45.0684C42.4909 45.0632 42.4909 45.0581 42.4909 45.0529C42.4909 45.0478 42.4909 45.0426 42.4909 45.0375C42.4909 45.0323 42.4909 45.0272 42.4909 45.0221C42.4909 45.0169 42.4909 45.0118 42.4909 45.0067C42.4909 45.0016 42.4909 44.9964 42.4909 44.9913C42.4909 44.9862 42.4909 44.9811 42.4909 44.976C42.4909 44.9709 42.4909 44.9658 42.4909 44.9607C42.4909 44.9556 42.4909 44.9506 42.4909 44.9455C42.4909 44.9404 42.4909 44.9353 42.4909 44.9303C42.4909 44.9252 42.4909 44.9202 42.4909 44.9151C42.4909 44.9101 42.4909 44.905 42.4909 44.9C42.4909 44.8949 42.4909 44.8899 42.4909 44.8849C42.4909 44.8798 42.4909 44.8748 42.4909 44.8698C42.4909 44.8648 42.4909 44.8598 42.4909 44.8548C42.4909 44.8498 42.4909 44.8448 42.4909 44.8398C42.4909 44.8348 42.4909 44.8298 42.4909 44.8248C42.4909 44.8199 42.4909 44.8149 42.4909 44.8099C42.4909 44.8049 42.4909 44.8 42.4909 44.795C42.4909 44.7901 42.4909 44.7851 42.4909 44.7802C42.4909 44.7753 42.4909 44.7703 42.4909 44.7654C42.4909 44.7605 42.4909 44.7555 42.4909 44.7506C42.4909 44.7457 42.4909 44.7408 42.4909 44.7359C42.4909 44.731 42.4909 44.7261 42.4909 44.7212C42.4909 44.7163 42.4909 44.7115 42.4909 44.7066C42.4909 44.7017 42.4909 44.6968 42.4909 44.692C42.4909 44.6871 42.4909 44.6823 42.4909 44.6774C42.4909 44.6726 42.4909 44.6677 42.4909 44.6629C42.4909 44.6581 42.4909 44.6532 42.4909 44.6484C42.4909 44.6436 42.4909 44.6388 42.4909 44.634C42.4909 44.6292 42.4909 44.6244 42.4909 44.6196C42.4909 44.6148 42.4909 44.61 42.4909 44.6052C42.4909 44.6004 42.4909 44.5956 42.4909 44.5909C42.4909 44.5861 42.4909 44.5814 42.4909 44.5766C42.4909 44.5718 42.4909 44.5671 42.4909 44.5624C42.4909 44.5576 42.4909 44.5529 42.4909 44.5482C42.4909 44.5434 42.4909 44.5387 42.4909 44.534C42.4909 44.5293 42.4909 44.5246 42.4909 44.5199C42.4909 44.5152 42.4909 44.5105 42.4909 44.5059C42.4909 44.5012 42.4909 44.4965 42.4909 44.4918C42.4909 44.4872 42.4909 44.4825 42.4909 44.4779C42.4909 44.4732 42.4909 44.4686 42.4909 44.4639C42.4909 44.4593 42.4909 44.4547 42.4909 44.45C42.4909 44.4454 42.4909 44.4408 42.4909 44.4362C42.4909 44.4316 42.4909 44.427 42.4909 44.4224C42.4909 44.4178 42.4909 44.4132 42.4909 44.4086C42.4909 44.4041 42.4909 44.3995 42.4909 44.3949C42.4909 44.3904 42.4909 44.3858 42.4909 44.3813C42.4909 44.3767 42.4909 44.3722 42.4909 44.3676C42.4909 44.3631 42.4909 44.3586 42.4909 44.3541C42.4909 44.3496 42.4909 44.345 42.4909 44.3405C42.4909 44.336 42.4909 44.3315 42.4909 44.3271C42.4909 44.3226 42.4909 44.3181 42.4909 44.3136C42.4909 44.3092 42.4909 44.3047 42.4909 44.3002C42.4909 44.2958 42.4909 44.2913 42.4909 44.2869C42.4909 44.2825 42.4909 44.278 42.4909 44.2736C42.4909 44.2692 42.4909 44.2648 42.4909 44.2604C42.4909 44.256 42.4909 44.2516 42.4909 44.2472C42.4909 44.2428 42.4909 44.2384 42.4909 44.234C42.4909 44.2297 42.4909 44.2253 42.4909 44.2209C42.4909 44.2166 42.4909 44.2122 42.4909 44.2079C42.4909 44.2035 42.4909 44.1992 42.4909 44.1949C42.4909 44.1906 42.4909 44.1863 42.4909 44.1819C42.4909 44.1776 42.4909 44.1733 42.4909 44.169C42.4909 44.1648 42.4909 44.1605 42.4909 44.1562C42.4909 44.1519 42.4909 44.1477 42.4909 44.1434C42.4909 44.1391 42.4909 44.1349 42.4909 44.1306C42.4909 44.1264 42.4909 44.1222 42.4909 44.1179C42.4909 44.1137 42.4909 44.1095 42.4909 44.1053C42.4909 44.1011 42.4909 44.0969 42.4909 44.0927C42.4909 44.0885 42.4909 44.0843 42.4909 44.0802C42.4909 44.076 42.4909 44.0718 42.4909 44.0677C42.4909 44.0635 42.4909 44.0594 42.4909 44.0552C42.4909 44.0511 42.4909 44.047 42.4909 44.0428C42.4909 44.0387 42.4909 44.0346 42.4909 44.0305H40.4909C40.4909 44.0346 40.4909 44.0387 40.4909 44.0428C40.4909 44.047 40.4909 44.0511 40.4909 44.0552C40.4909 44.0594 40.4909 44.0635 40.4909 44.0677C40.4909 44.0718 40.4909 44.076 40.4909 44.0802C40.4909 44.0843 40.4909 44.0885 40.4909 44.0927C40.4909 44.0969 40.4909 44.1011 40.4909 44.1053C40.4909 44.1095 40.4909 44.1137 40.4909 44.1179C40.4909 44.1222 40.4909 44.1264 40.4909 44.1306C40.4909 44.1349 40.4909 44.1391 40.4909 44.1434C40.4909 44.1477 40.4909 44.1519 40.4909 44.1562C40.4909 44.1605 40.4909 44.1648 40.4909 44.169C40.4909 44.1733 40.4909 44.1776 40.4909 44.1819C40.4909 44.1863 40.4909 44.1906 40.4909 44.1949C40.4909 44.1992 40.4909 44.2035 40.4909 44.2079C40.4909 44.2122 40.4909 44.2166 40.4909 44.2209C40.4909 44.2253 40.4909 44.2297 40.4909 44.234C40.4909 44.2384 40.4909 44.2428 40.4909 44.2472C40.4909 44.2516 40.4909 44.256 40.4909 44.2604C40.4909 44.2648 40.4909 44.2692 40.4909 44.2736C40.4909 44.278 40.4909 44.2825 40.4909 44.2869C40.4909 44.2913 40.4909 44.2958 40.4909 44.3002C40.4909 44.3047 40.4909 44.3092 40.4909 44.3136C40.4909 44.3181 40.4909 44.3226 40.4909 44.3271C40.4909 44.3315 40.4909 44.336 40.4909 44.3405C40.4909 44.345 40.4909 44.3496 40.4909 44.3541C40.4909 44.3586 40.4909 44.3631 40.4909 44.3676C40.4909 44.3722 40.4909 44.3767 40.4909 44.3813C40.4909 44.3858 40.4909 44.3904 40.4909 44.3949C40.4909 44.3995 40.4909 44.4041 40.4909 44.4086C40.4909 44.4132 40.4909 44.4178 40.4909 44.4224C40.4909 44.427 40.4909 44.4316 40.4909 44.4362C40.4909 44.4408 40.4909 44.4454 40.4909 44.45C40.4909 44.4547 40.4909 44.4593 40.4909 44.4639C40.4909 44.4686 40.4909 44.4732 40.4909 44.4779C40.4909 44.4825 40.4909 44.4872 40.4909 44.4918C40.4909 44.4965 40.4909 44.5012 40.4909 44.5059C40.4909 44.5105 40.4909 44.5152 40.4909 44.5199C40.4909 44.5246 40.4909 44.5293 40.4909 44.534C40.4909 44.5387 40.4909 44.5434 40.4909 44.5482C40.4909 44.5529 40.4909 44.5576 40.4909 44.5624C40.4909 44.5671 40.4909 44.5718 40.4909 44.5766C40.4909 44.5814 40.4909 44.5861 40.4909 44.5909C40.4909 44.5956 40.4909 44.6004 40.4909 44.6052C40.4909 44.61 40.4909 44.6148 40.4909 44.6196C40.4909 44.6244 40.4909 44.6292 40.4909 44.634C40.4909 44.6388 40.4909 44.6436 40.4909 44.6484C40.4909 44.6532 40.4909 44.6581 40.4909 44.6629C40.4909 44.6677 40.4909 44.6726 40.4909 44.6774C40.4909 44.6823 40.4909 44.6871 40.4909 44.692C40.4909 44.6968 40.4909 44.7017 40.4909 44.7066C40.4909 44.7115 40.4909 44.7163 40.4909 44.7212C40.4909 44.7261 40.4909 44.731 40.4909 44.7359C40.4909 44.7408 40.4909 44.7457 40.4909 44.7506C40.4909 44.7555 40.4909 44.7605 40.4909 44.7654C40.4909 44.7703 40.4909 44.7753 40.4909 44.7802C40.4909 44.7851 40.4909 44.7901 40.4909 44.795C40.4909 44.8 40.4909 44.8049 40.4909 44.8099C40.4909 44.8149 40.4909 44.8199 40.4909 44.8248C40.4909 44.8298 40.4909 44.8348 40.4909 44.8398C40.4909 44.8448 40.4909 44.8498 40.4909 44.8548C40.4909 44.8598 40.4909 44.8648 40.4909 44.8698C40.4909 44.8748 40.4909 44.8798 40.4909 44.8849C40.4909 44.8899 40.4909 44.8949 40.4909 44.9C40.4909 44.905 40.4909 44.9101 40.4909 44.9151C40.4909 44.9202 40.4909 44.9252 40.4909 44.9303C40.4909 44.9353 40.4909 44.9404 40.4909 44.9455C40.4909 44.9506 40.4909 44.9556 40.4909 44.9607C40.4909 44.9658 40.4909 44.9709 40.4909 44.976C40.4909 44.9811 40.4909 44.9862 40.4909 44.9913C40.4909 44.9964 40.4909 45.0016 40.4909 45.0067C40.4909 45.0118 40.4909 45.0169 40.4909 45.0221C40.4909 45.0272 40.4909 45.0323 40.4909 45.0375C40.4909 45.0426 40.4909 45.0478 40.4909 45.0529C40.4909 45.0581 40.4909 45.0632 40.4909 45.0684C40.4909 45.0736 40.4909 45.0788 40.4909 45.0839C40.4909 45.0891 40.4909 45.0943 40.4909 45.0995C40.4909 45.1047 40.4909 45.1099 40.4909 45.1151C40.4909 45.1203 40.4909 45.1255 40.4909 45.1307C40.4909 45.1359 40.4909 45.1411 40.4909 45.1463C40.4909 45.1516 40.4909 45.1568 40.4909 45.162C40.4909 45.1673 40.4909 45.1725 40.4909 45.1777C40.4909 45.183 40.4909 45.1882 40.4909 45.1935C40.4909 45.1987 40.4909 45.204 40.4909 45.2093C40.4909 45.2145 40.4909 45.2198 40.4909 45.2251C40.4909 45.2303 40.4909 45.2356 40.4909 45.2409C40.4909 45.2462 40.4909 45.2515 40.4909 45.2568C40.4909 45.2621 40.4909 45.2674 40.4909 45.2727C40.4909 45.278 40.4909 45.2833 40.4909 45.2886C40.4909 45.2939 40.4909 45.2992 40.4909 45.3046C40.4909 45.3099 40.4909 45.3152 40.4909 45.3206C40.4909 45.3259 40.4909 45.3312 40.4909 45.3366C40.4909 45.3419 40.4909 45.3473 40.4909 45.3526C40.4909 45.358 40.4909 45.3633 40.4909 45.3687C40.4909 45.3741 40.4909 45.3794 40.4909 45.3848C40.4909 45.3902 40.4909 45.3956 40.4909 45.4009C40.4909 45.4063 40.4909 45.4117 40.4909 45.4171C40.4909 45.4225 40.4909 45.4279 40.4909 45.4333C40.4909 45.4387 40.4909 45.4441 40.4909 45.4495C40.4909 45.4549 40.4909 45.4603 40.4909 45.4657C40.4909 45.4712 40.4909 45.4766 40.4909 45.482C40.4909 45.4874 40.4909 45.4929 40.4909 45.4983C40.4909 45.5038 40.4909 45.5092 40.4909 45.5146C40.4909 45.5201 40.4909 45.5255 40.4909 45.531C40.4909 45.5364 40.4909 45.5419 40.4909 45.5474C40.4909 45.5528 40.4909 45.5583 40.4909 45.5638C40.4909 45.5692 40.4909 45.5747 40.4909 45.5802C40.4909 45.5857 40.4909 45.5911 40.4909 45.5966C40.4909 45.6021 40.4909 45.6076 40.4909 45.6131C40.4909 45.6186 40.4909 45.6241 40.4909 45.6296C40.4909 45.6351 40.4909 45.6406 40.4909 45.6461C40.4909 45.6516 40.4909 45.6572 40.4909 45.6627C40.4909 45.6682 40.4909 45.6737 40.4909 45.6793C40.4909 45.6848 40.4909 45.6903 40.4909 45.6959C40.4909 45.7014 40.4909 45.7069 40.4909 45.7125C40.4909 45.718 40.4909 45.7236 40.4909 45.7291C40.4909 45.7347 40.4909 45.7402 40.4909 45.7458C40.4909 45.7513 40.4909 45.7569 40.4909 45.7625C40.4909 45.768 40.4909 45.7736 40.4909 45.7792C40.4909 45.7847 40.4909 45.7903 40.4909 45.7959C40.4909 45.8015 40.4909 45.8071 40.4909 45.8126C40.4909 45.8182 40.4909 45.8238 40.4909 45.8294C40.4909 45.835 40.4909 45.8406 40.4909 45.8462C40.4909 45.8518 40.4909 45.8574 40.4909 45.863C40.4909 45.8686 40.4909 45.8743 40.4909 45.8799C40.4909 45.8855 40.4909 45.8911 40.4909 45.8967C40.4909 45.9023 40.4909 45.908 40.4909 45.9136C40.4909 45.9192 40.4909 45.9249 40.4909 45.9305C40.4909 45.9361 40.4909 45.9418 40.4909 45.9474C40.4909 45.9531 40.4909 45.9587 40.4909 45.9643C40.4909 45.97 40.4909 45.9756 40.4909 45.9813C40.4909 45.987 40.4909 45.9926 40.4909 45.9983C40.4909 46.0039 40.4909 46.0096 40.4909 46.0153C40.4909 46.0209 40.4909 46.0266 40.4909 46.0323C40.4909 46.0379 40.4909 46.0436 40.4909 46.0493C40.4909 46.055 40.4909 46.0607 40.4909 46.0663C40.4909 46.072 40.4909 46.0777 40.4909 46.0834C40.4909 46.0891 40.4909 46.0948 40.4909 46.1005C40.4909 46.1062 40.4909 46.1119 40.4909 46.1176C40.4909 46.1233 40.4909 46.129 40.4909 46.1347C40.4909 46.1404 40.4909 46.1461 40.4909 46.1518C40.4909 46.1575 40.4909 46.1632 40.4909 46.169C40.4909 46.1747 40.4909 46.1804 40.4909 46.1861C40.4909 46.1918 40.4909 46.1976 40.4909 46.2033C40.4909 46.209 40.4909 46.2148 40.4909 46.2205C40.4909 46.2262 40.4909 46.232 40.4909 46.2377C40.4909 46.2434 40.4909 46.2492 40.4909 46.2549C40.4909 46.2607 40.4909 46.2664 40.4909 46.2722C40.4909 46.2779 40.4909 46.2836 40.4909 46.2894C40.4909 46.2952 40.4909 46.3009 40.4909 46.3067C40.4909 46.3124 40.4909 46.3182 40.4909 46.3239C40.4909 46.3297 40.4909 46.3355 40.4909 46.3412C40.4909 46.347 40.4909 46.3528 40.4909 46.3585C40.4909 46.3643 40.4909 46.3701 40.4909 46.3759C40.4909 46.3816 40.4909 46.3874 40.4909 46.3932C40.4909 46.399 40.4909 46.4047 40.4909 46.4105C40.4909 46.4163 40.4909 46.4221 40.4909 46.4279C40.4909 46.4337 40.4909 46.4395 40.4909 46.4452C40.4909 46.451 40.4909 46.4568 40.4909 46.4626C40.4909 46.4684 40.4909 46.4742 40.4909 46.48C40.4909 46.4858 40.4909 46.4916 40.4909 46.4974C40.4909 46.5032 40.4909 46.509 40.4909 46.5148C40.4909 46.5206 40.4909 46.5264 40.4909 46.5322C40.4909 46.5381 40.4909 46.5439 40.4909 46.5497C40.4909 46.5555 40.4909 46.5613 40.4909 46.5671C40.4909 46.5729 40.4909 46.5787 40.4909 46.5846C40.4909 46.5904 40.4909 46.5962 40.4909 46.602C40.4909 46.6079 40.4909 46.6137 40.4909 46.6195C40.4909 46.6253 40.4909 46.6312 40.4909 46.637C40.4909 46.6428 40.4909 46.6486 40.4909 46.6545C40.4909 46.6603 40.4909 46.6661 40.4909 46.672C40.4909 46.6778 40.4909 46.6836 40.4909 46.6895C40.4909 46.6953 40.4909 46.7011 40.4909 46.707C40.4909 46.7128 40.4909 46.7187 40.4909 46.7245C40.4909 46.7303 40.4909 46.7362 40.4909 46.742C40.4909 46.7479 40.4909 46.7537 40.4909 46.7596C40.4909 46.7654 40.4909 46.7713 40.4909 46.7771C40.4909 46.783 40.4909 46.7888 40.4909 46.7947C40.4909 46.8005 40.4909 46.8064 40.4909 46.8122C40.4909 46.8181 40.4909 46.8239 40.4909 46.8298C40.4909 46.8356 40.4909 46.8415 40.4909 46.8473C40.4909 46.8532 40.4909 46.859 40.4909 46.8649C40.4909 46.8708 40.4909 46.8766 40.4909 46.8825C40.4909 46.8883 40.4909 46.8942 40.4909 46.9001C40.4909 46.9059 40.4909 46.9118 40.4909 46.9177C40.4909 46.9235 40.4909 46.9294 40.4909 46.9352C40.4909 46.9411 40.4909 46.947 40.4909 46.9528C40.4909 46.9587 40.4909 46.9646 40.4909 46.9704C40.4909 46.9763 40.4909 46.9822 40.4909 46.988C40.4909 46.9939 40.4909 46.9998 40.4909 47.0057C40.4909 47.0115 40.4909 47.0174 40.4909 47.0233C40.4909 47.0291 40.4909 47.035 40.4909 47.0409C40.4909 47.0467 40.4909 47.0526 40.4909 47.0585C40.4909 47.0644 40.4909 47.0702 40.4909 47.0761C40.4909 47.082 40.4909 47.0879 40.4909 47.0937C40.4909 47.0996 40.4909 47.1055 40.4909 47.1114C40.4909 47.1172 40.4909 47.1231 40.4909 47.129C40.4909 47.1349 40.4909 47.1407 40.4909 47.1466C40.4909 47.1525 40.4909 47.1584 40.4909 47.1642C40.4909 47.1701 40.4909 47.176 40.4909 47.1819C40.4909 47.1877 40.4909 47.1936 40.4909 47.1995C40.4909 47.2054 40.4909 47.2112 40.4909 47.2171C40.4909 47.223 40.4909 47.2289 40.4909 47.2347C40.4909 47.2406 40.4909 47.2465 40.4909 47.2524C40.4909 47.2582 40.4909 47.2641 40.4909 47.27C40.4909 47.2759 40.4909 47.2817 40.4909 47.2876C40.4909 47.2935 40.4909 47.2994 40.4909 47.3052C40.4909 47.3111 40.4909 47.317 40.4909 47.3229C40.4909 47.3287 40.4909 47.3346 40.4909 47.3405C40.4909 47.3464 40.4909 47.3522 40.4909 47.3581C40.4909 47.364 40.4909 47.3699 40.4909 47.3757C40.4909 47.3816 40.4909 47.3875 40.4909 47.3933C40.4909 47.3992 40.4909 47.4051 40.4909 47.411C40.4909 47.4168 40.4909 47.4227 40.4909 47.4286C40.4909 47.4344 40.4909 47.4403 40.4909 47.4462C40.4909 47.452 40.4909 47.4579 40.4909 47.4638C40.4909 47.4697 40.4909 47.4755 40.4909 47.4814C40.4909 47.4873 40.4909 47.4931 40.4909 47.499C40.4909 47.5048 40.4909 47.5107 40.4909 47.5166C40.4909 47.5224 40.4909 47.5283 40.4909 47.5342C40.4909 47.54 40.4909 47.5459 40.4909 47.5517C40.4909 47.5576 40.4909 47.5635 40.4909 47.5693C40.4909 47.5752 40.4909 47.581 40.4909 47.5869C40.4909 47.5928 40.4909 47.5986 40.4909 47.6045C40.4909 47.6103 40.4909 47.6162 40.4909 47.622C40.4909 47.6279 40.4909 47.6337 40.4909 47.6396C40.4909 47.6454 40.4909 47.6513 40.4909 47.6571C40.4909 47.663 40.4909 47.6688 40.4909 47.6747C40.4909 47.6805 40.4909 47.6864 40.4909 47.6922C40.4909 47.6981 40.4909 47.7039 40.4909 47.7097C40.4909 47.7156 40.4909 47.7214 40.4909 47.7273C40.4909 47.7331 40.4909 47.7389 40.4909 47.7448C40.4909 47.7506 40.4909 47.7565 40.4909 47.7623C40.4909 47.7681 40.4909 47.774 40.4909 47.7798C40.4909 47.7856 40.4909 47.7915 40.4909 47.7973C40.4909 47.8031 40.4909 47.8089 40.4909 47.8148C40.4909 47.8206 40.4909 47.8264 40.4909 47.8322C40.4909 47.8381 40.4909 47.8439 40.4909 47.8497C40.4909 47.8555 40.4909 47.8613 40.4909 47.8672C40.4909 47.873 40.4909 47.8788 40.4909 47.8846C40.4909 47.8904 40.4909 47.8962 40.4909 47.902C40.4909 47.9078 40.4909 47.9136 40.4909 47.9195C40.4909 47.9253 40.4909 47.9311 40.4909 47.9369C40.4909 47.9427 40.4909 47.9485 40.4909 47.9543C40.4909 47.9601 40.4909 47.9659 40.4909 47.9717C40.4909 47.9775 40.4909 47.9833 40.4909 47.989C40.4909 47.9948 40.4909 48.0006 40.4909 48.0064C40.4909 48.0122 40.4909 48.018 40.4909 48.0238C40.4909 48.0296 40.4909 48.0353 40.4909 48.0411C40.4909 48.0469 40.4909 48.0527 40.4909 48.0585C40.4909 48.0642 40.4909 48.07 40.4909 48.0758C40.4909 48.0815 40.4909 48.0873 40.4909 48.0931C40.4909 48.0988 40.4909 48.1046 40.4909 48.1104C40.4909 48.1161 40.4909 48.1219 40.4909 48.1277C40.4909 48.1334 40.4909 48.1392 40.4909 48.1449C40.4909 48.1507 40.4909 48.1564 40.4909 48.1622C40.4909 48.1679 40.4909 48.1737 40.4909 48.1794C40.4909 48.1852 40.4909 48.1909 40.4909 48.1966C40.4909 48.2024 40.4909 48.2081 40.4909 48.2139C40.4909 48.2196 40.4909 48.2253 40.4909 48.231C40.4909 48.2368 40.4909 48.2425 40.4909 48.2482C40.4909 48.254 40.4909 48.2597 40.4909 48.2654C40.4909 48.2711 40.4909 48.2768 40.4909 48.2825C40.4909 48.2883 40.4909 48.294 40.4909 48.2997C40.4909 48.3054 40.4909 48.3111 40.4909 48.3168C40.4909 48.3225 40.4909 48.3282 40.4909 48.3339C40.4909 48.3396 40.4909 48.3453 40.4909 48.351C40.4909 48.3567 40.4909 48.3624 40.4909 48.368C40.4909 48.3737 40.4909 48.3794 40.4909 48.3851C40.4909 48.3908 40.4909 48.3964 40.4909 48.4021C40.4909 48.4078 40.4909 48.4135 40.4909 48.4191C40.4909 48.4248 40.4909 48.4305 40.4909 48.4361C40.4909 48.4418 40.4909 48.4475 40.4909 48.4531C40.4909 48.4588 40.4909 48.4644 40.4909 48.4701C40.4909 48.4757 40.4909 48.4814 40.4909 48.487C40.4909 48.4926 40.4909 48.4983 40.4909 48.5039C40.4909 48.5096 40.4909 48.5152 40.4909 48.5208C40.4909 48.5265 40.4909 48.5321 40.4909 48.5377C40.4909 48.5433 40.4909 48.549 40.4909 48.5546C40.4909 48.5602 40.4909 48.5658 40.4909 48.5714C40.4909 48.577 40.4909 48.5826 40.4909 48.5882C40.4909 48.5938 40.4909 48.5994 40.4909 48.605C40.4909 48.6106 40.4909 48.6162 40.4909 48.6218C40.4909 48.6274 40.4909 48.633 40.4909 48.6386C40.4909 48.6442 40.4909 48.6497 40.4909 48.6553C40.4909 48.6609 40.4909 48.6665 40.4909 48.672C40.4909 48.6776 40.4909 48.6832 40.4909 48.6887C40.4909 48.6943 40.4909 48.6998 40.4909 48.7054C40.4909 48.7109 40.4909 48.7165 40.4909 48.722C40.4909 48.7276 40.4909 48.7331 40.4909 48.7387C40.4909 48.7442 40.4909 48.7497 40.4909 48.7553C40.4909 48.7608 40.4909 48.7663 40.4909 48.7718C40.4909 48.7774 40.4909 48.7829 40.4909 48.7884C40.4909 48.7939 40.4909 48.7994 40.4909 48.8049C40.4909 48.8104 40.4909 48.8159 40.4909 48.8214C40.4909 48.8269 40.4909 48.8324 40.4909 48.8379C40.4909 48.8434 40.4909 48.8489 40.4909 48.8544C40.4909 48.8598 40.4909 48.8653 40.4909 48.8708C40.4909 48.8763 40.4909 48.8817 40.4909 48.8872C40.4909 48.8927 40.4909 48.8981 40.4909 48.9036C40.4909 48.909 40.4909 48.9145 40.4909 48.9199C40.4909 48.9254 40.4909 48.9308 40.4909 48.9363C40.4909 48.9417 40.4909 48.9471 40.4909 48.9526C40.4909 48.958 40.4909 48.9634 40.4909 48.9689C40.4909 48.9743 40.4909 48.9797 40.4909 48.9851C40.4909 48.9905 40.4909 48.9959 40.4909 49.0013C40.4909 49.0067 40.4909 49.0121 40.4909 49.0175C40.4909 49.0229 40.4909 49.0283 40.4909 49.0337C40.4909 49.0391 40.4909 49.0445 40.4909 49.0498C40.4909 49.0552 40.4909 49.0606 40.4909 49.0659C40.4909 49.0713 40.4909 49.0767 40.4909 49.082C40.4909 49.0874 40.4909 49.0927 40.4909 49.0981C40.4909 49.1034 40.4909 49.1088 40.4909 49.1141C40.4909 49.1195 40.4909 49.1248 40.4909 49.1301C40.4909 49.1354 40.4909 49.1408 40.4909 49.1461C40.4909 49.1514 40.4909 49.1567 40.4909 49.162C40.4909 49.1673 40.4909 49.1726 40.4909 49.1779C40.4909 49.1832 40.4909 49.1885 40.4909 49.1938C40.4909 49.1991 40.4909 49.2044 40.4909 49.2097C40.4909 49.2149 40.4909 49.2202 40.4909 49.2255C40.4909 49.2307 40.4909 49.236 40.4909 49.2413C40.4909 49.2465 40.4909 49.2518 40.4909 49.257C40.4909 49.2623 40.4909 49.2675 40.4909 49.2727C40.4909 49.278 40.4909 49.2832 40.4909 49.2884C40.4909 49.2937 40.4909 49.2989 40.4909 49.3041C40.4909 49.3093 40.4909 49.3145 40.4909 49.3197C40.4909 49.3249 40.4909 49.3301 40.4909 49.3353C40.4909 49.3405 40.4909 49.3457 40.4909 49.3509C40.4909 49.3561 40.4909 49.3612 40.4909 49.3664C40.4909 49.3716 40.4909 49.3767 40.4909 49.3819C40.4909 49.3871 40.4909 49.3922 40.4909 49.3974C40.4909 49.4025 40.4909 49.4076 40.4909 49.4128C40.4909 49.4179 40.4909 49.4231 40.4909 49.4282C40.4909 49.4333 40.4909 49.4384 40.4909 49.4435C40.4909 49.4487 40.4909 49.4538 40.4909 49.4589C40.4909 49.464 40.4909 49.4691 40.4909 49.4742C40.4909 49.4792 40.4909 49.4843 40.4909 49.4894C40.4909 49.4945 40.4909 49.4996 40.4909 49.5046C40.4909 49.5097 40.4909 49.5148 40.4909 49.5198C40.4909 49.5249 40.4909 49.5299 40.4909 49.535C40.4909 49.54 40.4909 49.545 40.4909 49.5501C40.4909 49.5551 40.4909 49.5601 40.4909 49.5651C40.4909 49.5702 40.4909 49.5752 40.4909 49.5802C40.4909 49.5852 40.4909 49.5902 40.4909 49.5952C40.4909 49.6002 40.4909 49.6052 40.4909 49.6101C40.4909 49.6151 40.4909 49.6201 40.4909 49.6251C40.4909 49.63 40.4909 49.635 40.4909 49.64C40.4909 49.6449 40.4909 49.6499 40.4909 49.6548C40.4909 49.6598 40.4909 49.6647 40.4909 49.6696C40.4909 49.6746 40.4909 49.6795 40.4909 49.6844C40.4909 49.6893 40.4909 49.6942 40.4909 49.6991C40.4909 49.704 40.4909 49.7089 40.4909 49.7138C40.4909 49.7187 40.4909 49.7236 40.4909 49.7285C40.4909 49.7334 40.4909 49.7382 40.4909 49.7431C40.4909 49.748 40.4909 49.7528 40.4909 49.7577C40.4909 49.7625 40.4909 49.7674 40.4909 49.7722C40.4909 49.777 40.4909 49.7819 40.4909 49.7867C40.4909 49.7915 40.4909 49.7963 40.4909 49.8012C40.4909 49.806 40.4909 49.8108 40.4909 49.8156C40.4909 49.8204 40.4909 49.8252 40.4909 49.8299C40.4909 49.8347 40.4909 49.8395 40.4909 49.8443C40.4909 49.849 40.4909 49.8538 40.4909 49.8586C40.4909 49.8633 40.4909 49.8681 40.4909 49.8728C40.4909 49.8776 40.4909 49.8823 40.4909 49.887C40.4909 49.8917 40.4909 49.8965 40.4909 49.9012C40.4909 49.9059 40.4909 49.9106 40.4909 49.9153C40.4909 49.92 40.4909 49.9247 40.4909 49.9294C40.4909 49.9341 40.4909 49.9387 40.4909 49.9434C40.4909 49.9481 40.4909 49.9527 40.4909 49.9574C40.4909 49.962 40.4909 49.9667 40.4909 49.9713C40.4909 49.976 40.4909 49.9806 40.4909 49.9852C40.4909 49.9899 40.4909 49.9945 40.4909 49.9991C40.4909 50.0037 40.4909 50.0083 40.4909 50.0129C40.4909 50.0175 40.4909 50.0221 40.4909 50.0267C40.4909 50.0313 40.4909 50.0358 40.4909 50.0404C40.4909 50.045 40.4909 50.0495 40.4909 50.0541C40.4909 50.0586 40.4909 50.0632 40.4909 50.0677C40.4909 50.0722 40.4909 50.0768 40.4909 50.0813C40.4909 50.0858 40.4909 50.0903 40.4909 50.0948C40.4909 50.0993 40.4909 50.1038 40.4909 50.1083C40.4909 50.1128 40.4909 50.1173 40.4909 50.1218C40.4909 50.1262 40.4909 50.1307 40.4909 50.1352C40.4909 50.1396 40.4909 50.1441 40.4909 50.1485C40.4909 50.153 40.4909 50.1574 40.4909 50.1618C40.4909 50.1662 40.4909 50.1707 40.4909 50.1751C40.4909 50.1795 40.4909 50.1839 40.4909 50.1883C40.4909 50.1927 40.4909 50.1971 40.4909 50.2014C40.4909 50.2058 40.4909 50.2102 40.4909 50.2146C40.4909 50.2189 40.4909 50.2233 40.4909 50.2276C40.4909 50.232 40.4909 50.2363 40.4909 50.2406C40.4909 50.245 40.4909 50.2493 40.4909 50.2536C40.4909 50.2579 40.4909 50.2622 40.4909 50.2665C40.4909 50.2708 40.4909 50.2751 40.4909 50.2794C40.4909 50.2837 40.4909 50.2879 40.4909 50.2922C40.4909 50.2964 40.4909 50.3007 40.4909 50.3049C40.4909 50.3092 40.4909 50.3134 40.4909 50.3177C40.4909 50.3219 40.4909 50.3261 40.4909 50.3303C40.4909 50.3345 40.4909 50.3387 40.4909 50.3429C40.4909 50.3471 40.4909 50.3513 40.4909 50.3555C40.4909 50.3597 40.4909 50.3638 40.4909 50.368C40.4909 50.3722 40.4909 50.3763 40.4909 50.3805C40.4909 50.3846 40.4909 50.3887 40.4909 50.3929C40.4909 50.397 40.4909 50.4011 40.4909 50.4052C40.4909 50.4093 40.4909 50.4134 40.4909 50.4175C40.4909 50.4216 40.4909 50.4257 40.4909 50.4297C40.4909 50.4338 40.4909 50.4379 40.4909 50.4419C40.4909 50.446 40.4909 50.45 40.4909 50.4541C40.4909 50.4581 40.4909 50.4621 40.4909 50.4662C40.4909 50.4702 40.4909 50.4742 40.4909 50.4782C40.4909 50.4822 40.4909 50.4862 40.4909 50.4902C40.4909 50.4941 40.4909 50.4981 40.4909 50.5021C40.4909 50.506 40.4909 50.51 40.4909 50.5139C40.4909 50.5179 40.4909 50.5218 40.4909 50.5258C40.4909 50.5297 40.4909 50.5336 40.4909 50.5375C40.4909 50.5414 40.4909 50.5453 40.4909 50.5492C40.4909 50.5531 40.4909 50.557 40.4909 50.5609C40.4909 50.5647 40.4909 50.5686 40.4909 50.5724C40.4909 50.5763 40.4909 50.5801 40.4909 50.584C40.4909 50.5878 40.4909 50.5916 40.4909 50.5954C40.4909 50.5993 40.4909 50.6031 40.4909 50.6069C40.4909 50.6107 40.4909 50.6144 40.4909 50.6182C40.4909 50.622 40.4909 50.6258 40.4909 50.6295C40.4909 50.6333 40.4909 50.637 40.4909 50.6408C40.4909 50.6445 40.4909 50.6482 40.4909 50.652C40.4909 50.6557 40.4909 50.6594 40.4909 50.6631C40.4909 50.6668 40.4909 50.6705 40.4909 50.6742C40.4909 50.6778 40.4909 50.6815 40.4909 50.6852C40.4909 50.6888 40.4909 50.6925 40.4909 50.6961C40.4909 50.6998 40.4909 50.7034 40.4909 50.707C40.4909 50.7106 40.4909 50.7142 40.4909 50.7178C40.4909 50.7214 40.4909 50.725 40.4909 50.7286C40.4909 50.7322 40.4909 50.7358 40.4909 50.7393C40.4909 50.7429 40.4909 50.7464 40.4909 50.75C40.4909 50.7535 40.4909 50.757 40.4909 50.7606C40.4909 50.7641 40.4909 50.7676 40.4909 50.7711C40.4909 50.7746 40.4909 50.7781 40.4909 50.7816C40.4909 50.785 40.4909 50.7885 40.4909 50.792C40.4909 50.7954 40.4909 50.7989 40.4909 50.8023C40.4909 50.8057 40.4909 50.8092 40.4909 50.8126C40.4909 50.816 40.4909 50.8194 40.4909 50.8228C40.4909 50.8262 40.4909 50.8296 40.4909 50.833C40.4909 50.8363 40.4909 50.8397 40.4909 50.8431C40.4909 50.8464 40.4909 50.8498 40.4909 50.8531C40.4909 50.8564 40.4909 50.8598 40.4909 50.8631C40.4909 50.8664 40.4909 50.8697 40.4909 50.873C40.4909 50.8763 40.4909 50.8795 40.4909 50.8828C40.4909 50.8861 40.4909 50.8893 40.4909 50.8926C40.4909 50.8958 40.4909 50.8991 40.4909 50.9023C40.4909 50.9055 40.4909 50.9087 40.4909 50.912C40.4909 50.9152 40.4909 50.9184 40.4909 50.9215C40.4909 50.9247 40.4909 50.9279 40.4909 50.9311C40.4909 50.9342 40.4909 50.9374 40.4909 50.9405C40.4909 50.9436 40.4909 50.9468 40.4909 50.9499C40.4909 50.953 40.4909 50.9561 40.4909 50.9592C40.4909 50.9623 40.4909 50.9654 40.4909 50.9685C40.4909 50.9715 40.4909 50.9746 40.4909 50.9777C40.4909 50.9807 40.4909 50.9838 40.4909 50.9868C40.4909 50.9898 40.4909 50.9928 40.4909 50.9958C40.4909 50.9988 40.4909 51.0018 40.4909 51.0048C40.4909 51.0078 40.4909 51.0108 40.4909 51.0137C40.4909 51.0167 40.4909 51.0197 40.4909 51.0226C40.4909 51.0255 40.4909 51.0285 40.4909 51.0314C40.4909 51.0343 40.4909 51.0372 40.4909 51.0401C40.4909 51.043 40.4909 51.0459 40.4909 51.0487C40.4909 51.0516 40.4909 51.0545 40.4909 51.0573C40.4909 51.0602 40.4909 51.063 40.4909 51.0658C40.4909 51.0687 40.4909 51.0715 40.4909 51.0743C40.4909 51.0771 40.4909 51.0799 40.4909 51.0826C40.4909 51.0854 40.4909 51.0882 40.4909 51.0909C40.4909 51.0937 40.4909 51.0964 40.4909 51.0992C40.4909 51.1019 40.4909 51.1046 40.4909 51.1073C40.4909 51.11 40.4909 51.1127 40.4909 51.1154C40.4909 51.1181 40.4909 51.1208 40.4909 51.1234C40.4909 51.1261 40.4909 51.1287 40.4909 51.1314C40.4909 51.134 40.4909 51.1366 40.4909 51.1393C40.4909 51.1419 40.4909 51.1445 40.4909 51.1471C40.4909 51.1497 40.4909 51.1522 40.4909 51.1548C40.4909 51.1574 40.4909 51.1599 40.4909 51.1625C40.4909 51.165 40.4909 51.1675 40.4909 51.17C40.4909 51.1726 40.4909 51.1751 40.4909 51.1776C40.4909 51.18 40.4909 51.1825 40.4909 51.185C40.4909 51.1875 40.4909 51.1899 40.4909 51.1924C40.4909 51.1948 40.4909 51.1972 40.4909 51.1997C40.4909 51.2021 40.4909 51.2045 40.4909 51.2069C40.4909 51.2093 40.4909 51.2117 40.4909 51.214C40.4909 51.2164 40.4909 51.2188 40.4909 51.2211C40.4909 51.2234 40.4909 51.2258 40.4909 51.2281C40.4909 51.2304 40.4909 51.2327 40.4909 51.235C40.4909 51.2373 40.4909 51.2396 40.4909 51.2419C40.4909 51.2441 40.4909 51.2464 40.4909 51.2486C40.4909 51.2509 40.4909 51.2531 40.4909 51.2553C40.4909 51.2575 40.4909 51.2598 40.4909 51.2619C40.4909 51.2641 40.4909 51.2663 40.4909 51.2685C40.4909 51.2707 40.4909 51.2728 40.4909 51.275C40.4909 51.2771 40.4909 51.2792 40.4909 51.2814C40.4909 51.2835 40.4909 51.2856 40.4909 51.2877C40.4909 51.2898 40.4909 51.2918 40.4909 51.2939C40.4909 51.296 40.4909 51.298 40.4909 51.3001C40.4909 51.3021 40.4909 51.3041 40.4909 51.3061C40.4909 51.3082 40.4909 51.3102 40.4909 51.3121C40.4909 51.3141 40.4909 51.3161 40.4909 51.3181C40.4909 51.32 40.4909 51.322 40.4909 51.3239C40.4909 51.3258 40.4909 51.3278 40.4909 51.3297C40.4909 51.3316 40.4909 51.3335 40.4909 51.3354C40.4909 51.3372 40.4909 51.3391 40.4909 51.341C40.4909 51.3428 40.4909 51.3447 40.4909 51.3465C40.4909 51.3483 40.4909 51.3501 40.4909 51.352C40.4909 51.3538 40.4909 51.3555 40.4909 51.3573C40.4909 51.3591 40.4909 51.3609 40.4909 51.3626C40.4909 51.3644 40.4909 51.3661 40.4909 51.3678C40.4909 51.3695 40.4909 51.3712 40.4909 51.3729C40.4909 51.3746 40.4909 51.3763 40.4909 51.378C40.4909 51.3797 40.4909 51.3813 40.4909 51.383H42.4909ZM41.8067 44.9793L46.5409 43.4038L45.9093 41.5061L41.1752 43.0817L41.8067 44.9793ZM45.7785 43.3497C46.8136 43.8664 49.114 44.1349 51.1398 42.1123L49.7267 40.6969C48.386 42.0355 47.0393 41.7437 46.6717 41.5602L45.7785 43.3497ZM51.4033 41.6475L52.9814 35.3452L51.0412 34.8594L49.4632 41.1617L51.4033 41.6475ZM27.3537 41.5675C27.1347 41.6811 26.7404 41.8082 26.353 41.7968C26.0028 41.7864 25.7043 41.6714 25.4702 41.3459L23.8465 42.5136C24.5189 43.4486 25.4612 43.7712 26.2938 43.7959C27.0893 43.8194 27.8199 43.5789 28.2752 43.3425L27.3537 41.5675ZM25.4702 41.3459C25.0869 40.8129 24.5052 39.6392 23.907 38.2937C23.3237 36.9816 22.7677 35.6058 22.4353 34.7429L20.569 35.4618C20.9109 36.3495 21.4798 37.7573 22.0794 39.1061C22.6642 40.4215 23.3234 41.7862 23.8465 42.5136L25.4702 41.3459ZM36.7568 29.3758C33.5914 29.3758 31.0227 31.9381 31.0227 35.1023H33.0227C33.0227 33.0457 34.693 31.3758 36.7568 31.3758L36.7568 29.3758ZM42.4909 35.1022C42.4909 31.938 39.9221 29.3758 36.7568 29.3758L36.7568 31.3758C38.8206 31.3758 40.4909 33.0457 40.4909 35.1023L42.4909 35.1022ZM31.0227 35.1023C31.0227 37.4823 32.476 39.52 34.5393 40.3847L35.3124 38.5401C33.9648 37.9754 33.0227 36.647 33.0227 35.1023H31.0227ZM34.5393 40.3847C35.2228 40.6711 35.9726 40.8289 36.7568 40.8289L36.7568 38.8289C36.2427 38.8289 35.7553 38.7258 35.3124 38.5401L34.5393 40.3847ZM29.5913 38.6733L34.5986 40.4073L35.2531 38.5174L30.2458 36.7834L29.5913 38.6733ZM36.7568 40.8289C37.7762 40.8289 38.7364 40.5623 39.5681 40.0944L38.5873 38.3514C38.0474 38.6552 37.4239 38.8289 36.7568 38.8289L36.7568 40.8289ZM39.5681 40.0944C41.31 39.1142 42.491 37.247 42.4909 35.1022L40.4909 35.1023C40.491 36.4945 39.7263 37.7105 38.5873 38.3514L39.5681 40.0944ZM43.8369 36.7695L38.7936 38.2641L39.3618 40.1817L44.4052 38.6871L43.8369 36.7695ZM35.7568 52.9586V61.3615H37.7568V52.9586H35.7568Z" fill="#44240C"/>
</svg>
