<svg width="75" height="72" viewBox="0 0 75 72" fill="none" xmlns="http://www.w3.org/2000/svg">
<path opacity="0.5" d="M19.0284 30.025C18.6741 29.6014 18.0434 29.5453 17.6198 29.8997C17.1962 30.2541 17.1401 30.8847 17.4945 31.3083L19.0284 30.025ZM48.5607 19.9261C48.7653 19.4132 48.5154 18.8314 48.0024 18.6268C47.4895 18.4221 46.9077 18.672 46.7031 19.185L48.5607 19.9261ZM33.3321 69C33.3321 69.5523 33.7798 70 34.3321 70C34.8843 70 35.3321 69.5523 35.3321 69H33.3321ZM53.1734 4L54.0876 3.59471C53.9738 3.33783 53.757 3.14071 53.4905 3.05161C53.224 2.9625 52.9324 2.98964 52.6869 3.12636L53.1734 4ZM8.84075 17.3333L9.02007 16.3495C8.50923 16.2564 8.01212 16.5698 7.87582 17.0708L8.84075 17.3333ZM33.3321 53.4444V69H35.3321V53.4444H33.3321ZM46.7031 19.185C45.5026 22.1937 43.9283 26.1489 42.2829 30.298L44.142 31.0353C45.7869 26.8876 47.3607 22.9336 48.5607 19.9261L46.7031 19.185ZM42.2829 30.298C38.3671 40.1721 34.0197 51.2146 33.3831 53.1289L35.281 53.76C35.894 51.9161 40.2073 40.9569 44.142 31.0353L42.2829 30.298ZM42.805 31.5799C44.5959 32.379 47.4421 33.036 50.1448 32.298C52.9561 31.5304 55.4143 29.3063 56.3687 24.7611L54.4114 24.35C53.5926 28.2493 51.6221 29.8214 49.618 30.3686C47.5053 30.9455 45.1494 30.4359 43.6199 29.7534L42.805 31.5799ZM56.3687 24.7611C58.1996 16.0427 55.6168 7.04391 54.0876 3.59471L52.2593 4.40529C53.6856 7.62276 56.1272 16.1795 54.4114 24.35L56.3687 24.7611ZM52.6869 3.12636C50.1548 4.53664 46.3323 6.959 43.073 9.66067C41.4442 11.0108 39.9292 12.4527 38.7842 13.8935C37.6566 15.3124 36.7983 16.8407 36.6611 18.3541L38.6529 18.5348C38.7373 17.6038 39.306 16.4515 40.35 15.1378C41.3767 13.8459 42.7779 12.5031 44.3494 11.2004C47.4906 8.59656 51.2047 6.24114 53.66 4.87364L52.6869 3.12636ZM36.6611 18.3541C36.3833 21.4176 36.3624 23.9894 37.2238 26.1726C38.1102 28.4192 39.8626 30.1024 42.7635 31.5602L43.6615 29.7731C41.0347 28.4531 39.7322 27.0808 39.0843 25.4385C38.4113 23.7329 38.3766 21.5824 38.6529 18.5348L36.6611 18.3541ZM17.4945 31.3083C19.6482 33.8827 22.8413 37.8437 25.8193 41.8215L27.4203 40.6229C24.4169 36.6112 21.2008 32.6216 19.0284 30.025L17.4945 31.3083ZM25.8193 41.8215C27.6373 44.2498 29.3673 46.674 30.7301 48.7874C32.1135 50.9328 33.054 52.6616 33.374 53.7311L35.2901 53.1578C34.8791 51.7845 33.7884 49.8397 32.4109 47.7036C31.0128 45.5353 29.2523 43.0698 27.4203 40.6229L25.8193 41.8215ZM26.0804 40.3802C24.9411 41.1101 22.8722 41.8728 20.4914 41.6837C18.1524 41.4979 15.4403 40.3893 12.9473 37.2652L11.3841 38.5126C14.211 42.0552 17.4253 43.4465 20.333 43.6774C23.199 43.905 25.6971 43.001 27.1593 42.0642L26.0804 40.3802ZM12.9473 37.2652C10.4528 34.1391 9.38452 30.2344 9.08943 26.5589C8.79437 22.8837 9.28022 19.5274 9.80568 17.5958L7.87582 17.0708C7.29296 19.2134 6.78133 22.8014 7.09584 26.7189C7.41033 30.636 8.5587 34.972 11.3841 38.5126L12.9473 37.2652ZM8.66143 18.3171C10.6413 18.678 13.8206 19.4679 16.8742 20.6543C19.9741 21.8588 22.7487 23.3991 24.1215 25.1685L25.7017 23.9426C23.9712 21.712 20.7424 20.0116 17.5986 18.7901C14.4085 17.5506 11.1041 16.7294 9.02007 16.3495L8.66143 18.3171ZM24.1215 25.1685C26.0794 27.6922 27.3243 29.4529 27.7077 31.6059C28.0881 33.7423 27.6403 36.4354 25.705 40.8183L27.5346 41.6262C29.5242 37.1202 30.1619 33.98 29.6767 31.2553C29.1945 28.5472 27.6229 26.4189 25.7017 23.9426L24.1215 25.1685Z" fill="#44240C"/>
</svg>
