<svg width="75" height="72" viewBox="0 0 75 72" fill="none" xmlns="http://www.w3.org/2000/svg">
<path opacity="0.5" d="M18.9286 55.7391H19.9286C19.9286 55.503 19.8451 55.2746 19.6928 55.0941L18.9286 55.7391ZM18.9286 66H17.9286C17.9286 66.5523 18.3764 67 18.9286 67V66ZM25.1191 66V67C25.5775 67 25.9772 66.6883 26.0889 66.2438L25.1191 66ZM26.6667 59.8435L27.0752 58.9307C26.8054 58.81 26.496 58.8148 26.2301 58.9438C25.9642 59.0729 25.769 59.313 25.6969 59.5997L26.6667 59.8435ZM47.8175 60.8696L48.7109 60.4204C48.4881 59.9771 47.9738 59.7642 47.5028 59.9204L47.8175 60.8696ZM50.3969 66L49.5034 66.4492C49.6732 66.7869 50.0189 67 50.3969 67V66ZM55.5556 66V67C56.1079 67 56.5556 66.5523 56.5556 66H55.5556ZM55.5556 57.7913L55.0169 56.9488C54.7295 57.1325 54.5556 57.4502 54.5556 57.7913H55.5556ZM70 48.5565L70.5387 49.399C70.8476 49.2015 71.0237 48.8507 70.9974 48.4849L70 48.5565ZM69.4841 41.3739L70.4816 41.3023C70.447 40.8209 70.0736 40.433 69.594 40.38L69.4841 41.3739ZM64.8413 40.8609L63.9683 41.3486C64.1259 41.6307 64.4102 41.8193 64.7314 41.8548L64.8413 40.8609ZM59.6826 31.6261L58.7696 31.2181C58.6408 31.5062 58.6556 31.8382 58.8095 32.1138L59.6826 31.6261ZM61.746 27.0087L62.659 27.4167C62.8151 27.0675 62.7583 26.6599 62.5127 26.3667C62.2672 26.0735 61.8759 25.946 61.5048 26.0382L61.746 27.0087ZM55.5556 28.5478L55.1384 29.4567C55.3446 29.5513 55.5767 29.573 55.7969 29.5183L55.5556 28.5478ZM48.8492 25.4696L49.2664 24.5607C49.2398 24.5485 49.2127 24.5375 49.1852 24.5277L48.8492 25.4696ZM5.76649 28.9317C5.41178 28.5083 4.78106 28.4527 4.35774 28.8074C3.93442 29.1621 3.8788 29.7929 4.23351 30.2162L5.76649 28.9317ZM16.8651 27.5217L15.8651 27.5238L16.8651 27.5217ZM15.8333 24.4435L15.2195 25.2329L15.2195 25.2329L15.8333 24.4435ZM12.2222 24.4435L11.895 23.4985C11.8305 23.5209 11.7684 23.5498 11.7098 23.5847L12.2222 24.4435ZM15.3174 36.4779L16.2153 36.9182L16.2153 36.9182L15.3174 36.4779ZM27.2532 31.2437C26.7587 31.4896 26.5572 32.0899 26.8031 32.5844C27.049 33.0789 27.6492 33.2804 28.1437 33.0345L27.2532 31.2437ZM49.3685 32.9979C49.8427 33.2809 50.4566 33.1258 50.7396 32.6515C51.0226 32.1773 50.8676 31.5634 50.3933 31.2804L49.3685 32.9979ZM36.4682 12.1304L36.3353 11.1393C35.8388 11.2059 35.4682 11.6295 35.4682 12.1304H36.4682ZM35.4682 25.1794C35.4682 25.7317 35.9159 26.1794 36.4682 26.1794C37.0205 26.1794 37.4682 25.7317 37.4682 25.1794H35.4682ZM33.8888 20.3652C33.3366 20.3652 32.8888 20.8129 32.8888 21.3652C32.8888 21.9175 33.3366 22.3652 33.8888 22.3652V20.3652ZM39.0477 22.3652C39.6 22.3652 40.0477 21.9175 40.0477 21.3652C40.0477 20.8129 39.6 20.3652 39.0477 20.3652V22.3652ZM41.1111 13.1565L40.2983 13.7391L40.2983 13.7391L41.1111 13.1565ZM41.1111 17.2609L40.239 16.7715L40.239 16.7715L41.1111 17.2609ZM17.9286 55.7391V66H19.9286V55.7391H17.9286ZM18.9286 67H25.1191V65H18.9286V67ZM26.0889 66.2438L27.6366 60.0873L25.6969 59.5997L24.1493 65.7562L26.0889 66.2438ZM26.2582 60.7562C29.8391 62.3588 39.1517 64.7958 48.1322 61.8188L47.5028 59.9204C39.15 62.6894 30.3727 60.4064 27.0752 58.9307L26.2582 60.7562ZM46.9241 61.3187L49.5034 66.4492L51.2903 65.5508L48.7109 60.4204L46.9241 61.3187ZM50.3969 67H55.5556V65H50.3969V67ZM56.5556 66V57.7913H54.5556V66H56.5556ZM56.0942 58.6338L70.5387 49.399L69.4613 47.714L55.0169 56.9488L56.0942 58.6338ZM70.9974 48.4849L70.4816 41.3023L68.4867 41.4455L69.0026 48.6282L70.9974 48.4849ZM69.594 40.38L64.9511 39.8669L64.7314 41.8548L69.3743 42.3679L69.594 40.38ZM65.7143 40.3732L60.5556 31.1384L58.8095 32.1138L63.9683 41.3486L65.7143 40.3732ZM60.5955 32.0341L62.659 27.4167L60.8331 26.6007L58.7696 31.2181L60.5955 32.0341ZM61.5048 26.0382L55.3143 27.5774L55.7969 29.5183L61.9873 27.9792L61.5048 26.0382ZM55.9727 27.639L49.2664 24.5607L48.4321 26.3784L55.1384 29.4567L55.9727 27.639ZM39.0477 6C32.2326 6 26.6985 11.4959 26.6985 18.287H28.6985C28.6985 12.6108 33.3268 8 39.0477 8V6ZM51.3969 18.287C51.3969 11.4959 45.8627 6 39.0477 6V8C44.7686 8 49.3969 12.6108 49.3969 18.287H51.3969ZM39.0477 30.5739C43.0268 30.5739 46.5681 28.7001 48.8256 25.7927L47.2459 24.5661C45.3525 27.0046 42.3854 28.5739 39.0477 28.5739V30.5739ZM48.8256 25.7927C50.4371 23.7173 51.3969 21.1125 51.3969 18.287H49.3969C49.3969 20.6519 48.5952 22.8284 47.2459 24.5661L48.8256 25.7927ZM49.1852 24.5277L48.3717 24.2375L47.6998 26.1213L48.5133 26.4114L49.1852 24.5277ZM26.6985 18.287C26.6985 21.1125 27.6582 23.7173 29.2697 25.7927L30.8494 24.5661C29.5001 22.8284 28.6985 20.6519 28.6985 18.287H26.6985ZM29.2697 25.7927C31.5273 28.7001 35.0685 30.5739 39.0477 30.5739V28.5739C35.7099 28.5739 32.7429 27.0046 30.8494 24.5661L29.2697 25.7927ZM4.23351 30.2162C4.73478 30.8144 5.64626 31.6578 6.82341 32.3575C8.00221 33.0581 9.51165 33.6522 11.1905 33.6522V31.6522C9.98041 31.6522 8.8245 31.2202 7.84523 30.6382C6.86431 30.0552 6.12501 29.3595 5.76649 28.9317L4.23351 30.2162ZM11.1905 33.6522C14.4826 33.6522 17.8727 31.1965 17.8651 27.5197L15.8651 27.5238C15.8698 29.8169 13.6761 31.6522 11.1905 31.6522V33.6522ZM17.8651 27.5197C17.8625 26.3072 17.8792 24.7676 16.4472 23.6541L15.2195 25.2329C15.7908 25.6771 15.8623 26.201 15.8651 27.5238L17.8651 27.5197ZM16.4472 23.6541C15.9661 23.28 15.395 23.1349 14.9029 23.0838C14.4029 23.0319 13.8987 23.0683 13.4703 23.1289C13.0371 23.1903 12.6488 23.2813 12.3706 23.3561C12.2304 23.3937 12.1157 23.4279 12.0342 23.4533C11.9934 23.466 11.9608 23.4766 11.9373 23.4843C11.9256 23.4882 11.9161 23.4914 11.909 23.4937C11.9054 23.4949 11.9025 23.496 11.9002 23.4968C11.899 23.4972 11.898 23.4975 11.8971 23.4978C11.8967 23.4979 11.8963 23.4981 11.8959 23.4982C11.8958 23.4983 11.8955 23.4983 11.8954 23.4984C11.8952 23.4985 11.895 23.4985 12.2222 24.4435C12.5494 25.3884 12.5492 25.3885 12.549 25.3886C12.549 25.3886 12.5488 25.3886 12.5487 25.3887C12.5485 25.3887 12.5483 25.3888 12.5482 25.3888C12.548 25.3889 12.5479 25.389 12.5479 25.389C12.548 25.3889 12.5486 25.3887 12.5498 25.3883C12.5523 25.3875 12.557 25.3859 12.5638 25.3836C12.5774 25.3791 12.5996 25.372 12.6293 25.3627C12.6888 25.3442 12.7779 25.3175 12.8894 25.2876C13.1144 25.2271 13.4202 25.156 13.7507 25.1092C14.0861 25.0617 14.4151 25.0439 14.6965 25.0731C14.9857 25.1032 15.1442 25.1744 15.2195 25.2329L16.4472 23.6541ZM12.2222 24.4435C11.7098 23.5847 11.7089 23.5853 11.7079 23.5858C11.7076 23.586 11.7067 23.5866 11.706 23.587C11.7047 23.5878 11.7034 23.5886 11.702 23.5894C11.6993 23.5911 11.6964 23.5929 11.6933 23.5948C11.6872 23.5986 11.6804 23.6029 11.673 23.6076C11.6583 23.6171 11.6412 23.6285 11.6219 23.6419C11.5833 23.6688 11.5361 23.7039 11.482 23.748C11.3737 23.8364 11.2385 23.961 11.0911 24.1293C10.7946 24.4679 10.457 24.9739 10.1883 25.6994C9.65042 27.1512 9.41211 29.4123 10.2163 32.8782L12.1646 32.4261C11.4212 29.2225 11.6988 27.3792 12.0637 26.3941C12.2464 25.9011 12.4569 25.6054 12.5957 25.447C12.6659 25.3669 12.7201 25.3191 12.7468 25.2973C12.7602 25.2863 12.7669 25.2818 12.7653 25.2828C12.7646 25.2834 12.7617 25.2853 12.7567 25.2886C12.7542 25.2902 12.7511 25.2922 12.7474 25.2945C12.7456 25.2956 12.7436 25.2968 12.7415 25.2981C12.7404 25.2987 12.7393 25.2994 12.7382 25.3001C12.7376 25.3004 12.7367 25.301 12.7364 25.3011C12.7355 25.3017 12.7346 25.3022 12.2222 24.4435ZM19.6928 55.0941C16.2146 50.9731 12.918 43.6418 16.2153 36.9182L14.4196 36.0376C10.6005 43.8252 14.4866 52.0266 18.1645 56.3841L19.6928 55.0941ZM16.2153 36.9182C18.1251 33.0238 22.3266 29.1344 30.4094 26.1162L29.7098 24.2426C21.3288 27.3722 16.627 31.5364 14.4196 36.0376L16.2153 36.9182ZM10.299 33.1053C10.6717 33.8385 11.3385 34.9226 12.154 35.8167C12.562 36.264 13.037 36.697 13.5618 37.009C14.0848 37.32 14.7272 37.5513 15.4303 37.4715L15.2046 35.4843C15.0823 35.4981 14.8821 35.4673 14.584 35.29C14.2877 35.1138 13.9631 34.8324 13.6317 34.469C12.9684 33.7417 12.3971 32.8192 12.0819 32.1991L10.299 33.1053ZM28.1437 33.0345C29.1187 32.5497 30.8636 31.8292 32.8631 31.2824C34.8731 30.7327 37.0594 30.3811 38.9487 30.569L39.1466 28.5788C36.909 28.3563 34.4525 28.7743 32.3355 29.3533C30.208 29.9351 28.3417 30.7025 27.2532 31.2437L28.1437 33.0345ZM38.9243 30.5663C40.2779 30.7346 42.442 31.0638 44.5157 31.5015C45.5526 31.7204 46.5544 31.9638 47.415 32.2241C48.2917 32.4893 48.9601 32.7542 49.3685 32.9979L50.3933 31.2804C49.77 30.9085 48.9122 30.5876 47.9941 30.3098C47.0599 30.0272 45.9983 29.7704 44.9287 29.5446C42.7895 29.093 40.5687 28.7553 39.171 28.5816L38.9243 30.5663ZM57.1031 36.2696C55.4164 36.2696 54.0396 37.6309 54.0396 39.3217H56.0396C56.0396 38.7458 56.5106 38.2696 57.1031 38.2696V36.2696ZM54.0396 39.3217C54.0396 41.0126 55.4164 42.3739 57.1031 42.3739V40.3739C56.5106 40.3739 56.0396 39.8977 56.0396 39.3217H54.0396ZM57.1031 42.3739C58.7898 42.3739 60.1666 41.0126 60.1666 39.3217H58.1666C58.1666 39.8977 57.6956 40.3739 57.1031 40.3739V42.3739ZM60.1666 39.3217C60.1666 37.6309 58.7898 36.2696 57.1031 36.2696V38.2696C57.6956 38.2696 58.1666 38.7458 58.1666 39.3217H60.1666ZM35.4682 12.1304V19.313H37.4682V12.1304H35.4682ZM35.4682 19.313V25.1794H37.4682V19.313H35.4682ZM33.8888 22.3652H39.0477V20.3652H33.8888V22.3652ZM36.4682 12.1304C36.6011 13.1216 36.6009 13.1216 36.6007 13.1216C36.6007 13.1216 36.6005 13.1216 36.6004 13.1217C36.6002 13.1217 36.6001 13.1217 36.6 13.1217C36.5998 13.1217 36.5999 13.1217 36.6001 13.1217C36.6007 13.1216 36.602 13.1215 36.6041 13.1212C36.6084 13.1206 36.616 13.1197 36.6265 13.1184C36.6476 13.1159 36.6809 13.1122 36.7247 13.1077C36.8126 13.0988 36.9424 13.0871 37.1026 13.0774C37.4255 13.0578 37.8603 13.0466 38.3187 13.0772C38.783 13.1082 39.2342 13.1798 39.6062 13.3075C39.9851 13.4375 40.1953 13.5954 40.2983 13.7391L41.9238 12.5739C41.4878 11.9656 40.848 11.6192 40.2553 11.4158C39.6558 11.21 39.0135 11.1192 38.452 11.0817C37.8844 11.0438 37.3606 11.0581 36.9814 11.0811C36.7906 11.0927 36.6335 11.1066 36.5222 11.118C36.4665 11.1236 36.4221 11.1287 36.3905 11.1324C36.3747 11.1343 36.3621 11.1359 36.3528 11.137C36.3482 11.1376 36.3444 11.1381 36.3415 11.1385C36.34 11.1387 36.3387 11.1388 36.3377 11.139C36.3372 11.1391 36.3367 11.1391 36.3363 11.1392C36.3361 11.1392 36.3359 11.1392 36.3358 11.1392C36.3355 11.1393 36.3353 11.1393 36.4682 12.1304ZM40.2983 13.7391C40.6435 14.2207 40.7694 14.6841 40.7568 15.146C40.7437 15.6258 40.5785 16.1665 40.239 16.7715L41.9831 17.7503C42.4291 16.9556 42.7316 16.0967 42.7561 15.2005C42.781 14.2865 42.5141 13.3975 41.9238 12.5739L40.2983 13.7391ZM40.239 16.7715C40.1198 16.9839 39.8784 17.2146 39.4835 17.4391C39.0959 17.6594 38.6274 17.8356 38.1518 17.9717C37.6807 18.1066 37.232 18.1939 36.8991 18.2474C36.7336 18.2739 36.5993 18.2917 36.5082 18.3027C36.4627 18.3082 36.4281 18.312 36.406 18.3143C36.395 18.3155 36.3871 18.3162 36.3825 18.3167C36.3803 18.3169 36.3788 18.317 36.3782 18.3171C36.3779 18.3171 36.3778 18.3171 36.378 18.3171C36.378 18.3171 36.3782 18.3171 36.3783 18.3171C36.3784 18.3171 36.3786 18.3171 36.3786 18.3171C36.3788 18.317 36.379 18.317 36.4682 19.313C36.5574 20.3091 36.5576 20.309 36.5579 20.309C36.558 20.309 36.5582 20.309 36.5584 20.309C36.5588 20.3089 36.5593 20.3089 36.5598 20.3088C36.5608 20.3087 36.5621 20.3086 36.5635 20.3085C36.5665 20.3082 36.5703 20.3079 36.575 20.3074C36.5844 20.3065 36.5973 20.3052 36.6134 20.3035C36.6457 20.3002 36.691 20.2952 36.7479 20.2883C36.8616 20.2746 37.022 20.2532 37.2163 20.222C37.6028 20.16 38.1334 20.0573 38.7022 19.8945C39.2665 19.733 39.8982 19.5038 40.4718 19.1778C41.0381 18.8559 41.6188 18.3994 41.9831 17.7503L40.239 16.7715Z" fill="#44240C"/>
</svg>
