<svg width="75" height="72" viewBox="0 0 75 72" fill="none" xmlns="http://www.w3.org/2000/svg">
<path opacity="0.5" d="M42.552 25.057L42.552 26.057L42.552 25.057ZM42.552 33.0208L42.552 34.0208L42.552 33.0208ZM20.0181 44.4686L20.0181 45.4686L20.0181 44.4686ZM20.0181 53.4278L20.0181 52.4278L20.0181 53.4278ZM13.5083 31.5276L14.0872 30.7122C14.0613 30.6938 14.0346 30.6767 14.0071 30.6608L13.5083 31.5276ZM16.5128 36.0071L17.5125 35.9816L16.5128 36.0071ZM14.009 40.4867L14.7587 41.1486L14.7587 41.1486L14.009 40.4867ZM10.003 43.4731L9.21569 42.8566L9.21569 42.8566L10.003 43.4731ZM26.0271 61.8892L26.1207 60.8936L26.0271 61.8892ZM38.0452 59.8983L38.4903 60.7938L38.0452 59.8983ZM45.5565 54.4232L46.2703 55.1236L46.2703 55.1236L45.5565 54.4232ZM50.564 47.455L51.4574 47.9044L50.564 47.455ZM50.6313 27.4045C50.8282 27.9205 51.4061 28.1792 51.9221 27.9822C52.4381 27.7853 52.6967 27.2074 52.4998 26.6914L50.6313 27.4045ZM33.0377 11.1205L33.251 10.1435L33.0377 11.1205ZM11.5053 16.0979L10.6747 15.541L11.5053 16.0979ZM50.564 29.5364L49.9524 28.7452C49.925 28.7664 49.8988 28.789 49.8737 28.8129L50.564 29.5364ZM64.0844 19.084L63.77 18.1347C63.6627 18.1703 63.5622 18.2237 63.4728 18.2929L64.0844 19.084ZM29.0316 52.9298L29.8299 53.5321L29.8299 53.5321L29.0316 52.9298ZM26.0271 54.4232L26.3416 53.474C25.8434 53.3089 25.3022 53.5572 25.1024 54.0426C24.9026 54.528 25.1121 55.0852 25.5822 55.3188L26.0271 54.4232ZM32.5369 55.4185L32.6774 56.4085L32.5369 55.4185ZM18.5158 19.5774C15.7568 19.5774 13.5098 21.8022 13.5098 24.5593H15.5098C15.5098 22.9182 16.8499 21.5774 18.5158 21.5774V19.5774ZM13.5098 24.5593C13.5098 27.3164 15.7568 29.5412 18.5158 29.5412V27.5412C16.8499 27.5412 15.5098 26.2004 15.5098 24.5593H13.5098ZM18.5158 29.5412C21.2749 29.5412 23.5219 27.3164 23.5219 24.5593H21.5219C21.5219 26.2004 20.1817 27.5412 18.5158 27.5412V29.5412ZM23.5219 24.5593C23.5219 21.8022 21.2749 19.5774 18.5158 19.5774V21.5774C20.1817 21.5774 21.5219 22.9182 21.5219 24.5593H23.5219ZM31.5354 16.0933C28.7764 16.0933 26.5294 18.3181 26.5294 21.0752H28.5294C28.5294 19.434 29.8695 18.0933 31.5354 18.0933V16.0933ZM26.5294 21.0752C26.5294 23.8323 28.7764 26.057 31.5354 26.057V24.057C29.8695 24.057 28.5294 22.7163 28.5294 21.0752H26.5294ZM31.5354 26.057C34.2945 26.057 36.5414 23.8323 36.5414 21.0752H34.5414C34.5414 22.7163 33.2013 24.057 31.5354 24.057V26.057ZM36.5414 21.0752C36.5414 18.3181 34.2945 16.0933 31.5354 16.0933V18.0933C33.2013 18.0933 34.5414 19.434 34.5414 21.0752H36.5414ZM42.552 24.057C39.793 24.057 37.546 26.2818 37.546 29.0389H39.546C39.546 27.3978 40.8861 26.057 42.552 26.057L42.552 24.057ZM37.546 29.0389C37.546 31.796 39.793 34.0208 42.552 34.0208L42.552 32.0208C40.8861 32.0208 39.546 30.68 39.546 29.0389H37.546ZM42.552 34.0208C45.311 34.0207 47.558 31.796 47.558 29.0389H45.558C45.558 30.68 44.2179 32.0208 42.552 32.0208L42.552 34.0208ZM47.558 29.0389C47.558 26.2818 45.311 24.057 42.552 24.057L42.552 26.057C44.2179 26.057 45.558 27.3978 45.558 29.0389H47.558ZM20.0181 43.4686C16.9825 43.4686 14.5113 45.9162 14.5113 48.9482H16.5113C16.5113 47.0322 18.0756 45.4686 20.0181 45.4686L20.0181 43.4686ZM14.5113 48.9482C14.5113 51.9802 16.9825 54.4278 20.0181 54.4278L20.0181 52.4278C18.0756 52.4278 16.5113 50.8642 16.5113 48.9482H14.5113ZM20.0181 54.4278C23.0537 54.4278 25.5249 51.9802 25.5249 48.9482H23.5249C23.5249 50.8642 21.9605 52.4278 20.0181 52.4278L20.0181 54.4278ZM25.5249 48.9482C25.5249 45.9162 23.0537 43.4686 20.0181 43.4686L20.0181 45.4686C21.9605 45.4686 23.5249 47.0322 23.5249 48.9482H25.5249ZM8.15127 28.0721C8.91868 29.3116 10.1664 30.3973 11.1525 31.143C11.6568 31.5244 12.1164 31.8344 12.4507 32.0496C12.6181 32.1574 12.755 32.2419 12.8513 32.3002C12.8994 32.3294 12.9375 32.3521 12.9643 32.3679C12.9777 32.3758 12.9883 32.3819 12.9958 32.3864C12.9996 32.3886 13.0027 32.3903 13.005 32.3917C13.0061 32.3923 13.0071 32.3929 13.0078 32.3933C13.0082 32.3935 13.0085 32.3937 13.0088 32.3939C13.009 32.394 13.0091 32.3941 13.0092 32.3941C13.0094 32.3942 13.0095 32.3943 13.5083 31.5276C14.0071 30.6608 14.0072 30.6609 14.0073 30.661C14.0073 30.661 14.0074 30.661 14.0075 30.6611C14.0076 30.6611 14.0076 30.6611 14.0076 30.6611C14.0076 30.6611 14.0074 30.661 14.007 30.6608C14.0062 30.6603 14.0047 30.6595 14.0025 30.6581C13.998 30.6555 13.9906 30.6512 13.9804 30.6452C13.9601 30.6332 13.9287 30.6146 13.8876 30.5896C13.8052 30.5397 13.6838 30.4648 13.5331 30.3678C13.231 30.1734 12.8143 29.8923 12.3589 29.5479C11.4254 28.8419 10.4197 27.9366 9.85174 27.0193L8.15127 28.0721ZM12.9294 32.3429C13.4772 32.7319 14.1301 33.2632 14.6455 33.9121C15.1595 34.5594 15.4936 35.2682 15.5131 36.0327L17.5125 35.9816C17.4783 34.6443 16.8943 33.528 16.2117 32.6684C15.5303 31.8103 14.7078 31.1528 14.0872 30.7122L12.9294 32.3429ZM15.5131 36.0327C15.5517 37.5393 14.7314 38.1577 13.2594 39.8249L14.7587 41.1486C15.9428 39.8075 17.5763 38.4762 17.5125 35.9816L15.5131 36.0327ZM13.2594 39.8249C12.7491 40.4029 12.2046 40.6913 11.498 41.0724C10.7972 41.4504 9.95432 41.9134 9.21569 42.8566L10.7903 44.0897C11.2529 43.499 11.768 43.1992 12.4475 42.8327C13.1212 42.4693 13.9791 42.0315 14.7587 41.1486L13.2594 39.8249ZM9.21569 42.8566C7.67111 44.829 7 47.1333 7 48.9482H9C9 47.5775 9.52308 45.708 10.7903 44.0897L9.21569 42.8566ZM7 48.9482C7 50.1499 7.43996 51.5454 7.96342 52.7161C8.48561 53.8839 9.17188 55.0071 9.7988 55.6302L11.2087 54.2117C10.8341 53.8394 10.2685 52.9716 9.78921 51.8997C9.31117 50.8306 9 49.7374 9 48.9482H7ZM9.7988 55.6302C10.8509 56.676 12.4568 58.262 16.1209 59.8228L16.9047 57.9828C13.5583 56.5573 12.1596 55.1569 11.2087 54.2117L9.7988 55.6302ZM16.1209 59.8228C19.5743 61.2939 21.865 62.5025 25.9336 62.8848L26.1207 60.8936C22.431 60.5469 20.4618 59.4981 16.9047 57.9828L16.1209 59.8228ZM25.9336 62.8848C30.848 63.3466 35.3121 62.3733 38.4903 60.7938L37.6002 59.0028C34.7693 60.4097 30.6802 61.322 26.1207 60.8936L25.9336 62.8848ZM38.4903 60.7938C40.9813 59.5558 43.6433 57.8009 46.2703 55.1236L44.8427 53.7229C42.3901 56.2224 39.9163 57.8517 37.6002 59.0028L38.4903 60.7938ZM46.2703 55.1236C48.6976 52.6499 50.2129 50.3784 51.4574 47.9044L49.6707 47.0056C48.5116 49.3098 47.1137 51.4084 44.8427 53.7229L46.2703 55.1236ZM51.4574 47.9044C52.2592 46.3105 53.0314 43.86 53.5995 41.6017C54.1627 39.3624 54.5686 37.1393 54.5686 36.0071H52.5686C52.5686 36.8659 52.2233 38.8736 51.6599 41.1138C51.1012 43.3351 50.3712 45.6131 49.6707 47.0056L51.4574 47.9044ZM52.4998 26.6914C51.5168 24.1155 49.1227 20.525 45.8118 17.3258C42.4941 14.1199 38.1621 11.2157 33.251 10.1435L32.8244 12.0975C37.2569 13.0652 41.2707 15.7189 44.422 18.764C47.5802 21.8157 49.7782 25.169 50.6313 27.4045L52.4998 26.6914ZM33.251 10.1435C29.0006 9.21566 24.6678 8.64212 20.7507 9.25305C16.7882 9.87106 13.2472 11.7043 10.6747 15.541L12.3359 16.6548C14.5512 13.3507 17.5602 11.7748 21.0589 11.2292C24.6029 10.6764 28.6424 11.1846 32.8244 12.0975L33.251 10.1435ZM10.6747 15.541C9.3258 17.5527 8.31893 19.9914 7.81955 22.2222C7.5695 23.3392 7.44035 24.432 7.47089 25.4135C7.50097 26.3799 7.68848 27.3246 8.15127 28.0721L9.85174 27.0193C9.64687 26.6884 9.49443 26.1388 9.46993 25.3513C9.44589 24.579 9.54752 23.6585 9.77125 22.6591C10.2194 20.6569 11.1321 18.45 12.3359 16.6548L10.6747 15.541ZM38.7356 42.2054L51.2544 30.2599L49.8737 28.8129L37.3549 40.7585L38.7356 42.2054ZM51.1757 30.3275L64.696 19.8752L63.4728 18.2929L49.9524 28.7452L51.1757 30.3275ZM64.3988 20.0333C64.5993 19.9669 64.8238 19.9131 65.0202 19.8915C65.1173 19.8808 65.1926 19.8796 65.2456 19.8834C65.3016 19.8874 65.3065 19.8951 65.279 19.8837C65.2461 19.87 65.1636 19.8266 65.0914 19.7261C65.0161 19.6214 65.001 19.5228 65.0001 19.4817C64.9993 19.4522 65.006 19.4815 64.967 19.5904C64.9289 19.6965 64.8572 19.8508 64.7305 20.0606L66.4427 21.0943C66.7717 20.5493 67.0128 19.9837 66.9995 19.4335C66.9922 19.1332 66.9083 18.8272 66.7156 18.5591C66.5261 18.2953 66.2778 18.1326 66.0445 18.036C65.6115 17.8566 65.1408 17.866 64.801 17.9035C64.4341 17.944 64.0702 18.0353 63.77 18.1347L64.3988 20.0333ZM64.7305 20.0606C64.1702 20.9888 62.093 23.7063 59.6556 26.8026C57.2436 29.8668 54.5429 33.2224 52.7925 35.3765L54.3447 36.6378C56.0995 34.4782 58.807 31.1142 61.2272 28.0397C63.622 24.9973 65.8013 22.1568 66.4427 21.0943L64.7305 20.0606ZM52.8473 35.3145L42.3315 46.2644L43.774 47.6497L54.2898 36.6998L52.8473 35.3145ZM43.7906 46.2821L38.7831 40.8071L37.3073 42.1569L42.3148 47.6319L43.7906 46.2821ZM37.969 40.4849C36.7934 40.5748 35.0101 40.9208 33.4366 41.6913C31.8809 42.4532 30.3047 43.7517 30.0425 45.8368L32.0268 46.0863C32.1652 44.986 33.0094 44.1275 34.3163 43.4875C35.6055 42.8561 37.1271 42.5551 38.1214 42.4791L37.969 40.4849ZM30.0425 45.8368C29.7856 47.8797 29.6699 49.03 29.4389 49.9483C29.2274 50.7893 28.9208 51.4163 28.2333 52.3275L29.8299 53.5321C30.6447 52.4521 31.0893 51.586 31.3785 50.4361C31.6483 49.3635 31.783 48.0253 32.0268 46.0863L30.0425 45.8368ZM28.2333 52.3275C27.7363 52.9864 27.2631 53.2737 26.9259 53.3959C26.7535 53.4583 26.6087 53.4806 26.502 53.4846C26.3892 53.4887 26.3355 53.4719 26.3416 53.474L25.7126 55.3725C26.6886 55.6958 28.416 55.4061 29.8299 53.5321L28.2333 52.3275ZM25.5822 55.3188C26.7082 55.8783 29.6185 56.8427 32.6774 56.4085L32.3964 54.4284C29.8469 54.7902 27.349 53.9634 26.4721 53.5277L25.5822 55.3188ZM32.6774 56.4085C34.2667 56.183 36.3196 56.1622 38.2887 55.0437C40.3145 53.8931 42.1822 51.6713 43.9766 47.3397L42.1289 46.5743C40.418 50.7042 38.7804 52.4644 37.3009 53.3047C35.7648 54.1772 34.3124 54.1565 32.3964 54.4284L32.6774 56.4085Z" fill="#44240C"/>
</svg>
