<svg width="77" height="72" viewBox="0 0 77 72" fill="none" xmlns="http://www.w3.org/2000/svg">
<g opacity="0.5">
<path d="M1 32V31C0.447715 31 0 31.4477 0 32H1ZM1 59H0C0 59.5523 0.447715 60 1 60L1 59ZM51 59V60C51.5523 60 52 59.5523 52 59H51ZM51 32H52C52 31.4477 51.5523 31 51 31V32ZM0 32V59H2V32H0ZM1 60H51V58H1V60ZM52 59V32H50V59H52ZM51 31H1V33H51V31ZM9.66667 33.6341C6.54866 33.6341 4 36.1342 4 39.2439H6C6 37.2618 7.63002 35.6341 9.66667 35.6341V33.6341ZM4 39.2439C4 42.3536 6.54866 44.8537 9.66667 44.8537V42.8537C7.63002 42.8537 6 41.226 6 39.2439H4ZM9.66667 44.8537C12.7847 44.8537 15.3333 42.3536 15.3333 39.2439H13.3333C13.3333 41.226 11.7033 42.8537 9.66667 42.8537V44.8537ZM15.3333 39.2439C15.3333 36.1342 12.7847 33.6341 9.66667 33.6341V35.6341C11.7033 35.6341 13.3333 37.2618 13.3333 39.2439H15.3333ZM9.66667 45.4878C6.54866 45.4878 4 47.9878 4 51.0976H6C6 49.1155 7.63002 47.4878 9.66667 47.4878V45.4878ZM4 51.0976C4 54.2073 6.54866 56.7073 9.66667 56.7073V54.7073C7.63002 54.7073 6 53.0796 6 51.0976H4ZM9.66667 56.7073C12.7847 56.7073 15.3333 54.2073 15.3333 51.0976H13.3333C13.3333 53.0796 11.7033 54.7073 9.66667 54.7073V56.7073ZM15.3333 51.0976C15.3333 47.9878 12.7847 45.4878 9.66667 45.4878V47.4878C11.7033 47.4878 13.3333 49.1155 13.3333 51.0976H15.3333ZM25.6667 45.4878C22.5487 45.4878 20 47.9878 20 51.0976H22C22 49.1155 23.63 47.4878 25.6667 47.4878V45.4878ZM20 51.0976C20 54.2073 22.5487 56.7073 25.6667 56.7073V54.7073C23.63 54.7073 22 53.0796 22 51.0976H20ZM25.6667 56.7073C28.7847 56.7073 31.3333 54.2073 31.3333 51.0976H29.3333C29.3333 53.0796 27.7033 54.7073 25.6667 54.7073V56.7073ZM31.3333 51.0976C31.3333 47.9878 28.7847 45.4878 25.6667 45.4878V47.4878C27.7033 47.4878 29.3333 49.1155 29.3333 51.0976H31.3333ZM25.6667 33.6341C22.5487 33.6341 20 36.1342 20 39.2439H22C22 37.2618 23.63 35.6341 25.6667 35.6341V33.6341ZM20 39.2439C20 42.3536 22.5487 44.8537 25.6667 44.8537V42.8537C23.63 42.8537 22 41.226 22 39.2439H20ZM25.6667 44.8537C28.7847 44.8537 31.3333 42.3536 31.3333 39.2439H29.3333C29.3333 41.226 27.7033 42.8537 25.6667 42.8537V44.8537ZM31.3333 39.2439C31.3333 36.1342 28.7847 33.6341 25.6667 33.6341V35.6341C27.7033 35.6341 29.3333 37.2618 29.3333 39.2439H31.3333ZM41.6667 33.6341C38.5487 33.6341 36 36.1342 36 39.2439H38C38 37.2618 39.63 35.6341 41.6667 35.6341V33.6341ZM36 39.2439C36 42.3536 38.5487 44.8537 41.6667 44.8537V42.8537C39.63 42.8537 38 41.226 38 39.2439H36ZM41.6667 44.8537C44.7847 44.8537 47.3333 42.3536 47.3333 39.2439H45.3333C45.3333 41.226 43.7033 42.8537 41.6667 42.8537V44.8537ZM47.3333 39.2439C47.3333 36.1342 44.7847 33.6341 41.6667 33.6341V35.6341C43.7033 35.6341 45.3333 37.2618 45.3333 39.2439H47.3333ZM41.6667 45.4878C38.5487 45.4878 36 47.9878 36 51.0976H38C38 49.1155 39.63 47.4878 41.6667 47.4878V45.4878ZM36 51.0976C36 54.2073 38.5487 56.7073 41.6667 56.7073V54.7073C39.63 54.7073 38 53.0796 38 51.0976H36ZM41.6667 56.7073C44.7847 56.7073 47.3333 54.2073 47.3333 51.0976H45.3333C45.3333 53.0796 43.7033 54.7073 41.6667 54.7073V56.7073ZM47.3333 51.0976C47.3333 47.9878 44.7847 45.4878 41.6667 45.4878V47.4878C43.7033 47.4878 45.3333 49.1155 45.3333 51.0976H47.3333Z" fill="#44240C"/>
<path d="M54.9934 13.9695L52.4286 9L43 13.6351L65.898 58L75.3265 53.3649L72.6327 48.1455M54.9934 13.9695L58.4898 12.3108L61.8571 18.2703L58.34 20.4534M54.9934 13.9695L58.34 20.4534M58.34 20.4534L62.2405 28.0106M62.2405 28.0106L65.898 26.2162L69.2653 32.8378L65.8265 34.9586M62.2405 28.0106L65.8265 34.9586M65.8265 34.9586L69.3456 41.7769M69.3456 41.7769L72.6327 40.1216L76 46.0811L72.6327 48.1455M69.3456 41.7769L72.6327 48.1455" stroke="#44240C" stroke-width="2" stroke-linejoin="round"/>
</g>
</svg>
