<svg width="72" height="52" viewBox="0 0 72 52" fill="none" xmlns="http://www.w3.org/2000/svg">
<path opacity="0.5" d="M9.78993 24.6297L10.7231 24.9892C10.9088 24.5072 10.6968 23.9631 10.2339 23.7337C9.77105 23.5044 9.20969 23.6653 8.93864 24.105L9.78993 24.6297ZM4.63289 38.0167L3.69973 37.6572C3.60592 37.9008 3.61102 38.1713 3.71397 38.4112L4.63289 38.0167ZM8.75852 40.5911H9.75852C9.75852 40.2594 9.59402 39.9493 9.31938 39.7632C9.04474 39.5772 8.69571 39.5394 8.38764 39.6625L8.75852 40.5911ZM8.75852 48.3144H7.75852C7.75852 48.5121 7.81711 48.7053 7.92688 48.8697L8.75852 48.3144ZM21.6511 48.3144L22.4699 48.8885C22.5879 48.7203 22.6511 48.5198 22.6511 48.3144H21.6511ZM21.6511 40.5911L21.7923 39.6012C21.5054 39.5602 21.2148 39.6458 20.9958 39.8358C20.7769 40.0257 20.6511 40.3013 20.6511 40.5911H21.6511ZM25.7768 38.0167L26.7631 38.1814C26.7925 38.005 26.7742 37.8241 26.7099 37.6572L25.7768 38.0167ZM21.5529 24.2703C21.3543 23.7549 20.7756 23.4981 20.2602 23.6966C19.7449 23.8951 19.488 24.4739 19.6866 24.9892L21.5529 24.2703ZM15.947 39.5614C15.947 39.0091 15.4993 38.5614 14.947 38.5614C14.3947 38.5614 13.947 39.0091 13.947 39.5614H15.947ZM5.6643 31.3232L5.77455 32.3171C6.08063 32.2832 6.354 32.1101 6.51558 31.8479L5.6643 31.3232ZM7.72723 9.18324L8.17387 8.28853C7.86623 8.13496 7.50127 8.1502 7.20751 8.3289C6.91376 8.5076 6.73241 8.82469 6.72734 9.1685L7.72723 9.18324ZM9.27434 9.18324L9.98089 9.89091C10.2097 9.66247 10.3139 9.3375 10.2607 9.01859L9.27434 9.18324ZM10.8215 1.97488L10.4506 1.0462L10.8215 1.97488ZM20.6197 9.18324L19.6551 8.91972C19.5293 9.37997 19.7463 9.86495 20.1732 10.078L20.6197 9.18324ZM22.167 9.18324L22.8734 9.89097L22.167 9.18324ZM28.8711 27.2042L28.005 27.7042C28.1253 27.9125 28.3166 28.0705 28.5439 28.1492L28.8711 27.2042ZM50.5307 24.6297L51.5304 24.6515C51.5415 24.1425 51.1684 23.7064 50.6638 23.6387C50.1593 23.5709 49.6843 23.893 49.5606 24.3868L50.5307 24.6297ZM50.015 48.3144L49.0152 48.2926C49.0102 48.5227 49.0847 48.7474 49.2261 48.9289L50.015 48.3144ZM62.3919 48.3144L63.1439 48.9735C63.3087 48.7855 63.3971 48.5426 63.3916 48.2926L62.3919 48.3144ZM61.8762 24.6297L62.7839 24.2101C62.5852 23.7803 62.1121 23.5487 61.6507 23.6555C61.1893 23.7623 60.8661 24.178 60.8764 24.6515L61.8762 24.6297ZM64.9704 31.3232L64.0627 31.7428C64.1829 32.0029 64.409 32.199 64.6835 32.2812L64.9704 31.3232ZM70.1274 27.2042H71.1274C71.1274 27.0438 71.0888 26.8857 71.0149 26.7434L70.1274 27.2042ZM62.9076 13.3024L63.795 12.8415C63.7171 12.6915 63.6025 12.5637 63.4617 12.47L62.9076 13.3024ZM60.3291 12.2726V13.2726C60.4364 13.2726 60.543 13.2554 60.6448 13.2215L60.3291 12.2726ZM42.7951 27.2042L43.0792 28.163C43.3344 28.0874 43.5489 27.9132 43.6753 27.6789L42.7951 27.2042ZM50.015 13.8173L50.8951 14.292C50.9224 14.2414 50.9453 14.1885 50.9635 14.134L50.015 13.8173ZM57.2034 32.3531C57.2034 31.8008 56.7557 31.3531 56.2034 31.3531C55.6511 31.3531 55.2034 31.8008 55.2034 32.3531H57.2034ZM26.8083 31.8382L27.1589 30.9017C26.8937 30.8024 26.5988 30.8202 26.3475 30.9507L26.8083 31.8382ZM30.9339 33.3828H31.9339C31.9339 32.9658 31.6751 32.5926 31.2846 32.4463L30.9339 33.3828ZM31.4496 42.1359H32.4496C32.4496 41.8704 32.3441 41.6158 32.1562 41.4282L31.4496 42.1359ZM31.4496 48.8293H30.4496C30.4496 48.9224 30.4626 49.015 30.4882 49.1045L31.4496 48.8293ZM39.7009 48.8293L40.6623 49.1045C40.6879 49.015 40.7009 48.9224 40.7009 48.8293H39.7009ZM39.7009 42.1359L38.9942 41.4283C38.8064 41.6159 38.7009 41.8704 38.7009 42.1359H39.7009ZM40.2166 33.3828L39.9008 32.434C39.4923 32.57 39.2166 32.9522 39.2166 33.3828H40.2166ZM44.8579 31.8382L45.3046 30.9435C45.0676 30.8252 44.7934 30.8057 44.5422 30.8894L44.8579 31.8382ZM48.9836 30.8084L49.6901 31.5161C49.8185 31.3879 49.9096 31.2273 49.9536 31.0513L48.9836 30.8084ZM35.5753 29.2636L35.5753 28.2636L35.5753 29.2636ZM40.2166 24.6297L39.2166 24.6297L40.2166 24.6297ZM36.5753 42.1359C36.5753 41.5836 36.1275 41.1359 35.5753 41.1359C35.023 41.1359 34.5753 41.5836 34.5753 42.1359H36.5753ZM8.85678 24.2703L3.69973 37.6572L5.56604 38.3762L10.7231 24.9892L8.85678 24.2703ZM3.71397 38.4112C4.01337 39.1087 4.60979 40.1036 5.47186 40.8287C6.36009 41.5758 7.64638 42.1121 9.1294 41.5198L8.38764 39.6625C7.80784 39.894 7.28917 39.7438 6.75921 39.2981C6.2031 38.8303 5.76811 38.1262 5.5518 37.6223L3.71397 38.4112ZM7.75852 40.5911V48.3144H9.75852V40.5911H7.75852ZM7.92688 48.8697C8.50846 49.7407 9.61887 50.9005 11.0744 51.2554C11.836 51.441 12.6734 51.3989 13.5122 50.9977C14.3351 50.6041 15.0919 49.8981 15.7786 48.8697L14.1153 47.7591C13.5643 48.5843 13.0577 48.9981 12.6493 49.1934C12.2569 49.3811 11.8953 49.3969 11.5481 49.3123C10.7861 49.1265 10.04 48.4327 9.59016 47.7591L7.92688 48.8697ZM14.0898 48.8295C14.6681 49.7918 15.8043 51.0788 17.3574 51.472C18.1689 51.6775 19.0604 51.6272 19.9621 51.1954C20.8456 50.7724 21.6827 50.0113 22.4699 48.8885L20.8323 47.7403C20.1756 48.677 19.5816 49.1602 19.0984 49.3915C18.6336 49.6141 18.2229 49.6281 17.8483 49.5332C17.0291 49.3258 16.2572 48.5533 15.8041 47.7993L14.0898 48.8295ZM22.6511 48.3144V40.5911H20.6511V48.3144H22.6511ZM21.5099 41.5811C22.2433 41.6857 23.3659 41.6601 24.405 41.214C25.4974 40.7449 26.4924 39.803 26.7631 38.1814L24.7904 37.8521C24.6486 38.7018 24.1824 39.133 23.6159 39.3762C22.9962 39.6423 22.2623 39.6682 21.7923 39.6012L21.5099 41.5811ZM26.7099 37.6572L21.5529 24.2703L19.6866 24.9892L24.8436 38.3762L26.7099 37.6572ZM13.947 39.5614V48.3144H15.947V39.5614H13.947ZM8.93864 24.105L4.81301 30.7985L6.51558 31.8479L10.6412 25.1544L8.93864 24.105ZM5.55404 30.3293C4.90178 30.4017 4.00459 30.3214 3.3644 29.9539C3.0636 29.7813 2.83553 29.5557 2.69055 29.2583C2.54489 28.9595 2.44695 28.5139 2.53092 27.8433L0.546408 27.5948C0.424088 28.5718 0.545324 29.422 0.89281 30.1347C1.24097 30.8489 1.78001 31.3506 2.3688 31.6885C3.50779 32.3422 4.8797 32.4164 5.77455 32.3171L5.55404 30.3293ZM2.53092 27.8433C2.61458 27.1751 2.95426 26.1722 3.51411 24.9191C4.06354 23.6894 4.78759 22.2993 5.57715 20.8836C7.15653 18.0519 8.963 15.1796 10.0855 13.3693L8.38567 12.3154C7.27341 14.1092 5.43772 17.0277 3.83046 19.9094C3.0267 21.3505 2.27132 22.7979 1.68808 24.1033C1.11526 25.3854 0.669029 26.6154 0.546408 27.5948L2.53092 27.8433ZM9.78965 12.0099C9.33742 11.7088 9.04006 11.1054 8.87499 10.3991C8.7975 10.0675 8.76001 9.75868 8.7423 9.53219C8.73352 9.41994 8.72979 9.33049 8.72823 9.2717C8.72746 9.24238 8.72722 9.22088 8.72716 9.20822C8.72713 9.20189 8.72714 9.19779 8.72715 9.19604C8.72716 9.19517 8.72716 9.19488 8.72716 9.1952C8.72716 9.19536 8.72715 9.19567 8.72715 9.19613C8.72714 9.19637 8.72714 9.19664 8.72714 9.19695C8.72713 9.1971 8.72713 9.19736 8.72713 9.19744C8.72713 9.19771 8.72712 9.19799 7.72723 9.18324C6.72734 9.1685 6.72733 9.1688 6.72733 9.16911C6.72733 9.16922 6.72732 9.16955 6.72732 9.16978C6.72731 9.17025 6.72731 9.17076 6.7273 9.17131C6.72729 9.17241 6.72727 9.17368 6.72726 9.17511C6.72723 9.17796 6.7272 9.18146 6.72718 9.18559C6.72714 9.19385 6.72712 9.20464 6.72718 9.21782C6.72731 9.24418 6.72775 9.28018 6.72894 9.32476C6.7313 9.41379 6.73663 9.5378 6.74839 9.68814C6.77175 9.98682 6.82127 10.3997 6.92747 10.8542C7.12978 11.7199 7.5866 12.946 8.68148 13.6748L9.78965 12.0099ZM7.28059 10.078C7.53512 10.205 7.93549 10.3519 8.37276 10.3968C8.78859 10.4396 9.46245 10.4085 9.98089 9.89091L8.5678 8.47557C8.61853 8.42492 8.66773 8.41014 8.67546 8.4083C8.67648 8.40806 8.64625 8.4144 8.57724 8.40731C8.51083 8.40048 8.43327 8.38374 8.35383 8.35896C8.27436 8.33416 8.21036 8.30675 8.17387 8.28853L7.28059 10.078ZM10.2607 9.01859C10.0991 8.05071 9.98097 6.55424 10.1384 5.23406C10.2172 4.57326 10.3589 4.01175 10.5608 3.59569C10.7602 3.18473 10.9804 2.9882 11.1923 2.90356L10.4506 1.0462C9.63111 1.37346 9.09922 2.02648 8.76146 2.72253C8.42617 3.41346 8.24556 4.2164 8.15245 4.99727C7.96606 6.56043 8.10576 8.25624 8.28799 9.3479L10.2607 9.01859ZM11.1923 2.90356C13.6386 1.9266 15.8917 1.5046 18.6261 2.86959L19.5194 1.08016C16.0653 -0.644145 13.1613 -0.0363811 10.4506 1.0462L11.1923 2.90356ZM18.6261 2.86959C19.4019 3.25688 19.8435 4.14635 19.9729 5.43443C20.0993 6.69272 19.8901 8.05925 19.6551 8.91972L21.5844 9.44677C21.865 8.41933 22.1201 6.79954 21.9629 5.23455C21.8087 3.69936 21.2189 1.92859 19.5194 1.08016L18.6261 2.86959ZM20.1732 10.078C20.4277 10.205 20.8281 10.3519 21.2654 10.3968C21.6811 10.4395 22.355 10.4085 22.8734 9.89097L21.4605 8.47552C21.5112 8.42485 21.5604 8.41009 21.5681 8.40826C21.5691 8.40802 21.5388 8.41436 21.4698 8.40727C21.4033 8.40044 21.3257 8.3837 21.2463 8.35891C21.1668 8.33412 21.1028 8.3067 21.0663 8.28848L20.1732 10.078ZM22.8734 9.89097C22.8321 9.93222 22.6872 10.0664 22.4354 10.1121C22.1294 10.1677 21.8529 10.0604 21.6731 9.90315C21.527 9.7753 21.4717 9.6419 21.4577 9.606C21.439 9.55834 21.4366 9.53317 21.4384 9.54491C21.449 9.61351 21.4515 9.85271 21.3683 10.2013C21.2017 10.8988 20.7981 11.6163 20.1344 11.9476L21.0277 13.737C22.4268 13.0386 23.074 11.6691 23.3136 10.6658C23.4334 10.164 23.478 9.64937 23.4152 9.24105C23.3987 9.13357 23.3707 9.00647 23.3201 8.87703C23.274 8.75934 23.1803 8.56427 22.9898 8.39771C22.7658 8.20174 22.4393 8.07871 22.0782 8.14427C21.7713 8.19997 21.5662 8.36992 21.4605 8.47552L22.8734 9.89097ZM19.715 13.3422L28.005 27.7042L29.7372 26.7043L21.4471 12.3424L19.715 13.3422ZM8.99341 13.8126C11.1484 14.3504 15.6579 15.1018 20.8232 13.8126L20.3389 11.8721C15.6027 13.0542 11.4485 12.3639 9.47772 11.8721L8.99341 13.8126ZM49.5309 24.608L49.0152 48.2926L51.0147 48.3362L51.5304 24.6515L49.5309 24.608ZM49.2261 48.9289C49.8905 49.7817 51.0986 50.9108 52.556 51.2567C53.3193 51.4379 54.1622 51.4044 54.9864 50.9881C55.797 50.5786 56.4953 49.8465 57.0773 48.8006L55.3296 47.8281C54.8802 48.6358 54.4396 49.0236 54.0845 49.203C53.743 49.3755 53.3933 49.3999 53.0178 49.3108C52.1975 49.1161 51.3428 48.3917 50.8039 47.6998L49.2261 48.9289ZM55.3558 48.845C55.8708 49.6676 56.891 50.7228 58.3196 51.041C59.8515 51.3823 61.532 50.8127 63.1439 48.9735L61.6398 47.6553C60.3638 49.1113 59.3798 49.2282 58.7544 49.0889C58.0256 48.9265 57.3956 48.3342 57.051 47.7838L55.3558 48.845ZM63.3916 48.2926L62.8759 24.608L60.8764 24.6515L61.3921 48.3362L63.3916 48.2926ZM60.9685 25.0494L64.0627 31.7428L65.8781 30.9036L62.7839 24.2101L60.9685 25.0494ZM64.6835 32.2812C65.6824 32.5804 67.2534 32.7319 68.6344 32.0535C70.1275 31.3201 71.1274 29.7577 71.1274 27.2042H69.1274C69.1274 29.1817 68.4083 29.9363 67.7527 30.2584C66.9849 30.6355 65.9775 30.581 65.2573 30.3653L64.6835 32.2812ZM71.0149 26.7434L63.795 12.8415L62.0201 13.7633L69.24 27.6651L71.0149 26.7434ZM63.4617 12.47C63.4714 12.4764 63.4574 12.4683 63.4096 12.4218C63.3613 12.3747 63.3104 12.3206 63.2301 12.2359C63.0859 12.084 62.8677 11.8548 62.59 11.6546C62.3013 11.4464 61.9344 11.2578 61.4763 11.1816C61.0181 11.1054 60.5302 11.1518 60.0133 11.3238L60.6448 13.2215C60.9015 13.136 61.0583 13.1395 61.148 13.1545C61.2378 13.1694 61.3222 13.2061 61.4202 13.2768C61.5293 13.3555 61.6334 13.4588 61.7793 13.6126C61.8876 13.7267 62.1074 13.971 62.3534 14.1348L63.4617 12.47ZM43.6753 27.6789L50.8951 14.292L49.1348 13.3426L41.915 26.7296L43.6753 27.6789ZM50.9635 14.134C51.0201 13.9643 51.149 13.692 51.3189 13.4835C51.5021 13.2585 51.5903 13.2726 51.5621 13.2726V11.2726C50.7088 11.2726 50.1093 11.8016 49.7683 12.2203C49.4138 12.6554 49.1817 13.1553 49.0664 13.5006L50.9635 14.134ZM56.2034 0.460077C52.5197 0.460077 49.5307 3.44202 49.5307 7.12379H51.5307C51.5307 4.5496 53.6212 2.46008 56.2034 2.46008V0.460077ZM62.8762 7.12379C62.8762 3.44202 59.8872 0.460077 56.2034 0.460077V2.46008C58.7856 2.46008 60.8762 4.5496 60.8762 7.12379H62.8762ZM51.5621 13.2726H53.6249V11.2726H51.5621V13.2726ZM49.5307 7.12379C49.5307 9.81423 51.1271 12.1293 53.4198 13.1815L54.254 11.3638C52.6441 10.6249 51.5307 9.00264 51.5307 7.12379H49.5307ZM53.4198 13.1815C54.2683 13.5709 55.2119 13.7875 56.2034 13.7875V11.7875C55.5056 11.7875 54.846 11.6355 54.254 11.3638L53.4198 13.1815ZM53.6249 13.2726H53.8369V11.2726H53.6249V13.2726ZM56.2034 13.7875C57.1949 13.7875 58.1385 13.5709 58.9871 13.1815L58.1529 11.3638C57.5608 11.6355 56.9013 11.7875 56.2034 11.7875V13.7875ZM58.9871 13.1815C61.2798 12.1293 62.8762 9.81423 62.8762 7.12379H60.8762C60.8762 9.00264 59.7628 10.6249 58.1529 11.3638L58.9871 13.1815ZM60.3291 11.2726H58.57V13.2726H60.3291V11.2726ZM55.2034 32.3531V48.3144H57.2034V32.3531H55.2034ZM26.4577 32.7747L30.5833 34.3194L31.2846 32.4463L27.1589 30.9017L26.4577 32.7747ZM29.9339 33.3828V40.5911H31.9339V33.3828H29.9339ZM29.9339 40.5911C29.9339 40.8424 29.9692 41.2122 30.0705 41.594C30.1675 41.96 30.3562 42.4572 30.7431 42.8435L32.1562 41.4282C32.1305 41.4026 32.0614 41.2991 32.0037 41.0815C31.9502 40.8798 31.9339 40.6832 31.9339 40.5911H29.9339ZM30.4496 42.1359V48.8293H32.4496V42.1359H30.4496ZM30.4882 49.1045C30.6963 49.8315 31.2107 50.8853 32.1676 51.5082C32.6688 51.8343 33.2829 52.0342 33.9898 51.9952C34.686 51.9567 35.4015 51.6909 36.1293 51.2065L35.0212 49.5415C34.5113 49.8809 34.1352 49.9841 33.8795 49.9982C33.6345 50.0117 33.4365 49.9477 33.2586 49.8319C32.8575 49.5709 32.5468 49.0286 32.411 48.5542L30.4882 49.1045ZM35.0212 51.2065C35.6489 51.6243 36.7215 52.0888 37.8537 51.9308C38.4462 51.8481 39.0395 51.5947 39.5485 51.1024C40.0494 50.6178 40.4207 49.9488 40.6623 49.1045L38.7395 48.5542C38.5685 49.1516 38.3468 49.4823 38.1579 49.6649C37.9771 49.8398 37.784 49.9211 37.5772 49.95C37.1107 50.0151 36.5331 49.8102 36.1293 49.5415L35.0212 51.2065ZM40.7009 48.8293V42.1359H38.7009V48.8293H40.7009ZM40.4076 42.8434C40.7709 42.4806 41.2166 41.6752 41.2166 40.5911H39.2166C39.2166 40.8624 39.1602 41.077 39.0981 41.2283C39.03 41.3943 38.9677 41.4548 38.9942 41.4283L40.4076 42.8434ZM41.2166 40.5911C41.2166 40.5895 41.2166 40.5879 41.2166 40.5863C41.2166 40.5846 41.2166 40.583 41.2166 40.5813C41.2166 40.5797 41.2166 40.578 41.2166 40.5763C41.2166 40.5746 41.2166 40.5729 41.2166 40.5712C41.2166 40.5695 41.2166 40.5677 41.2166 40.566C41.2166 40.5643 41.2166 40.5625 41.2166 40.5607C41.2166 40.559 41.2166 40.5572 41.2166 40.5554C41.2166 40.5536 41.2166 40.5518 41.2166 40.55C41.2166 40.5482 41.2166 40.5463 41.2166 40.5445C41.2166 40.5426 41.2166 40.5408 41.2166 40.5389C41.2166 40.537 41.2166 40.5351 41.2166 40.5332C41.2166 40.5313 41.2166 40.5294 41.2166 40.5275C41.2166 40.5256 41.2166 40.5237 41.2166 40.5217C41.2166 40.5198 41.2166 40.5178 41.2166 40.5158C41.2166 40.5139 41.2166 40.5119 41.2166 40.5099C41.2166 40.5079 41.2166 40.5058 41.2166 40.5038C41.2166 40.5018 41.2166 40.4998 41.2166 40.4977C41.2166 40.4957 41.2166 40.4936 41.2166 40.4915C41.2166 40.4894 41.2166 40.4874 41.2166 40.4853C41.2166 40.4832 41.2166 40.481 41.2166 40.4789C41.2166 40.4768 41.2166 40.4747 41.2166 40.4725C41.2166 40.4703 41.2166 40.4682 41.2166 40.466C41.2166 40.4638 41.2166 40.4616 41.2166 40.4594C41.2166 40.4572 41.2166 40.455 41.2166 40.4528C41.2166 40.4506 41.2166 40.4483 41.2166 40.4461C41.2166 40.4438 41.2166 40.4416 41.2166 40.4393C41.2166 40.437 41.2166 40.4347 41.2166 40.4324C41.2166 40.4301 41.2166 40.4278 41.2166 40.4255C41.2166 40.4232 41.2166 40.4209 41.2166 40.4185C41.2166 40.4162 41.2166 40.4138 41.2166 40.4114C41.2166 40.4091 41.2166 40.4067 41.2166 40.4043C41.2166 40.4019 41.2166 40.3995 41.2166 40.3971C41.2166 40.3946 41.2166 40.3922 41.2166 40.3898C41.2166 40.3873 41.2166 40.3849 41.2166 40.3824C41.2166 40.3799 41.2166 40.3774 41.2166 40.375C41.2166 40.3725 41.2166 40.37 41.2166 40.3674C41.2166 40.3649 41.2166 40.3624 41.2166 40.3599C41.2166 40.3573 41.2166 40.3548 41.2166 40.3522C41.2166 40.3497 41.2166 40.3471 41.2166 40.3445C41.2166 40.3419 41.2166 40.3393 41.2166 40.3367C41.2166 40.3341 41.2166 40.3315 41.2166 40.3288C41.2166 40.3262 41.2166 40.3236 41.2166 40.3209C41.2166 40.3183 41.2166 40.3156 41.2166 40.3129C41.2166 40.3102 41.2166 40.3075 41.2166 40.3048C41.2166 40.3021 41.2166 40.2994 41.2166 40.2967C41.2166 40.294 41.2166 40.2912 41.2166 40.2885C41.2166 40.2858 41.2166 40.283 41.2166 40.2802C41.2166 40.2775 41.2166 40.2747 41.2166 40.2719C41.2166 40.2691 41.2166 40.2663 41.2166 40.2635C41.2166 40.2607 41.2166 40.2578 41.2166 40.255C41.2166 40.2522 41.2166 40.2493 41.2166 40.2465C41.2166 40.2436 41.2166 40.2407 41.2166 40.2378C41.2166 40.235 41.2166 40.2321 41.2166 40.2292C41.2166 40.2263 41.2166 40.2233 41.2166 40.2204C41.2166 40.2175 41.2166 40.2146 41.2166 40.2116C41.2166 40.2087 41.2166 40.2057 41.2166 40.2027C41.2166 40.1998 41.2166 40.1968 41.2166 40.1938C41.2166 40.1908 41.2166 40.1878 41.2166 40.1848C41.2166 40.1818 41.2166 40.1787 41.2166 40.1757C41.2166 40.1727 41.2166 40.1696 41.2166 40.1666C41.2166 40.1635 41.2166 40.1604 41.2166 40.1574C41.2166 40.1543 41.2166 40.1512 41.2166 40.1481C41.2166 40.145 41.2166 40.1419 41.2166 40.1388C41.2166 40.1356 41.2166 40.1325 41.2166 40.1294C41.2166 40.1262 41.2166 40.1231 41.2166 40.1199C41.2166 40.1167 41.2166 40.1136 41.2166 40.1104C41.2166 40.1072 41.2166 40.104 41.2166 40.1008C41.2166 40.0976 41.2166 40.0944 41.2166 40.0912C41.2166 40.0879 41.2166 40.0847 41.2166 40.0814C41.2166 40.0782 41.2166 40.0749 41.2166 40.0717C41.2166 40.0684 41.2166 40.0651 41.2166 40.0618C41.2166 40.0585 41.2166 40.0552 41.2166 40.0519C41.2166 40.0486 41.2166 40.0453 41.2166 40.042C41.2166 40.0386 41.2166 40.0353 41.2166 40.032C41.2166 40.0286 41.2166 40.0252 41.2166 40.0219C41.2166 40.0185 41.2166 40.0151 41.2166 40.0117C41.2166 40.0083 41.2166 40.0049 41.2166 40.0015C41.2166 39.9981 41.2166 39.9947 41.2166 39.9913C41.2166 39.9878 41.2166 39.9844 41.2166 39.9809C41.2166 39.9775 41.2166 39.974 41.2166 39.9706C41.2166 39.9671 41.2166 39.9636 41.2166 39.9601C41.2166 39.9566 41.2166 39.9531 41.2166 39.9496C41.2166 39.9461 41.2166 39.9426 41.2166 39.9391C41.2166 39.9355 41.2166 39.932 41.2166 39.9284C41.2166 39.9249 41.2166 39.9213 41.2166 39.9178C41.2166 39.9142 41.2166 39.9106 41.2166 39.907C41.2166 39.9034 41.2166 39.8998 41.2166 39.8962C41.2166 39.8926 41.2166 39.889 41.2166 39.8854C41.2166 39.8817 41.2166 39.8781 41.2166 39.8745C41.2166 39.8708 41.2166 39.8672 41.2166 39.8635C41.2166 39.8598 41.2166 39.8562 41.2166 39.8525C41.2166 39.8488 41.2166 39.8451 41.2166 39.8414C41.2166 39.8377 41.2166 39.834 41.2166 39.8303C41.2166 39.8265 41.2166 39.8228 41.2166 39.8191C41.2166 39.8153 41.2166 39.8116 41.2166 39.8078C41.2166 39.8041 41.2166 39.8003 41.2166 39.7965C41.2166 39.7927 41.2166 39.789 41.2166 39.7852C41.2166 39.7814 41.2166 39.7776 41.2166 39.7737C41.2166 39.7699 41.2166 39.7661 41.2166 39.7623C41.2166 39.7584 41.2166 39.7546 41.2166 39.7507C41.2166 39.7469 41.2166 39.743 41.2166 39.7392C41.2166 39.7353 41.2166 39.7314 41.2166 39.7275C41.2166 39.7236 41.2166 39.7198 41.2166 39.7158C41.2166 39.7119 41.2166 39.708 41.2166 39.7041C41.2166 39.7002 41.2166 39.6963 41.2166 39.6923C41.2166 39.6884 41.2166 39.6844 41.2166 39.6805C41.2166 39.6765 41.2166 39.6725 41.2166 39.6686C41.2166 39.6646 41.2166 39.6606 41.2166 39.6566C41.2166 39.6526 41.2166 39.6486 41.2166 39.6446C41.2166 39.6406 41.2166 39.6366 41.2166 39.6326C41.2166 39.6285 41.2166 39.6245 41.2166 39.6204C41.2166 39.6164 41.2166 39.6124 41.2166 39.6083C41.2166 39.6042 41.2166 39.6002 41.2166 39.5961C41.2166 39.592 41.2166 39.5879 41.2166 39.5838C41.2166 39.5797 41.2166 39.5756 41.2166 39.5715C41.2166 39.5674 41.2166 39.5633 41.2166 39.5591C41.2166 39.555 41.2166 39.5509 41.2166 39.5467C41.2166 39.5426 41.2166 39.5384 41.2166 39.5343C41.2166 39.5301 41.2166 39.5259 41.2166 39.5218C41.2166 39.5176 41.2166 39.5134 41.2166 39.5092C41.2166 39.505 41.2166 39.5008 41.2166 39.4966C41.2166 39.4924 41.2166 39.4881 41.2166 39.4839C41.2166 39.4797 41.2166 39.4755 41.2166 39.4712C41.2166 39.467 41.2166 39.4627 41.2166 39.4585C41.2166 39.4542 41.2166 39.4499 41.2166 39.4456C41.2166 39.4414 41.2166 39.4371 41.2166 39.4328C41.2166 39.4285 41.2166 39.4242 41.2166 39.4199C41.2166 39.4156 41.2166 39.4113 41.2166 39.4069C41.2166 39.4026 41.2166 39.3983 41.2166 39.3939C41.2166 39.3896 41.2166 39.3853 41.2166 39.3809C41.2166 39.3765 41.2166 39.3722 41.2166 39.3678C41.2166 39.3634 41.2166 39.3591 41.2166 39.3547C41.2166 39.3503 41.2166 39.3459 41.2166 39.3415C41.2166 39.3371 41.2166 39.3327 41.2166 39.3283C41.2166 39.3239 41.2166 39.3194 41.2166 39.315C41.2166 39.3106 41.2166 39.3061 41.2166 39.3017C41.2166 39.2972 41.2166 39.2928 41.2166 39.2883C41.2166 39.2839 41.2166 39.2794 41.2166 39.2749C41.2166 39.2704 41.2166 39.2659 41.2166 39.2615C41.2166 39.257 41.2166 39.2525 41.2166 39.248C41.2166 39.2434 41.2166 39.2389 41.2166 39.2344C41.2166 39.2299 41.2166 39.2254 41.2166 39.2208C41.2166 39.2163 41.2166 39.2117 41.2166 39.2072C41.2166 39.2026 41.2166 39.1981 41.2166 39.1935C41.2166 39.189 41.2166 39.1844 41.2166 39.1798C41.2166 39.1752 41.2166 39.1706 41.2166 39.1661C41.2166 39.1615 41.2166 39.1569 41.2166 39.1523C41.2166 39.1476 41.2166 39.143 41.2166 39.1384C41.2166 39.1338 41.2166 39.1292 41.2166 39.1245C41.2166 39.1199 41.2166 39.1152 41.2166 39.1106C41.2166 39.1059 41.2166 39.1013 41.2166 39.0966C41.2166 39.092 41.2166 39.0873 41.2166 39.0826C41.2166 39.0779 41.2166 39.0733 41.2166 39.0686C41.2166 39.0639 41.2166 39.0592 41.2166 39.0545C41.2166 39.0498 41.2166 39.0451 41.2166 39.0403C41.2166 39.0356 41.2166 39.0309 41.2166 39.0262C41.2166 39.0214 41.2166 39.0167 41.2166 39.012C41.2166 39.0072 41.2166 39.0025 41.2166 38.9977C41.2166 38.993 41.2166 38.9882 41.2166 38.9834C41.2166 38.9787 41.2166 38.9739 41.2166 38.9691C41.2166 38.9643 41.2166 38.9595 41.2166 38.9547C41.2166 38.9499 41.2166 38.9451 41.2166 38.9403C41.2166 38.9355 41.2166 38.9307 41.2166 38.9259C41.2166 38.9211 41.2166 38.9162 41.2166 38.9114C41.2166 38.9066 41.2166 38.9017 41.2166 38.8969C41.2166 38.892 41.2166 38.8872 41.2166 38.8823C41.2166 38.8775 41.2166 38.8726 41.2166 38.8677C41.2166 38.8628 41.2166 38.858 41.2166 38.8531C41.2166 38.8482 41.2166 38.8433 41.2166 38.8384C41.2166 38.8335 41.2166 38.8286 41.2166 38.8237C41.2166 38.8188 41.2166 38.8139 41.2166 38.809C41.2166 38.804 41.2166 38.7991 41.2166 38.7942C41.2166 38.7893 41.2166 38.7843 41.2166 38.7794C41.2166 38.7744 41.2166 38.7695 41.2166 38.7645C41.2166 38.7596 41.2166 38.7546 41.2166 38.7496C41.2166 38.7447 41.2166 38.7397 41.2166 38.7347C41.2166 38.7297 41.2166 38.7247 41.2166 38.7198C41.2166 38.7148 41.2166 38.7098 41.2166 38.7048C41.2166 38.6998 41.2166 38.6948 41.2166 38.6897C41.2166 38.6847 41.2166 38.6797 41.2166 38.6747C41.2166 38.6697 41.2166 38.6646 41.2166 38.6596C41.2166 38.6546 41.2166 38.6495 41.2166 38.6445C41.2166 38.6394 41.2166 38.6344 41.2166 38.6293C41.2166 38.6242 41.2166 38.6192 41.2166 38.6141C41.2166 38.609 41.2166 38.604 41.2166 38.5989C41.2166 38.5938 41.2166 38.5887 41.2166 38.5836C41.2166 38.5785 41.2166 38.5734 41.2166 38.5683C41.2166 38.5632 41.2166 38.5581 41.2166 38.553C41.2166 38.5479 41.2166 38.5428 41.2166 38.5377C41.2166 38.5326 41.2166 38.5274 41.2166 38.5223C41.2166 38.5172 41.2166 38.512 41.2166 38.5069C41.2166 38.5017 41.2166 38.4966 41.2166 38.4914C41.2166 38.4863 41.2166 38.4811 41.2166 38.476C41.2166 38.4708 41.2166 38.4656 41.2166 38.4604C41.2166 38.4553 41.2166 38.4501 41.2166 38.4449C41.2166 38.4397 41.2166 38.4345 41.2166 38.4293C41.2166 38.4241 41.2166 38.4189 41.2166 38.4137C41.2166 38.4085 41.2166 38.4033 41.2166 38.3981C41.2166 38.3929 41.2166 38.3877 41.2166 38.3825C41.2166 38.3772 41.2166 38.372 41.2166 38.3668C41.2166 38.3615 41.2166 38.3563 41.2166 38.3511C41.2166 38.3458 41.2166 38.3406 41.2166 38.3353C41.2166 38.3301 41.2166 38.3248 41.2166 38.3196C41.2166 38.3143 41.2166 38.309 41.2166 38.3038C41.2166 38.2985 41.2166 38.2932 41.2166 38.2879C41.2166 38.2827 41.2166 38.2774 41.2166 38.2721C41.2166 38.2668 41.2166 38.2615 41.2166 38.2562C41.2166 38.2509 41.2166 38.2456 41.2166 38.2403C41.2166 38.235 41.2166 38.2297 41.2166 38.2244C41.2166 38.2191 41.2166 38.2137 41.2166 38.2084C41.2166 38.2031 41.2166 38.1978 41.2166 38.1924C41.2166 38.1871 41.2166 38.1818 41.2166 38.1764C41.2166 38.1711 41.2166 38.1657 41.2166 38.1604C41.2166 38.155 41.2166 38.1497 41.2166 38.1443C41.2166 38.139 41.2166 38.1336 41.2166 38.1282C41.2166 38.1229 41.2166 38.1175 41.2166 38.1121C41.2166 38.1068 41.2166 38.1014 41.2166 38.096C41.2166 38.0906 41.2166 38.0852 41.2166 38.0798C41.2166 38.0744 41.2166 38.069 41.2166 38.0636C41.2166 38.0583 41.2166 38.0528 41.2166 38.0474C41.2166 38.042 41.2166 38.0366 41.2166 38.0312C41.2166 38.0258 41.2166 38.0204 41.2166 38.015C41.2166 38.0095 41.2166 38.0041 41.2166 37.9987C41.2166 37.9933 41.2166 37.9878 41.2166 37.9824C41.2166 37.9769 41.2166 37.9715 41.2166 37.9661C41.2166 37.9606 41.2166 37.9552 41.2166 37.9497C41.2166 37.9443 41.2166 37.9388 41.2166 37.9334C41.2166 37.9279 41.2166 37.9224 41.2166 37.917C41.2166 37.9115 41.2166 37.906 41.2166 37.9006C41.2166 37.8951 41.2166 37.8896 41.2166 37.8841C41.2166 37.8787 41.2166 37.8732 41.2166 37.8677C41.2166 37.8622 41.2166 37.8567 41.2166 37.8512C41.2166 37.8457 41.2166 37.8402 41.2166 37.8347C41.2166 37.8292 41.2166 37.8237 41.2166 37.8182C41.2166 37.8127 41.2166 37.8072 41.2166 37.8017C41.2166 37.7962 41.2166 37.7906 41.2166 37.7851C41.2166 37.7796 41.2166 37.7741 41.2166 37.7686C41.2166 37.763 41.2166 37.7575 41.2166 37.752C41.2166 37.7464 41.2166 37.7409 41.2166 37.7354C41.2166 37.7298 41.2166 37.7243 41.2166 37.7187C41.2166 37.7132 41.2166 37.7076 41.2166 37.7021C41.2166 37.6965 41.2166 37.691 41.2166 37.6854C41.2166 37.6799 41.2166 37.6743 41.2166 37.6687C41.2166 37.6632 41.2166 37.6576 41.2166 37.6521C41.2166 37.6465 41.2166 37.6409 41.2166 37.6353C41.2166 37.6298 41.2166 37.6242 41.2166 37.6186C41.2166 37.613 41.2166 37.6074 41.2166 37.6019C41.2166 37.5963 41.2166 37.5907 41.2166 37.5851C41.2166 37.5795 41.2166 37.5739 41.2166 37.5683C41.2166 37.5627 41.2166 37.5571 41.2166 37.5515C41.2166 37.5459 41.2166 37.5403 41.2166 37.5347C41.2166 37.5291 41.2166 37.5235 41.2166 37.5179C41.2166 37.5123 41.2166 37.5066 41.2166 37.501C41.2166 37.4954 41.2166 37.4898 41.2166 37.4842C41.2166 37.4785 41.2166 37.4729 41.2166 37.4673C41.2166 37.4617 41.2166 37.456 41.2166 37.4504C41.2166 37.4448 41.2166 37.4391 41.2166 37.4335C41.2166 37.4279 41.2166 37.4222 41.2166 37.4166C41.2166 37.411 41.2166 37.4053 41.2166 37.3997C41.2166 37.394 41.2166 37.3884 41.2166 37.3827C41.2166 37.3771 41.2166 37.3714 41.2166 37.3658C41.2166 37.3601 41.2166 37.3545 41.2166 37.3488C41.2166 37.3431 41.2166 37.3375 41.2166 37.3318C41.2166 37.3262 41.2166 37.3205 41.2166 37.3148C41.2166 37.3092 41.2166 37.3035 41.2166 37.2978C41.2166 37.2921 41.2166 37.2865 41.2166 37.2808C41.2166 37.2751 41.2166 37.2695 41.2166 37.2638C41.2166 37.2581 41.2166 37.2524 41.2166 37.2467C41.2166 37.2411 41.2166 37.2354 41.2166 37.2297C41.2166 37.224 41.2166 37.2183 41.2166 37.2126C41.2166 37.2069 41.2166 37.2012 41.2166 37.1955C41.2166 37.1899 41.2166 37.1842 41.2166 37.1785C41.2166 37.1728 41.2166 37.1671 41.2166 37.1614C41.2166 37.1557 41.2166 37.15 41.2166 37.1443C41.2166 37.1386 41.2166 37.1329 41.2166 37.1272C41.2166 37.1215 41.2166 37.1157 41.2166 37.11C41.2166 37.1043 41.2166 37.0986 41.2166 37.0929C41.2166 37.0872 41.2166 37.0815 41.2166 37.0758C41.2166 37.0701 41.2166 37.0643 41.2166 37.0586C41.2166 37.0529 41.2166 37.0472 41.2166 37.0415C41.2166 37.0357 41.2166 37.03 41.2166 37.0243C41.2166 37.0186 41.2166 37.0129 41.2166 37.0071C41.2166 37.0014 41.2166 36.9957 41.2166 36.9899C41.2166 36.9842 41.2166 36.9785 41.2166 36.9728C41.2166 36.967 41.2166 36.9613 41.2166 36.9556C41.2166 36.9498 41.2166 36.9441 41.2166 36.9384C41.2166 36.9326 41.2166 36.9269 41.2166 36.9212C41.2166 36.9154 41.2166 36.9097 41.2166 36.904C41.2166 36.8982 41.2166 36.8925 41.2166 36.8867C41.2166 36.881 41.2166 36.8753 41.2166 36.8695C41.2166 36.8638 41.2166 36.858 41.2166 36.8523C41.2166 36.8465 41.2166 36.8408 41.2166 36.835C41.2166 36.8293 41.2166 36.8236 41.2166 36.8178C41.2166 36.8121 41.2166 36.8063 41.2166 36.8006C41.2166 36.7948 41.2166 36.7891 41.2166 36.7833C41.2166 36.7776 41.2166 36.7718 41.2166 36.7661C41.2166 36.7603 41.2166 36.7546 41.2166 36.7488C41.2166 36.7431 41.2166 36.7373 41.2166 36.7316C41.2166 36.7258 41.2166 36.72 41.2166 36.7143C41.2166 36.7085 41.2166 36.7028 41.2166 36.697C41.2166 36.6913 41.2166 36.6855 41.2166 36.6798C41.2166 36.674 41.2166 36.6682 41.2166 36.6625C41.2166 36.6567 41.2166 36.651 41.2166 36.6452C41.2166 36.6395 41.2166 36.6337 41.2166 36.6279C41.2166 36.6222 41.2166 36.6164 41.2166 36.6107C41.2166 36.6049 41.2166 36.5991 41.2166 36.5934C41.2166 36.5876 41.2166 36.5819 41.2166 36.5761C41.2166 36.5703 41.2166 36.5646 41.2166 36.5588C41.2166 36.5531 41.2166 36.5473 41.2166 36.5415C41.2166 36.5358 41.2166 36.53 41.2166 36.5243C41.2166 36.5185 41.2166 36.5127 41.2166 36.507C41.2166 36.5012 41.2166 36.4954 41.2166 36.4897C41.2166 36.4839 41.2166 36.4782 41.2166 36.4724C41.2166 36.4666 41.2166 36.4609 41.2166 36.4551C41.2166 36.4494 41.2166 36.4436 41.2166 36.4378C41.2166 36.4321 41.2166 36.4263 41.2166 36.4206C41.2166 36.4148 41.2166 36.409 41.2166 36.4033C41.2166 36.3975 41.2166 36.3918 41.2166 36.386C41.2166 36.3803 41.2166 36.3745 41.2166 36.3687C41.2166 36.363 41.2166 36.3572 41.2166 36.3515C41.2166 36.3457 41.2166 36.34 41.2166 36.3342C41.2166 36.3284 41.2166 36.3227 41.2166 36.3169C41.2166 36.3112 41.2166 36.3054 41.2166 36.2997C41.2166 36.2939 41.2166 36.2882 41.2166 36.2824C41.2166 36.2766 41.2166 36.2709 41.2166 36.2651C41.2166 36.2594 41.2166 36.2536 41.2166 36.2479C41.2166 36.2421 41.2166 36.2364 41.2166 36.2306C41.2166 36.2249 41.2166 36.2191 41.2166 36.2134C41.2166 36.2076 41.2166 36.2019 41.2166 36.1961C41.2166 36.1904 41.2166 36.1847 41.2166 36.1789C41.2166 36.1732 41.2166 36.1674 41.2166 36.1617C41.2166 36.1559 41.2166 36.1502 41.2166 36.1444C41.2166 36.1387 41.2166 36.133 41.2166 36.1272C41.2166 36.1215 41.2166 36.1157 41.2166 36.11C41.2166 36.1043 41.2166 36.0985 41.2166 36.0928C41.2166 36.0871 41.2166 36.0813 41.2166 36.0756C41.2166 36.0699 41.2166 36.0641 41.2166 36.0584C41.2166 36.0527 41.2166 36.0469 41.2166 36.0412C41.2166 36.0355 41.2166 36.0298 41.2166 36.024C41.2166 36.0183 41.2166 36.0126 41.2166 36.0068C41.2166 36.0011 41.2166 35.9954 41.2166 35.9897C41.2166 35.984 41.2166 35.9782 41.2166 35.9725C41.2166 35.9668 41.2166 35.9611 41.2166 35.9554C41.2166 35.9496 41.2166 35.9439 41.2166 35.9382C41.2166 35.9325 41.2166 35.9268 41.2166 35.9211C41.2166 35.9154 41.2166 35.9097 41.2166 35.904C41.2166 35.8982 41.2166 35.8925 41.2166 35.8868C41.2166 35.8811 41.2166 35.8754 41.2166 35.8697C41.2166 35.864 41.2166 35.8583 41.2166 35.8526C41.2166 35.8469 41.2166 35.8412 41.2166 35.8355C41.2166 35.8298 41.2166 35.8241 41.2166 35.8185C41.2166 35.8128 41.2166 35.8071 41.2166 35.8014C41.2166 35.7957 41.2166 35.79 41.2166 35.7843C41.2166 35.7786 41.2166 35.773 41.2166 35.7673C41.2166 35.7616 41.2166 35.7559 41.2166 35.7502C41.2166 35.7446 41.2166 35.7389 41.2166 35.7332C41.2166 35.7275 41.2166 35.7219 41.2166 35.7162C41.2166 35.7105 41.2166 35.7049 41.2166 35.6992C41.2166 35.6935 41.2166 35.6879 41.2166 35.6822C41.2166 35.6765 41.2166 35.6709 41.2166 35.6652C41.2166 35.6596 41.2166 35.6539 41.2166 35.6483C41.2166 35.6426 41.2166 35.637 41.2166 35.6313C41.2166 35.6257 41.2166 35.62 41.2166 35.6144C41.2166 35.6087 41.2166 35.6031 41.2166 35.5975C41.2166 35.5918 41.2166 35.5862 41.2166 35.5805C41.2166 35.5749 41.2166 35.5693 41.2166 35.5636C41.2166 35.558 41.2166 35.5524 41.2166 35.5468C41.2166 35.5411 41.2166 35.5355 41.2166 35.5299C41.2166 35.5243 41.2166 35.5187 41.2166 35.513C41.2166 35.5074 41.2166 35.5018 41.2166 35.4962C41.2166 35.4906 41.2166 35.485 41.2166 35.4794C41.2166 35.4738 41.2166 35.4682 41.2166 35.4626C41.2166 35.457 41.2166 35.4514 41.2166 35.4458C41.2166 35.4402 41.2166 35.4346 41.2166 35.429C41.2166 35.4234 41.2166 35.4178 41.2166 35.4122C41.2166 35.4067 41.2166 35.4011 41.2166 35.3955C41.2166 35.3899 41.2166 35.3843 41.2166 35.3788C41.2166 35.3732 41.2166 35.3676 41.2166 35.3621C41.2166 35.3565 41.2166 35.3509 41.2166 35.3454C41.2166 35.3398 41.2166 35.3342 41.2166 35.3287C41.2166 35.3231 41.2166 35.3176 41.2166 35.312C41.2166 35.3065 41.2166 35.3009 41.2166 35.2954C41.2166 35.2898 41.2166 35.2843 41.2166 35.2788C41.2166 35.2732 41.2166 35.2677 41.2166 35.2622C41.2166 35.2566 41.2166 35.2511 41.2166 35.2456C41.2166 35.2401 41.2166 35.2345 41.2166 35.229C41.2166 35.2235 41.2166 35.218 41.2166 35.2125C41.2166 35.207 41.2166 35.2015 41.2166 35.1959C41.2166 35.1904 41.2166 35.1849 41.2166 35.1794C41.2166 35.1739 41.2166 35.1684 41.2166 35.163C41.2166 35.1575 41.2166 35.152 41.2166 35.1465C41.2166 35.141 41.2166 35.1355 41.2166 35.1301C41.2166 35.1246 41.2166 35.1191 41.2166 35.1136C41.2166 35.1082 41.2166 35.1027 41.2166 35.0972C41.2166 35.0918 41.2166 35.0863 41.2166 35.0808C41.2166 35.0754 41.2166 35.0699 41.2166 35.0645C41.2166 35.059 41.2166 35.0536 41.2166 35.0481C41.2166 35.0427 41.2166 35.0373 41.2166 35.0318C41.2166 35.0264 41.2166 35.021 41.2166 35.0155C41.2166 35.0101 41.2166 35.0047 41.2166 34.9993C41.2166 34.9939 41.2166 34.9884 41.2166 34.983C41.2166 34.9776 41.2166 34.9722 41.2166 34.9668C41.2166 34.9614 41.2166 34.956 41.2166 34.9506C41.2166 34.9452 41.2166 34.9398 41.2166 34.9344C41.2166 34.929 41.2166 34.9237 41.2166 34.9183C41.2166 34.9129 41.2166 34.9075 41.2166 34.9021C41.2166 34.8968 41.2166 34.8914 41.2166 34.886C41.2166 34.8807 41.2166 34.8753 41.2166 34.87C41.2166 34.8646 41.2166 34.8593 41.2166 34.8539C41.2166 34.8486 41.2166 34.8432 41.2166 34.8379C41.2166 34.8325 41.2166 34.8272 41.2166 34.8219C41.2166 34.8165 41.2166 34.8112 41.2166 34.8059C41.2166 34.8006 41.2166 34.7953 41.2166 34.79C41.2166 34.7846 41.2166 34.7793 41.2166 34.774C41.2166 34.7687 41.2166 34.7634 41.2166 34.7581C41.2166 34.7528 41.2166 34.7475 41.2166 34.7423C41.2166 34.737 41.2166 34.7317 41.2166 34.7264C41.2166 34.7211 41.2166 34.7159 41.2166 34.7106C41.2166 34.7053 41.2166 34.7001 41.2166 34.6948C41.2166 34.6895 41.2166 34.6843 41.2166 34.679C41.2166 34.6738 41.2166 34.6686 41.2166 34.6633C41.2166 34.6581 41.2166 34.6528 41.2166 34.6476C41.2166 34.6424 41.2166 34.6372 41.2166 34.6319C41.2166 34.6267 41.2166 34.6215 41.2166 34.6163C41.2166 34.6111 41.2166 34.6059 41.2166 34.6007C41.2166 34.5955 41.2166 34.5903 41.2166 34.5851C41.2166 34.5799 41.2166 34.5747 41.2166 34.5695C41.2166 34.5643 41.2166 34.5592 41.2166 34.554C41.2166 34.5488 41.2166 34.5437 41.2166 34.5385C41.2166 34.5333 41.2166 34.5282 41.2166 34.523C41.2166 34.5179 41.2166 34.5127 41.2166 34.5076C41.2166 34.5024 41.2166 34.4973 41.2166 34.4922C41.2166 34.4871 41.2166 34.4819 41.2166 34.4768C41.2166 34.4717 41.2166 34.4666 41.2166 34.4615C41.2166 34.4564 41.2166 34.4513 41.2166 34.4462C41.2166 34.4411 41.2166 34.436 41.2166 34.4309C41.2166 34.4258 41.2166 34.4207 41.2166 34.4156C41.2166 34.4105 41.2166 34.4055 41.2166 34.4004C41.2166 34.3953 41.2166 34.3903 41.2166 34.3852C41.2166 34.3802 41.2166 34.3751 41.2166 34.3701C41.2166 34.365 41.2166 34.36 41.2166 34.355C41.2166 34.3499 41.2166 34.3449 41.2166 34.3399C41.2166 34.3349 41.2166 34.3298 41.2166 34.3248C41.2166 34.3198 41.2166 34.3148 41.2166 34.3098C41.2166 34.3048 41.2166 34.2998 41.2166 34.2948C41.2166 34.2898 41.2166 34.2849 41.2166 34.2799C41.2166 34.2749 41.2166 34.2699 41.2166 34.265C41.2166 34.26 41.2166 34.2551 41.2166 34.2501C41.2166 34.2452 41.2166 34.2402 41.2166 34.2353C41.2166 34.2303 41.2166 34.2254 41.2166 34.2205C41.2166 34.2155 41.2166 34.2106 41.2166 34.2057C41.2166 34.2008 41.2166 34.1959 41.2166 34.191C41.2166 34.1861 41.2166 34.1812 41.2166 34.1763C41.2166 34.1714 41.2166 34.1665 41.2166 34.1616C41.2166 34.1567 41.2166 34.1518 41.2166 34.147C41.2166 34.1421 41.2166 34.1372 41.2166 34.1324C41.2166 34.1275 41.2166 34.1227 41.2166 34.1178C41.2166 34.113 41.2166 34.1082 41.2166 34.1033C41.2166 34.0985 41.2166 34.0937 41.2166 34.0889C41.2166 34.084 41.2166 34.0792 41.2166 34.0744C41.2166 34.0696 41.2166 34.0648 41.2166 34.06C41.2166 34.0552 41.2166 34.0504 41.2166 34.0457C41.2166 34.0409 41.2166 34.0361 41.2166 34.0314C41.2166 34.0266 41.2166 34.0218 41.2166 34.0171C41.2166 34.0123 41.2166 34.0076 41.2166 34.0028C41.2166 33.9981 41.2166 33.9934 41.2166 33.9886C41.2166 33.9839 41.2166 33.9792 41.2166 33.9745C41.2166 33.9698 41.2166 33.9651 41.2166 33.9604C41.2166 33.9557 41.2166 33.951 41.2166 33.9463C41.2166 33.9416 41.2166 33.9369 41.2166 33.9322C41.2166 33.9276 41.2166 33.9229 41.2166 33.9182C41.2166 33.9136 41.2166 33.9089 41.2166 33.9043C41.2166 33.8996 41.2166 33.895 41.2166 33.8904C41.2166 33.8857 41.2166 33.8811 41.2166 33.8765C41.2166 33.8719 41.2166 33.8673 41.2166 33.8627C41.2166 33.8581 41.2166 33.8535 41.2166 33.8489C41.2166 33.8443 41.2166 33.8397 41.2166 33.8351C41.2166 33.8306 41.2166 33.826 41.2166 33.8214C41.2166 33.8169 41.2166 33.8123 41.2166 33.8078C41.2166 33.8032 41.2166 33.7987 41.2166 33.7942C41.2166 33.7896 41.2166 33.7851 41.2166 33.7806C41.2166 33.7761 41.2166 33.7715 41.2166 33.767C41.2166 33.7625 41.2166 33.758 41.2166 33.7536C41.2166 33.7491 41.2166 33.7446 41.2166 33.7401C41.2166 33.7356 41.2166 33.7312 41.2166 33.7267C41.2166 33.7223 41.2166 33.7178 41.2166 33.7134C41.2166 33.7089 41.2166 33.7045 41.2166 33.7001C41.2166 33.6956 41.2166 33.6912 41.2166 33.6868C41.2166 33.6824 41.2166 33.678 41.2166 33.6736C41.2166 33.6692 41.2166 33.6648 41.2166 33.6604C41.2166 33.656 41.2166 33.6517 41.2166 33.6473C41.2166 33.6429 41.2166 33.6386 41.2166 33.6342C41.2166 33.6299 41.2166 33.6255 41.2166 33.6212C41.2166 33.6169 41.2166 33.6125 41.2166 33.6082C41.2166 33.6039 41.2166 33.5996 41.2166 33.5953C41.2166 33.591 41.2166 33.5867 41.2166 33.5824C41.2166 33.5781 41.2166 33.5738 41.2166 33.5695C41.2166 33.5653 41.2166 33.561 41.2166 33.5568C41.2166 33.5525 41.2166 33.5483 41.2166 33.544C41.2166 33.5398 41.2166 33.5355 41.2166 33.5313C41.2166 33.5271 41.2166 33.5229 41.2166 33.5187C41.2166 33.5145 41.2166 33.5103 41.2166 33.5061C41.2166 33.5019 41.2166 33.4977 41.2166 33.4935C41.2166 33.4893 41.2166 33.4852 41.2166 33.481C41.2166 33.4769 41.2166 33.4727 41.2166 33.4686C41.2166 33.4644 41.2166 33.4603 41.2166 33.4562C41.2166 33.4521 41.2166 33.4479 41.2166 33.4438C41.2166 33.4397 41.2166 33.4356 41.2166 33.4315C41.2166 33.4274 41.2166 33.4234 41.2166 33.4193C41.2166 33.4152 41.2166 33.4111 41.2166 33.4071C41.2166 33.403 41.2166 33.399 41.2166 33.3949C41.2166 33.3909 41.2166 33.3869 41.2166 33.3828H39.2166C39.2166 33.3869 39.2166 33.3909 39.2166 33.3949C39.2166 33.399 39.2166 33.403 39.2166 33.4071C39.2166 33.4111 39.2166 33.4152 39.2166 33.4193C39.2166 33.4234 39.2166 33.4274 39.2166 33.4315C39.2166 33.4356 39.2166 33.4397 39.2166 33.4438C39.2166 33.4479 39.2166 33.4521 39.2166 33.4562C39.2166 33.4603 39.2166 33.4644 39.2166 33.4686C39.2166 33.4727 39.2166 33.4769 39.2166 33.481C39.2166 33.4852 39.2166 33.4893 39.2166 33.4935C39.2166 33.4977 39.2166 33.5019 39.2166 33.5061C39.2166 33.5103 39.2166 33.5145 39.2166 33.5187C39.2166 33.5229 39.2166 33.5271 39.2166 33.5313C39.2166 33.5355 39.2166 33.5398 39.2166 33.544C39.2166 33.5483 39.2166 33.5525 39.2166 33.5568C39.2166 33.561 39.2166 33.5653 39.2166 33.5695C39.2166 33.5738 39.2166 33.5781 39.2166 33.5824C39.2166 33.5867 39.2166 33.591 39.2166 33.5953C39.2166 33.5996 39.2166 33.6039 39.2166 33.6082C39.2166 33.6125 39.2166 33.6169 39.2166 33.6212C39.2166 33.6255 39.2166 33.6299 39.2166 33.6342C39.2166 33.6386 39.2166 33.6429 39.2166 33.6473C39.2166 33.6517 39.2166 33.656 39.2166 33.6604C39.2166 33.6648 39.2166 33.6692 39.2166 33.6736C39.2166 33.678 39.2166 33.6824 39.2166 33.6868C39.2166 33.6912 39.2166 33.6956 39.2166 33.7001C39.2166 33.7045 39.2166 33.7089 39.2166 33.7134C39.2166 33.7178 39.2166 33.7223 39.2166 33.7267C39.2166 33.7312 39.2166 33.7356 39.2166 33.7401C39.2166 33.7446 39.2166 33.7491 39.2166 33.7536C39.2166 33.758 39.2166 33.7625 39.2166 33.767C39.2166 33.7715 39.2166 33.7761 39.2166 33.7806C39.2166 33.7851 39.2166 33.7896 39.2166 33.7942C39.2166 33.7987 39.2166 33.8032 39.2166 33.8078C39.2166 33.8123 39.2166 33.8169 39.2166 33.8214C39.2166 33.826 39.2166 33.8306 39.2166 33.8351C39.2166 33.8397 39.2166 33.8443 39.2166 33.8489C39.2166 33.8535 39.2166 33.8581 39.2166 33.8627C39.2166 33.8673 39.2166 33.8719 39.2166 33.8765C39.2166 33.8811 39.2166 33.8857 39.2166 33.8904C39.2166 33.895 39.2166 33.8996 39.2166 33.9043C39.2166 33.9089 39.2166 33.9136 39.2166 33.9182C39.2166 33.9229 39.2166 33.9276 39.2166 33.9322C39.2166 33.9369 39.2166 33.9416 39.2166 33.9463C39.2166 33.951 39.2166 33.9557 39.2166 33.9604C39.2166 33.9651 39.2166 33.9698 39.2166 33.9745C39.2166 33.9792 39.2166 33.9839 39.2166 33.9886C39.2166 33.9934 39.2166 33.9981 39.2166 34.0028C39.2166 34.0076 39.2166 34.0123 39.2166 34.0171C39.2166 34.0218 39.2166 34.0266 39.2166 34.0314C39.2166 34.0361 39.2166 34.0409 39.2166 34.0457C39.2166 34.0504 39.2166 34.0552 39.2166 34.06C39.2166 34.0648 39.2166 34.0696 39.2166 34.0744C39.2166 34.0792 39.2166 34.084 39.2166 34.0889C39.2166 34.0937 39.2166 34.0985 39.2166 34.1033C39.2166 34.1082 39.2166 34.113 39.2166 34.1178C39.2166 34.1227 39.2166 34.1275 39.2166 34.1324C39.2166 34.1372 39.2166 34.1421 39.2166 34.147C39.2166 34.1518 39.2166 34.1567 39.2166 34.1616C39.2166 34.1665 39.2166 34.1714 39.2166 34.1763C39.2166 34.1812 39.2166 34.1861 39.2166 34.191C39.2166 34.1959 39.2166 34.2008 39.2166 34.2057C39.2166 34.2106 39.2166 34.2155 39.2166 34.2205C39.2166 34.2254 39.2166 34.2303 39.2166 34.2353C39.2166 34.2402 39.2166 34.2452 39.2166 34.2501C39.2166 34.2551 39.2166 34.26 39.2166 34.265C39.2166 34.2699 39.2166 34.2749 39.2166 34.2799C39.2166 34.2849 39.2166 34.2898 39.2166 34.2948C39.2166 34.2998 39.2166 34.3048 39.2166 34.3098C39.2166 34.3148 39.2166 34.3198 39.2166 34.3248C39.2166 34.3298 39.2166 34.3349 39.2166 34.3399C39.2166 34.3449 39.2166 34.3499 39.2166 34.355C39.2166 34.36 39.2166 34.365 39.2166 34.3701C39.2166 34.3751 39.2166 34.3802 39.2166 34.3852C39.2166 34.3903 39.2166 34.3953 39.2166 34.4004C39.2166 34.4055 39.2166 34.4105 39.2166 34.4156C39.2166 34.4207 39.2166 34.4258 39.2166 34.4309C39.2166 34.436 39.2166 34.4411 39.2166 34.4462C39.2166 34.4513 39.2166 34.4564 39.2166 34.4615C39.2166 34.4666 39.2166 34.4717 39.2166 34.4768C39.2166 34.4819 39.2166 34.4871 39.2166 34.4922C39.2166 34.4973 39.2166 34.5024 39.2166 34.5076C39.2166 34.5127 39.2166 34.5179 39.2166 34.523C39.2166 34.5282 39.2166 34.5333 39.2166 34.5385C39.2166 34.5437 39.2166 34.5488 39.2166 34.554C39.2166 34.5592 39.2166 34.5643 39.2166 34.5695C39.2166 34.5747 39.2166 34.5799 39.2166 34.5851C39.2166 34.5903 39.2166 34.5955 39.2166 34.6007C39.2166 34.6059 39.2166 34.6111 39.2166 34.6163C39.2166 34.6215 39.2166 34.6267 39.2166 34.6319C39.2166 34.6372 39.2166 34.6424 39.2166 34.6476C39.2166 34.6528 39.2166 34.6581 39.2166 34.6633C39.2166 34.6686 39.2166 34.6738 39.2166 34.679C39.2166 34.6843 39.2166 34.6895 39.2166 34.6948C39.2166 34.7001 39.2166 34.7053 39.2166 34.7106C39.2166 34.7159 39.2166 34.7211 39.2166 34.7264C39.2166 34.7317 39.2166 34.737 39.2166 34.7423C39.2166 34.7475 39.2166 34.7528 39.2166 34.7581C39.2166 34.7634 39.2166 34.7687 39.2166 34.774C39.2166 34.7793 39.2166 34.7846 39.2166 34.79C39.2166 34.7953 39.2166 34.8006 39.2166 34.8059C39.2166 34.8112 39.2166 34.8165 39.2166 34.8219C39.2166 34.8272 39.2166 34.8325 39.2166 34.8379C39.2166 34.8432 39.2166 34.8486 39.2166 34.8539C39.2166 34.8593 39.2166 34.8646 39.2166 34.87C39.2166 34.8753 39.2166 34.8807 39.2166 34.886C39.2166 34.8914 39.2166 34.8968 39.2166 34.9021C39.2166 34.9075 39.2166 34.9129 39.2166 34.9183C39.2166 34.9237 39.2166 34.929 39.2166 34.9344C39.2166 34.9398 39.2166 34.9452 39.2166 34.9506C39.2166 34.956 39.2166 34.9614 39.2166 34.9668C39.2166 34.9722 39.2166 34.9776 39.2166 34.983C39.2166 34.9884 39.2166 34.9939 39.2166 34.9993C39.2166 35.0047 39.2166 35.0101 39.2166 35.0155C39.2166 35.021 39.2166 35.0264 39.2166 35.0318C39.2166 35.0373 39.2166 35.0427 39.2166 35.0481C39.2166 35.0536 39.2166 35.059 39.2166 35.0645C39.2166 35.0699 39.2166 35.0754 39.2166 35.0808C39.2166 35.0863 39.2166 35.0918 39.2166 35.0972C39.2166 35.1027 39.2166 35.1082 39.2166 35.1136C39.2166 35.1191 39.2166 35.1246 39.2166 35.1301C39.2166 35.1355 39.2166 35.141 39.2166 35.1465C39.2166 35.152 39.2166 35.1575 39.2166 35.163C39.2166 35.1684 39.2166 35.1739 39.2166 35.1794C39.2166 35.1849 39.2166 35.1904 39.2166 35.1959C39.2166 35.2015 39.2166 35.207 39.2166 35.2125C39.2166 35.218 39.2166 35.2235 39.2166 35.229C39.2166 35.2345 39.2166 35.2401 39.2166 35.2456C39.2166 35.2511 39.2166 35.2566 39.2166 35.2622C39.2166 35.2677 39.2166 35.2732 39.2166 35.2788C39.2166 35.2843 39.2166 35.2898 39.2166 35.2954C39.2166 35.3009 39.2166 35.3065 39.2166 35.312C39.2166 35.3176 39.2166 35.3231 39.2166 35.3287C39.2166 35.3342 39.2166 35.3398 39.2166 35.3454C39.2166 35.3509 39.2166 35.3565 39.2166 35.3621C39.2166 35.3676 39.2166 35.3732 39.2166 35.3788C39.2166 35.3843 39.2166 35.3899 39.2166 35.3955C39.2166 35.4011 39.2166 35.4067 39.2166 35.4122C39.2166 35.4178 39.2166 35.4234 39.2166 35.429C39.2166 35.4346 39.2166 35.4402 39.2166 35.4458C39.2166 35.4514 39.2166 35.457 39.2166 35.4626C39.2166 35.4682 39.2166 35.4738 39.2166 35.4794C39.2166 35.485 39.2166 35.4906 39.2166 35.4962C39.2166 35.5018 39.2166 35.5074 39.2166 35.513C39.2166 35.5187 39.2166 35.5243 39.2166 35.5299C39.2166 35.5355 39.2166 35.5411 39.2166 35.5468C39.2166 35.5524 39.2166 35.558 39.2166 35.5636C39.2166 35.5693 39.2166 35.5749 39.2166 35.5805C39.2166 35.5862 39.2166 35.5918 39.2166 35.5975C39.2166 35.6031 39.2166 35.6087 39.2166 35.6144C39.2166 35.62 39.2166 35.6257 39.2166 35.6313C39.2166 35.637 39.2166 35.6426 39.2166 35.6483C39.2166 35.6539 39.2166 35.6596 39.2166 35.6652C39.2166 35.6709 39.2166 35.6765 39.2166 35.6822C39.2166 35.6879 39.2166 35.6935 39.2166 35.6992C39.2166 35.7049 39.2166 35.7105 39.2166 35.7162C39.2166 35.7219 39.2166 35.7275 39.2166 35.7332C39.2166 35.7389 39.2166 35.7446 39.2166 35.7502C39.2166 35.7559 39.2166 35.7616 39.2166 35.7673C39.2166 35.773 39.2166 35.7786 39.2166 35.7843C39.2166 35.79 39.2166 35.7957 39.2166 35.8014C39.2166 35.8071 39.2166 35.8128 39.2166 35.8185C39.2166 35.8241 39.2166 35.8298 39.2166 35.8355C39.2166 35.8412 39.2166 35.8469 39.2166 35.8526C39.2166 35.8583 39.2166 35.864 39.2166 35.8697C39.2166 35.8754 39.2166 35.8811 39.2166 35.8868C39.2166 35.8925 39.2166 35.8982 39.2166 35.904C39.2166 35.9097 39.2166 35.9154 39.2166 35.9211C39.2166 35.9268 39.2166 35.9325 39.2166 35.9382C39.2166 35.9439 39.2166 35.9496 39.2166 35.9554C39.2166 35.9611 39.2166 35.9668 39.2166 35.9725C39.2166 35.9782 39.2166 35.984 39.2166 35.9897C39.2166 35.9954 39.2166 36.0011 39.2166 36.0068C39.2166 36.0126 39.2166 36.0183 39.2166 36.024C39.2166 36.0298 39.2166 36.0355 39.2166 36.0412C39.2166 36.0469 39.2166 36.0527 39.2166 36.0584C39.2166 36.0641 39.2166 36.0699 39.2166 36.0756C39.2166 36.0813 39.2166 36.0871 39.2166 36.0928C39.2166 36.0985 39.2166 36.1043 39.2166 36.11C39.2166 36.1157 39.2166 36.1215 39.2166 36.1272C39.2166 36.133 39.2166 36.1387 39.2166 36.1444C39.2166 36.1502 39.2166 36.1559 39.2166 36.1617C39.2166 36.1674 39.2166 36.1732 39.2166 36.1789C39.2166 36.1847 39.2166 36.1904 39.2166 36.1961C39.2166 36.2019 39.2166 36.2076 39.2166 36.2134C39.2166 36.2191 39.2166 36.2249 39.2166 36.2306C39.2166 36.2364 39.2166 36.2421 39.2166 36.2479C39.2166 36.2536 39.2166 36.2594 39.2166 36.2651C39.2166 36.2709 39.2166 36.2766 39.2166 36.2824C39.2166 36.2882 39.2166 36.2939 39.2166 36.2997C39.2166 36.3054 39.2166 36.3112 39.2166 36.3169C39.2166 36.3227 39.2166 36.3284 39.2166 36.3342C39.2166 36.34 39.2166 36.3457 39.2166 36.3515C39.2166 36.3572 39.2166 36.363 39.2166 36.3687C39.2166 36.3745 39.2166 36.3803 39.2166 36.386C39.2166 36.3918 39.2166 36.3975 39.2166 36.4033C39.2166 36.409 39.2166 36.4148 39.2166 36.4206C39.2166 36.4263 39.2166 36.4321 39.2166 36.4378C39.2166 36.4436 39.2166 36.4494 39.2166 36.4551C39.2166 36.4609 39.2166 36.4666 39.2166 36.4724C39.2166 36.4782 39.2166 36.4839 39.2166 36.4897C39.2166 36.4954 39.2166 36.5012 39.2166 36.507C39.2166 36.5127 39.2166 36.5185 39.2166 36.5243C39.2166 36.53 39.2166 36.5358 39.2166 36.5415C39.2166 36.5473 39.2166 36.5531 39.2166 36.5588C39.2166 36.5646 39.2166 36.5703 39.2166 36.5761C39.2166 36.5819 39.2166 36.5876 39.2166 36.5934C39.2166 36.5991 39.2166 36.6049 39.2166 36.6107C39.2166 36.6164 39.2166 36.6222 39.2166 36.6279C39.2166 36.6337 39.2166 36.6395 39.2166 36.6452C39.2166 36.651 39.2166 36.6567 39.2166 36.6625C39.2166 36.6682 39.2166 36.674 39.2166 36.6798C39.2166 36.6855 39.2166 36.6913 39.2166 36.697C39.2166 36.7028 39.2166 36.7085 39.2166 36.7143C39.2166 36.72 39.2166 36.7258 39.2166 36.7316C39.2166 36.7373 39.2166 36.7431 39.2166 36.7488C39.2166 36.7546 39.2166 36.7603 39.2166 36.7661C39.2166 36.7718 39.2166 36.7776 39.2166 36.7833C39.2166 36.7891 39.2166 36.7948 39.2166 36.8006C39.2166 36.8063 39.2166 36.8121 39.2166 36.8178C39.2166 36.8236 39.2166 36.8293 39.2166 36.835C39.2166 36.8408 39.2166 36.8465 39.2166 36.8523C39.2166 36.858 39.2166 36.8638 39.2166 36.8695C39.2166 36.8753 39.2166 36.881 39.2166 36.8867C39.2166 36.8925 39.2166 36.8982 39.2166 36.904C39.2166 36.9097 39.2166 36.9154 39.2166 36.9212C39.2166 36.9269 39.2166 36.9326 39.2166 36.9384C39.2166 36.9441 39.2166 36.9498 39.2166 36.9556C39.2166 36.9613 39.2166 36.967 39.2166 36.9728C39.2166 36.9785 39.2166 36.9842 39.2166 36.9899C39.2166 36.9957 39.2166 37.0014 39.2166 37.0071C39.2166 37.0129 39.2166 37.0186 39.2166 37.0243C39.2166 37.03 39.2166 37.0357 39.2166 37.0415C39.2166 37.0472 39.2166 37.0529 39.2166 37.0586C39.2166 37.0643 39.2166 37.0701 39.2166 37.0758C39.2166 37.0815 39.2166 37.0872 39.2166 37.0929C39.2166 37.0986 39.2166 37.1043 39.2166 37.11C39.2166 37.1157 39.2166 37.1215 39.2166 37.1272C39.2166 37.1329 39.2166 37.1386 39.2166 37.1443C39.2166 37.15 39.2166 37.1557 39.2166 37.1614C39.2166 37.1671 39.2166 37.1728 39.2166 37.1785C39.2166 37.1842 39.2166 37.1899 39.2166 37.1955C39.2166 37.2012 39.2166 37.2069 39.2166 37.2126C39.2166 37.2183 39.2166 37.224 39.2166 37.2297C39.2166 37.2354 39.2166 37.2411 39.2166 37.2467C39.2166 37.2524 39.2166 37.2581 39.2166 37.2638C39.2166 37.2695 39.2166 37.2751 39.2166 37.2808C39.2166 37.2865 39.2166 37.2921 39.2166 37.2978C39.2166 37.3035 39.2166 37.3092 39.2166 37.3148C39.2166 37.3205 39.2166 37.3262 39.2166 37.3318C39.2166 37.3375 39.2166 37.3431 39.2166 37.3488C39.2166 37.3545 39.2166 37.3601 39.2166 37.3658C39.2166 37.3714 39.2166 37.3771 39.2166 37.3827C39.2166 37.3884 39.2166 37.394 39.2166 37.3997C39.2166 37.4053 39.2166 37.411 39.2166 37.4166C39.2166 37.4222 39.2166 37.4279 39.2166 37.4335C39.2166 37.4391 39.2166 37.4448 39.2166 37.4504C39.2166 37.456 39.2166 37.4617 39.2166 37.4673C39.2166 37.4729 39.2166 37.4785 39.2166 37.4842C39.2166 37.4898 39.2166 37.4954 39.2166 37.501C39.2166 37.5066 39.2166 37.5123 39.2166 37.5179C39.2166 37.5235 39.2166 37.5291 39.2166 37.5347C39.2166 37.5403 39.2166 37.5459 39.2166 37.5515C39.2166 37.5571 39.2166 37.5627 39.2166 37.5683C39.2166 37.5739 39.2166 37.5795 39.2166 37.5851C39.2166 37.5907 39.2166 37.5963 39.2166 37.6019C39.2166 37.6074 39.2166 37.613 39.2166 37.6186C39.2166 37.6242 39.2166 37.6298 39.2166 37.6353C39.2166 37.6409 39.2166 37.6465 39.2166 37.6521C39.2166 37.6576 39.2166 37.6632 39.2166 37.6687C39.2166 37.6743 39.2166 37.6799 39.2166 37.6854C39.2166 37.691 39.2166 37.6965 39.2166 37.7021C39.2166 37.7076 39.2166 37.7132 39.2166 37.7187C39.2166 37.7243 39.2166 37.7298 39.2166 37.7354C39.2166 37.7409 39.2166 37.7464 39.2166 37.752C39.2166 37.7575 39.2166 37.763 39.2166 37.7686C39.2166 37.7741 39.2166 37.7796 39.2166 37.7851C39.2166 37.7906 39.2166 37.7962 39.2166 37.8017C39.2166 37.8072 39.2166 37.8127 39.2166 37.8182C39.2166 37.8237 39.2166 37.8292 39.2166 37.8347C39.2166 37.8402 39.2166 37.8457 39.2166 37.8512C39.2166 37.8567 39.2166 37.8622 39.2166 37.8677C39.2166 37.8732 39.2166 37.8787 39.2166 37.8841C39.2166 37.8896 39.2166 37.8951 39.2166 37.9006C39.2166 37.906 39.2166 37.9115 39.2166 37.917C39.2166 37.9224 39.2166 37.9279 39.2166 37.9334C39.2166 37.9388 39.2166 37.9443 39.2166 37.9497C39.2166 37.9552 39.2166 37.9606 39.2166 37.9661C39.2166 37.9715 39.2166 37.9769 39.2166 37.9824C39.2166 37.9878 39.2166 37.9933 39.2166 37.9987C39.2166 38.0041 39.2166 38.0095 39.2166 38.015C39.2166 38.0204 39.2166 38.0258 39.2166 38.0312C39.2166 38.0366 39.2166 38.042 39.2166 38.0474C39.2166 38.0528 39.2166 38.0583 39.2166 38.0636C39.2166 38.069 39.2166 38.0744 39.2166 38.0798C39.2166 38.0852 39.2166 38.0906 39.2166 38.096C39.2166 38.1014 39.2166 38.1068 39.2166 38.1121C39.2166 38.1175 39.2166 38.1229 39.2166 38.1282C39.2166 38.1336 39.2166 38.139 39.2166 38.1443C39.2166 38.1497 39.2166 38.155 39.2166 38.1604C39.2166 38.1657 39.2166 38.1711 39.2166 38.1764C39.2166 38.1818 39.2166 38.1871 39.2166 38.1924C39.2166 38.1978 39.2166 38.2031 39.2166 38.2084C39.2166 38.2137 39.2166 38.2191 39.2166 38.2244C39.2166 38.2297 39.2166 38.235 39.2166 38.2403C39.2166 38.2456 39.2166 38.2509 39.2166 38.2562C39.2166 38.2615 39.2166 38.2668 39.2166 38.2721C39.2166 38.2774 39.2166 38.2827 39.2166 38.2879C39.2166 38.2932 39.2166 38.2985 39.2166 38.3038C39.2166 38.309 39.2166 38.3143 39.2166 38.3196C39.2166 38.3248 39.2166 38.3301 39.2166 38.3353C39.2166 38.3406 39.2166 38.3458 39.2166 38.3511C39.2166 38.3563 39.2166 38.3615 39.2166 38.3668C39.2166 38.372 39.2166 38.3772 39.2166 38.3825C39.2166 38.3877 39.2166 38.3929 39.2166 38.3981C39.2166 38.4033 39.2166 38.4085 39.2166 38.4137C39.2166 38.4189 39.2166 38.4241 39.2166 38.4293C39.2166 38.4345 39.2166 38.4397 39.2166 38.4449C39.2166 38.4501 39.2166 38.4553 39.2166 38.4604C39.2166 38.4656 39.2166 38.4708 39.2166 38.476C39.2166 38.4811 39.2166 38.4863 39.2166 38.4914C39.2166 38.4966 39.2166 38.5017 39.2166 38.5069C39.2166 38.512 39.2166 38.5172 39.2166 38.5223C39.2166 38.5274 39.2166 38.5326 39.2166 38.5377C39.2166 38.5428 39.2166 38.5479 39.2166 38.553C39.2166 38.5581 39.2166 38.5632 39.2166 38.5683C39.2166 38.5734 39.2166 38.5785 39.2166 38.5836C39.2166 38.5887 39.2166 38.5938 39.2166 38.5989C39.2166 38.604 39.2166 38.609 39.2166 38.6141C39.2166 38.6192 39.2166 38.6242 39.2166 38.6293C39.2166 38.6344 39.2166 38.6394 39.2166 38.6445C39.2166 38.6495 39.2166 38.6546 39.2166 38.6596C39.2166 38.6646 39.2166 38.6697 39.2166 38.6747C39.2166 38.6797 39.2166 38.6847 39.2166 38.6897C39.2166 38.6948 39.2166 38.6998 39.2166 38.7048C39.2166 38.7098 39.2166 38.7148 39.2166 38.7198C39.2166 38.7247 39.2166 38.7297 39.2166 38.7347C39.2166 38.7397 39.2166 38.7447 39.2166 38.7496C39.2166 38.7546 39.2166 38.7596 39.2166 38.7645C39.2166 38.7695 39.2166 38.7744 39.2166 38.7794C39.2166 38.7843 39.2166 38.7893 39.2166 38.7942C39.2166 38.7991 39.2166 38.804 39.2166 38.809C39.2166 38.8139 39.2166 38.8188 39.2166 38.8237C39.2166 38.8286 39.2166 38.8335 39.2166 38.8384C39.2166 38.8433 39.2166 38.8482 39.2166 38.8531C39.2166 38.858 39.2166 38.8628 39.2166 38.8677C39.2166 38.8726 39.2166 38.8775 39.2166 38.8823C39.2166 38.8872 39.2166 38.892 39.2166 38.8969C39.2166 38.9017 39.2166 38.9066 39.2166 38.9114C39.2166 38.9162 39.2166 38.9211 39.2166 38.9259C39.2166 38.9307 39.2166 38.9355 39.2166 38.9403C39.2166 38.9451 39.2166 38.9499 39.2166 38.9547C39.2166 38.9595 39.2166 38.9643 39.2166 38.9691C39.2166 38.9739 39.2166 38.9787 39.2166 38.9834C39.2166 38.9882 39.2166 38.993 39.2166 38.9977C39.2166 39.0025 39.2166 39.0072 39.2166 39.012C39.2166 39.0167 39.2166 39.0214 39.2166 39.0262C39.2166 39.0309 39.2166 39.0356 39.2166 39.0403C39.2166 39.0451 39.2166 39.0498 39.2166 39.0545C39.2166 39.0592 39.2166 39.0639 39.2166 39.0686C39.2166 39.0733 39.2166 39.0779 39.2166 39.0826C39.2166 39.0873 39.2166 39.092 39.2166 39.0966C39.2166 39.1013 39.2166 39.1059 39.2166 39.1106C39.2166 39.1152 39.2166 39.1199 39.2166 39.1245C39.2166 39.1292 39.2166 39.1338 39.2166 39.1384C39.2166 39.143 39.2166 39.1476 39.2166 39.1523C39.2166 39.1569 39.2166 39.1615 39.2166 39.1661C39.2166 39.1706 39.2166 39.1752 39.2166 39.1798C39.2166 39.1844 39.2166 39.189 39.2166 39.1935C39.2166 39.1981 39.2166 39.2026 39.2166 39.2072C39.2166 39.2117 39.2166 39.2163 39.2166 39.2208C39.2166 39.2254 39.2166 39.2299 39.2166 39.2344C39.2166 39.2389 39.2166 39.2434 39.2166 39.248C39.2166 39.2525 39.2166 39.257 39.2166 39.2615C39.2166 39.2659 39.2166 39.2704 39.2166 39.2749C39.2166 39.2794 39.2166 39.2839 39.2166 39.2883C39.2166 39.2928 39.2166 39.2972 39.2166 39.3017C39.2166 39.3061 39.2166 39.3106 39.2166 39.315C39.2166 39.3194 39.2166 39.3239 39.2166 39.3283C39.2166 39.3327 39.2166 39.3371 39.2166 39.3415C39.2166 39.3459 39.2166 39.3503 39.2166 39.3547C39.2166 39.3591 39.2166 39.3634 39.2166 39.3678C39.2166 39.3722 39.2166 39.3765 39.2166 39.3809C39.2166 39.3853 39.2166 39.3896 39.2166 39.3939C39.2166 39.3983 39.2166 39.4026 39.2166 39.4069C39.2166 39.4113 39.2166 39.4156 39.2166 39.4199C39.2166 39.4242 39.2166 39.4285 39.2166 39.4328C39.2166 39.4371 39.2166 39.4414 39.2166 39.4456C39.2166 39.4499 39.2166 39.4542 39.2166 39.4585C39.2166 39.4627 39.2166 39.467 39.2166 39.4712C39.2166 39.4755 39.2166 39.4797 39.2166 39.4839C39.2166 39.4881 39.2166 39.4924 39.2166 39.4966C39.2166 39.5008 39.2166 39.505 39.2166 39.5092C39.2166 39.5134 39.2166 39.5176 39.2166 39.5218C39.2166 39.5259 39.2166 39.5301 39.2166 39.5343C39.2166 39.5384 39.2166 39.5426 39.2166 39.5467C39.2166 39.5509 39.2166 39.555 39.2166 39.5591C39.2166 39.5633 39.2166 39.5674 39.2166 39.5715C39.2166 39.5756 39.2166 39.5797 39.2166 39.5838C39.2166 39.5879 39.2166 39.592 39.2166 39.5961C39.2166 39.6002 39.2166 39.6042 39.2166 39.6083C39.2166 39.6124 39.2166 39.6164 39.2166 39.6204C39.2166 39.6245 39.2166 39.6285 39.2166 39.6326C39.2166 39.6366 39.2166 39.6406 39.2166 39.6446C39.2166 39.6486 39.2166 39.6526 39.2166 39.6566C39.2166 39.6606 39.2166 39.6646 39.2166 39.6686C39.2166 39.6725 39.2166 39.6765 39.2166 39.6805C39.2166 39.6844 39.2166 39.6884 39.2166 39.6923C39.2166 39.6963 39.2166 39.7002 39.2166 39.7041C39.2166 39.708 39.2166 39.7119 39.2166 39.7158C39.2166 39.7198 39.2166 39.7236 39.2166 39.7275C39.2166 39.7314 39.2166 39.7353 39.2166 39.7392C39.2166 39.743 39.2166 39.7469 39.2166 39.7507C39.2166 39.7546 39.2166 39.7584 39.2166 39.7623C39.2166 39.7661 39.2166 39.7699 39.2166 39.7737C39.2166 39.7776 39.2166 39.7814 39.2166 39.7852C39.2166 39.789 39.2166 39.7927 39.2166 39.7965C39.2166 39.8003 39.2166 39.8041 39.2166 39.8078C39.2166 39.8116 39.2166 39.8153 39.2166 39.8191C39.2166 39.8228 39.2166 39.8265 39.2166 39.8303C39.2166 39.834 39.2166 39.8377 39.2166 39.8414C39.2166 39.8451 39.2166 39.8488 39.2166 39.8525C39.2166 39.8562 39.2166 39.8598 39.2166 39.8635C39.2166 39.8672 39.2166 39.8708 39.2166 39.8745C39.2166 39.8781 39.2166 39.8817 39.2166 39.8854C39.2166 39.889 39.2166 39.8926 39.2166 39.8962C39.2166 39.8998 39.2166 39.9034 39.2166 39.907C39.2166 39.9106 39.2166 39.9142 39.2166 39.9178C39.2166 39.9213 39.2166 39.9249 39.2166 39.9284C39.2166 39.932 39.2166 39.9355 39.2166 39.9391C39.2166 39.9426 39.2166 39.9461 39.2166 39.9496C39.2166 39.9531 39.2166 39.9566 39.2166 39.9601C39.2166 39.9636 39.2166 39.9671 39.2166 39.9706C39.2166 39.974 39.2166 39.9775 39.2166 39.9809C39.2166 39.9844 39.2166 39.9878 39.2166 39.9913C39.2166 39.9947 39.2166 39.9981 39.2166 40.0015C39.2166 40.0049 39.2166 40.0083 39.2166 40.0117C39.2166 40.0151 39.2166 40.0185 39.2166 40.0219C39.2166 40.0252 39.2166 40.0286 39.2166 40.032C39.2166 40.0353 39.2166 40.0386 39.2166 40.042C39.2166 40.0453 39.2166 40.0486 39.2166 40.0519C39.2166 40.0552 39.2166 40.0585 39.2166 40.0618C39.2166 40.0651 39.2166 40.0684 39.2166 40.0717C39.2166 40.0749 39.2166 40.0782 39.2166 40.0814C39.2166 40.0847 39.2166 40.0879 39.2166 40.0912C39.2166 40.0944 39.2166 40.0976 39.2166 40.1008C39.2166 40.104 39.2166 40.1072 39.2166 40.1104C39.2166 40.1136 39.2166 40.1167 39.2166 40.1199C39.2166 40.1231 39.2166 40.1262 39.2166 40.1294C39.2166 40.1325 39.2166 40.1356 39.2166 40.1388C39.2166 40.1419 39.2166 40.145 39.2166 40.1481C39.2166 40.1512 39.2166 40.1543 39.2166 40.1574C39.2166 40.1604 39.2166 40.1635 39.2166 40.1666C39.2166 40.1696 39.2166 40.1727 39.2166 40.1757C39.2166 40.1787 39.2166 40.1818 39.2166 40.1848C39.2166 40.1878 39.2166 40.1908 39.2166 40.1938C39.2166 40.1968 39.2166 40.1998 39.2166 40.2027C39.2166 40.2057 39.2166 40.2087 39.2166 40.2116C39.2166 40.2146 39.2166 40.2175 39.2166 40.2204C39.2166 40.2233 39.2166 40.2263 39.2166 40.2292C39.2166 40.2321 39.2166 40.235 39.2166 40.2378C39.2166 40.2407 39.2166 40.2436 39.2166 40.2465C39.2166 40.2493 39.2166 40.2522 39.2166 40.255C39.2166 40.2578 39.2166 40.2607 39.2166 40.2635C39.2166 40.2663 39.2166 40.2691 39.2166 40.2719C39.2166 40.2747 39.2166 40.2775 39.2166 40.2802C39.2166 40.283 39.2166 40.2858 39.2166 40.2885C39.2166 40.2912 39.2166 40.294 39.2166 40.2967C39.2166 40.2994 39.2166 40.3021 39.2166 40.3048C39.2166 40.3075 39.2166 40.3102 39.2166 40.3129C39.2166 40.3156 39.2166 40.3183 39.2166 40.3209C39.2166 40.3236 39.2166 40.3262 39.2166 40.3288C39.2166 40.3315 39.2166 40.3341 39.2166 40.3367C39.2166 40.3393 39.2166 40.3419 39.2166 40.3445C39.2166 40.3471 39.2166 40.3497 39.2166 40.3522C39.2166 40.3548 39.2166 40.3573 39.2166 40.3599C39.2166 40.3624 39.2166 40.3649 39.2166 40.3674C39.2166 40.37 39.2166 40.3725 39.2166 40.375C39.2166 40.3774 39.2166 40.3799 39.2166 40.3824C39.2166 40.3849 39.2166 40.3873 39.2166 40.3898C39.2166 40.3922 39.2166 40.3946 39.2166 40.3971C39.2166 40.3995 39.2166 40.4019 39.2166 40.4043C39.2166 40.4067 39.2166 40.4091 39.2166 40.4114C39.2166 40.4138 39.2166 40.4162 39.2166 40.4185C39.2166 40.4209 39.2166 40.4232 39.2166 40.4255C39.2166 40.4278 39.2166 40.4301 39.2166 40.4324C39.2166 40.4347 39.2166 40.437 39.2166 40.4393C39.2166 40.4416 39.2166 40.4438 39.2166 40.4461C39.2166 40.4483 39.2166 40.4506 39.2166 40.4528C39.2166 40.455 39.2166 40.4572 39.2166 40.4594C39.2166 40.4616 39.2166 40.4638 39.2166 40.466C39.2166 40.4682 39.2166 40.4703 39.2166 40.4725C39.2166 40.4747 39.2166 40.4768 39.2166 40.4789C39.2166 40.481 39.2166 40.4832 39.2166 40.4853C39.2166 40.4874 39.2166 40.4894 39.2166 40.4915C39.2166 40.4936 39.2166 40.4957 39.2166 40.4977C39.2166 40.4998 39.2166 40.5018 39.2166 40.5038C39.2166 40.5058 39.2166 40.5079 39.2166 40.5099C39.2166 40.5119 39.2166 40.5139 39.2166 40.5158C39.2166 40.5178 39.2166 40.5198 39.2166 40.5217C39.2166 40.5237 39.2166 40.5256 39.2166 40.5275C39.2166 40.5294 39.2166 40.5313 39.2166 40.5332C39.2166 40.5351 39.2166 40.537 39.2166 40.5389C39.2166 40.5408 39.2166 40.5426 39.2166 40.5445C39.2166 40.5463 39.2166 40.5482 39.2166 40.55C39.2166 40.5518 39.2166 40.5536 39.2166 40.5554C39.2166 40.5572 39.2166 40.559 39.2166 40.5607C39.2166 40.5625 39.2166 40.5643 39.2166 40.566C39.2166 40.5677 39.2166 40.5695 39.2166 40.5712C39.2166 40.5729 39.2166 40.5746 39.2166 40.5763C39.2166 40.578 39.2166 40.5797 39.2166 40.5813C39.2166 40.583 39.2166 40.5846 39.2166 40.5863C39.2166 40.5879 39.2166 40.5895 39.2166 40.5911H41.2166ZM40.5324 34.3317L45.1737 32.787L44.5422 30.8894L39.9008 32.434L40.5324 34.3317ZM44.4113 32.7329C45.4327 33.2428 47.6973 33.5058 49.6901 31.5161L48.277 30.1008C46.9693 31.4064 45.6584 31.1201 45.3046 30.9435L44.4113 32.7329ZM49.9536 31.0513L51.5007 24.8726L49.5606 24.3868L48.0135 30.5655L49.9536 31.0513ZM26.3475 30.9507C26.1351 31.0609 25.7519 31.1844 25.3761 31.1733C25.0374 31.1633 24.7511 31.0526 24.5259 30.7395L22.9022 31.9072C23.5657 32.8298 24.4959 33.1481 25.3169 33.1724C26.1008 33.1956 26.8203 32.9587 27.2691 32.7257L26.3475 30.9507ZM24.5259 30.7395C24.1515 30.2188 23.5819 29.07 22.9954 27.7505C22.4237 26.4645 21.8787 25.116 21.5529 24.2703L19.6866 24.9892C20.0219 25.8598 20.5798 27.2402 21.1678 28.563C21.7409 29.8523 22.388 31.1921 22.9022 31.9072L24.5259 30.7395ZM35.5753 18.9959C32.4612 18.9959 29.934 21.5167 29.934 24.6297H31.934C31.934 22.6243 33.5627 20.9959 35.5753 20.9959L35.5753 18.9959ZM41.2166 24.6296C41.2165 21.5166 38.6893 18.9958 35.5753 18.9959L35.5753 20.9959C37.5878 20.9959 39.2166 22.6243 39.2166 24.6297L41.2166 24.6296ZM29.934 24.6297C29.934 26.9713 31.3639 28.9759 33.3937 29.8266L34.1667 27.982C32.8526 27.4313 31.934 26.1359 31.934 24.6297H29.934ZM33.3937 29.8266C34.0661 30.1084 34.8038 30.2636 35.5753 30.2636L35.5753 28.2636C35.0739 28.2636 34.5987 28.1631 34.1667 27.982L33.3937 29.8266ZM28.5439 28.1492L33.453 29.8492L34.1075 27.9594L29.1983 26.2593L28.5439 28.1492ZM35.5753 30.2636C36.5782 30.2636 37.5228 30.0014 38.341 29.541L37.3603 27.798C36.8338 28.0942 36.2259 28.2636 35.5753 28.2636L35.5753 30.2636ZM38.341 29.541C40.0548 28.5768 41.2166 26.7397 41.2166 24.6296L39.2166 24.6297C39.2166 25.9872 38.471 27.173 37.3603 27.798L38.341 29.541ZM42.511 26.2455L37.5666 27.7107L38.1348 29.6283L43.0792 28.163L42.511 26.2455ZM34.5753 42.1359V50.374H36.5753V42.1359H34.5753Z" fill="#44240C"/>
</svg>
