<svg width="59" height="52" viewBox="0 0 59 52" fill="none" xmlns="http://www.w3.org/2000/svg">
<path opacity="0.5" d="M34.7231 23.1353V22.1353V23.1353ZM13.0559 34.1429V33.1429V34.1429ZM13.0559 42.7575V43.7575V42.7575ZM6.79643 21.6996L7.37534 20.8842C7.34946 20.8658 7.32271 20.8487 7.2952 20.8328L6.79643 21.6996ZM9.68539 26.0069L10.6851 25.9813L9.68539 26.0069ZM7.27793 30.3142L8.02755 30.976L7.27793 30.3142ZM3.42598 33.1857L2.63865 32.5692L3.42598 33.1857ZM18.8338 50.8935L18.9273 49.8979L18.8338 50.8935ZM37.612 43.7146L38.3258 44.415L37.612 43.7146ZM42.427 37.0144L43.3203 37.4638L42.427 37.0144ZM42.4557 17.7488C42.6526 18.2648 43.2305 18.5235 43.7465 18.3266C44.2625 18.1296 44.5212 17.5517 44.3242 17.0357L42.4557 17.7488ZM25.5747 2.07744L25.788 1.10045L25.5747 2.07744ZM4.87046 6.86332L4.03988 6.30642L4.87046 6.86332ZM42.427 19.785L41.8153 18.9938C41.788 19.015 41.7617 19.0376 41.7366 19.0615L42.427 19.785ZM55.4273 9.73463L55.1129 8.78533C55.0056 8.82087 54.9051 8.87434 54.8157 8.94348L55.4273 9.73463ZM23.6487 35.5784L22.6565 35.4536L23.6487 35.5784ZM21.7227 42.2787L22.521 42.8809L21.7227 42.2787ZM18.8338 43.7146L19.1483 42.7654C18.65 42.6003 18.1089 42.8486 17.9091 43.334C17.7092 43.8194 17.9187 44.3766 18.3888 44.6102L18.8338 43.7146ZM25.0932 44.6716L25.2337 45.6617L25.0932 44.6716ZM11.6114 10.1706C8.93743 10.1706 6.75942 12.3268 6.75942 14.9993H8.75942C8.75942 13.4428 10.0306 12.1706 11.6114 12.1706V10.1706ZM6.75942 14.9993C6.75942 17.6718 8.93743 19.828 11.6114 19.828V17.828C10.0306 17.828 8.75942 16.5559 8.75942 14.9993H6.75942ZM11.6114 19.828C14.2853 19.828 16.4633 17.6718 16.4633 14.9993H14.4633C14.4633 16.5559 13.1922 17.828 11.6114 17.828V19.828ZM16.4633 14.9993C16.4633 12.3268 14.2853 10.1706 11.6114 10.1706V12.1706C13.1922 12.1706 14.4633 13.4428 14.4633 14.9993H16.4633ZM24.1302 6.8205C21.4563 6.8205 19.2783 8.97669 19.2783 11.6492H21.2783C21.2783 10.0927 22.5494 8.8205 24.1302 8.8205V6.8205ZM19.2783 11.6492C19.2783 14.3217 21.4563 16.4779 24.1302 16.4779V14.4779C22.5494 14.4779 21.2783 13.2058 21.2783 11.6492H19.2783ZM24.1302 16.4779C26.8042 16.4779 28.9822 14.3217 28.9822 11.6492H26.9822C26.9822 13.2058 25.711 14.4779 24.1302 14.4779V16.4779ZM28.9822 11.6492C28.9822 8.97669 26.8042 6.8205 24.1302 6.8205V8.8205C25.711 8.8205 26.9822 10.0927 26.9822 11.6492H28.9822ZM34.7231 14.4779C32.0491 14.4779 29.8711 16.6341 29.8711 19.3066H31.8711C31.8711 17.7501 33.1423 16.4779 34.7231 16.4779V14.4779ZM29.8711 19.3066C29.8711 21.9791 32.0491 24.1353 34.7231 24.1353V22.1353C33.1423 22.1353 31.8711 20.8632 31.8711 19.3066H29.8711ZM34.7231 24.1353C37.397 24.1353 39.575 21.9791 39.575 19.3066H37.575C37.575 20.8632 36.3039 22.1353 34.7231 22.1353V24.1353ZM39.575 19.3066C39.575 16.6341 37.397 14.4779 34.7231 14.4779V16.4779C36.3039 16.4779 37.575 17.7501 37.575 19.3066H39.575ZM13.0559 33.1429C10.116 33.1429 7.72241 35.5133 7.72241 38.4502H9.72241C9.72241 36.6293 11.2091 35.1429 13.0559 35.1429V33.1429ZM7.72241 38.4502C7.72241 41.387 10.116 43.7575 13.0559 43.7575V41.7575C11.2091 41.7575 9.72241 40.271 9.72241 38.4502H7.72241ZM13.0559 43.7575C15.9957 43.7575 18.3893 41.387 18.3893 38.4502H16.3893C16.3893 40.271 14.9026 41.7575 13.0559 41.7575V43.7575ZM18.3893 38.4502C18.3893 35.5133 15.9957 33.1429 13.0559 33.1429V35.1429C14.9026 35.1429 16.3893 36.6293 16.3893 38.4502H18.3893ZM1.61275 18.3973C2.35448 19.5953 3.55885 20.6427 4.508 21.3605C4.99388 21.728 5.43665 22.0266 5.75867 22.2339C5.92001 22.3377 6.05189 22.4192 6.14475 22.4754C6.1912 22.5036 6.22795 22.5254 6.25382 22.5407C6.26676 22.5483 6.27698 22.5543 6.28433 22.5586C6.28801 22.5607 6.29097 22.5624 6.2932 22.5637C6.29431 22.5644 6.29524 22.5649 6.29599 22.5653C6.29636 22.5656 6.29669 22.5657 6.29697 22.5659C6.29711 22.566 6.29728 22.5661 6.29735 22.5661C6.29751 22.5662 6.29767 22.5663 6.79643 21.6996C7.2952 20.8328 7.29533 20.8329 7.29544 20.833C7.29547 20.833 7.29557 20.833 7.29562 20.8331C7.29571 20.8331 7.29576 20.8332 7.29576 20.8332C7.29577 20.8332 7.29559 20.8331 7.29523 20.8329C7.29452 20.8324 7.29309 20.8316 7.29096 20.8304C7.28669 20.8279 7.27963 20.8238 7.26992 20.818C7.25049 20.8066 7.22048 20.7887 7.18104 20.7648C7.10212 20.717 6.98572 20.6452 6.84111 20.5521C6.55124 20.3655 6.15139 20.0958 5.7144 19.7653C4.81783 19.0873 3.85548 18.2203 3.31323 17.3445L1.61275 18.3973ZM6.21752 22.515C6.7429 22.888 7.36744 23.3964 7.85974 24.0164C8.35078 24.6347 8.66721 25.3083 8.68572 26.0324L10.6851 25.9813C10.6519 24.6844 10.0856 23.6032 9.42595 22.7726C8.76755 21.9435 7.97344 21.3088 7.37534 20.8842L6.21752 22.515ZM8.68572 26.0324C8.72227 27.4621 7.94922 28.043 6.5283 29.6523L8.02755 30.976C9.16057 29.6928 10.7469 28.399 10.6851 25.9813L8.68572 26.0324ZM6.5283 29.6523C6.04276 30.2022 5.52524 30.4767 4.84521 30.8435C4.17098 31.2072 3.35418 31.6554 2.63865 32.5692L4.2133 33.8022C4.65273 33.2411 5.14175 32.9559 5.79468 32.6038C6.44181 32.2547 7.27279 31.8309 8.02755 30.976L6.5283 29.6523ZM2.63865 32.5692C1.14814 34.4725 0.5 36.6966 0.5 38.4502H2.5C2.5 37.1408 3.00012 35.3515 4.2133 33.8022L2.63865 32.5692ZM0.5 38.4502C0.5 39.6136 0.925516 40.9612 1.42972 42.0888C1.93265 43.2136 2.59484 44.2985 3.20251 44.9025L4.61243 43.484C4.25711 43.1308 3.71557 42.3013 3.25551 41.2724C2.79672 40.2464 2.5 39.2011 2.5 38.4502H0.5ZM3.20251 44.9025C4.2161 45.91 5.76416 47.4385 9.29349 48.9419L10.0773 47.1019C6.86572 45.7338 5.52482 44.3909 4.61243 43.484L3.20251 44.9025ZM9.29349 48.9419C12.6121 50.3556 14.8208 51.5208 18.7402 51.8891L18.9273 49.8979C15.3868 49.5652 13.4996 48.5598 10.0773 47.1019L9.29349 48.9419ZM18.7402 51.8891C23.4725 52.3337 27.7721 51.3967 30.8347 49.8746L29.9446 48.0836C27.2293 49.4331 23.3046 50.3092 18.9273 49.8979L18.7402 51.8891ZM30.8347 49.8746C33.2333 48.6826 35.7965 46.9927 38.3258 44.415L36.8983 43.0143C34.5433 45.4142 32.1683 46.9785 29.9446 48.0836L30.8347 49.8746ZM38.3258 44.415C40.6627 42.0334 42.122 39.8459 43.3203 37.4638L41.5336 36.565C40.4208 38.7773 39.0789 40.7919 36.8983 43.0143L38.3258 44.415ZM43.3203 37.4638C44.0932 35.9274 44.8366 33.5678 45.3829 31.3956C45.9245 29.2424 46.3159 27.1007 46.3159 26.0069H44.3159C44.3159 26.8274 43.9851 28.7536 43.4433 30.9078C42.9063 33.0429 42.2052 35.2299 41.5336 36.565L43.3203 37.4638ZM44.3242 17.0357C43.3765 14.5523 41.0707 11.0954 37.8842 8.01634C34.6909 4.9307 30.5194 2.13334 25.788 1.10045L25.3614 3.05443C29.6142 3.98284 33.4676 6.52971 36.4945 9.45459C39.5282 12.386 41.6379 15.6059 42.4557 17.7488L44.3242 17.0357ZM25.788 1.10045C21.6997 0.207962 17.528 -0.344775 13.7543 0.243781C9.93537 0.839408 6.52028 2.60705 4.03988 6.30642L5.70104 7.42022C7.8243 4.2535 10.7073 2.74319 14.0625 2.21989C17.4631 1.68952 21.3416 2.17689 25.3614 3.05443L25.788 1.10045ZM4.03988 6.30642C2.74007 8.245 1.77011 10.5943 1.28896 12.7437C1.04802 13.82 0.923307 14.8741 0.952801 15.8219C0.981825 16.7545 1.1628 17.6705 1.61275 18.3973L3.31323 17.3445C3.12119 17.0343 2.97529 16.5134 2.95183 15.7597C2.92885 15.0211 3.02604 14.1393 3.24066 13.1806C3.67063 11.2598 4.54639 9.1423 5.70104 7.42022L4.03988 6.30642ZM31.08 31.9946L43.1173 20.5085L41.7366 19.0615L29.6993 30.5476L31.08 31.9946ZM43.0386 20.5761L56.0389 10.5258L54.8157 8.94348L41.8153 18.9938L43.0386 20.5761ZM55.7417 10.6839C55.9326 10.6207 56.1457 10.5697 56.3314 10.5493C56.423 10.5391 56.4931 10.5382 56.5411 10.5416C56.5923 10.5452 56.5926 10.5521 56.5612 10.5391C56.5244 10.5238 56.4388 10.4781 56.3644 10.3745C56.2868 10.2666 56.2704 10.164 56.2693 10.118C56.2685 10.0835 56.2763 10.1068 56.2397 10.2085C56.2042 10.3075 56.1366 10.4535 56.0157 10.6538L57.7279 11.6874C58.0453 11.1616 58.2818 10.61 58.2687 10.0697C58.2616 9.77443 58.179 9.47243 57.9886 9.20746C57.8013 8.94684 57.5561 8.78641 57.3268 8.69137C56.9015 8.51517 56.4411 8.52503 56.1121 8.56131C55.7561 8.60057 55.4035 8.68912 55.1129 8.78533L55.7417 10.6839ZM56.0157 10.6538C55.4784 11.5437 53.4831 14.1543 51.1387 17.1326C48.8195 20.0787 46.2229 23.305 44.5399 25.3762L46.092 26.6375C47.7795 24.5609 50.3829 21.3261 52.7102 18.3696C55.0121 15.4454 57.1095 12.7117 57.7279 11.6874L56.0157 10.6538ZM44.5947 25.3142L34.4833 35.8429L35.9258 37.2283L46.0372 26.6995L44.5947 25.3142ZM35.9425 35.8607L31.1275 30.5962L29.6517 31.946L34.4666 37.2105L35.9425 35.8607ZM30.3134 30.274C29.1795 30.3607 27.4598 30.6943 25.9414 31.4379C24.4407 32.1728 22.911 33.4298 22.6565 35.4536L24.6409 35.7032C24.7716 34.6641 25.5692 33.8471 26.821 33.2341C28.0552 32.6297 29.5132 32.341 30.4659 32.2682L30.3134 30.274ZM22.6565 35.4536C22.4092 37.42 22.2984 38.5224 22.077 39.4024C21.8751 40.2051 21.583 40.8035 20.9244 41.6764L22.521 42.8809C23.3069 41.8393 23.737 41.0018 24.0166 39.8903C24.2768 38.8559 24.4067 37.5656 24.6409 35.7032L22.6565 35.4536ZM20.9244 41.6764C20.4505 42.3046 20.0014 42.576 19.6849 42.6906C19.3469 42.8131 19.146 42.7646 19.1483 42.7654L18.5193 44.6639C19.476 44.9809 21.1533 44.6937 22.521 42.8809L20.9244 41.6764ZM18.3888 44.6102C19.4764 45.1505 22.2826 46.0805 25.2337 45.6617L24.9527 43.6815C22.5111 44.0281 20.1171 43.2356 19.2787 42.8191L18.3888 44.6102ZM25.2337 45.6617C26.7556 45.4457 28.741 45.4249 30.6427 44.3447C32.6012 43.2324 34.4014 41.0872 36.1284 36.9183L34.2807 36.1529C32.6372 40.12 31.067 41.8036 29.655 42.6057C28.1863 43.4399 26.8013 43.4192 24.9527 43.6815L25.2337 45.6617Z" fill="#44240C"/>
</svg>
