<svg width="78" height="52" viewBox="0 0 78 52" fill="none" xmlns="http://www.w3.org/2000/svg">
<g opacity="0.5">
<path d="M1.5 24V23C0.947715 23 0.5 23.4477 0.5 24H1.5ZM1.5 51H0.5C0.5 51.5523 0.947715 52 1.5 52L1.5 51ZM51.5 51V52C52.0523 52 52.5 51.5523 52.5 51H51.5ZM51.5 24H52.5C52.5 23.4477 52.0523 23 51.5 23V24ZM0.5 24V51H2.5V24H0.5ZM1.5 52H51.5V50H1.5V52ZM52.5 51V24H50.5V51H52.5ZM51.5 23H1.5V25H51.5V23ZM10.1667 25.6341C7.04866 25.6341 4.5 28.1342 4.5 31.2439H6.5C6.5 29.2618 8.13002 27.6341 10.1667 27.6341V25.6341ZM4.5 31.2439C4.5 34.3536 7.04866 36.8537 10.1667 36.8537V34.8537C8.13002 34.8537 6.5 33.226 6.5 31.2439H4.5ZM10.1667 36.8537C13.2847 36.8537 15.8333 34.3536 15.8333 31.2439H13.8333C13.8333 33.226 12.2033 34.8537 10.1667 34.8537V36.8537ZM15.8333 31.2439C15.8333 28.1342 13.2847 25.6341 10.1667 25.6341V27.6341C12.2033 27.6341 13.8333 29.2618 13.8333 31.2439H15.8333ZM10.1667 37.4878C7.04866 37.4878 4.5 39.9878 4.5 43.0976H6.5C6.5 41.1155 8.13002 39.4878 10.1667 39.4878V37.4878ZM4.5 43.0976C4.5 46.2073 7.04866 48.7073 10.1667 48.7073V46.7073C8.13002 46.7073 6.5 45.0796 6.5 43.0976H4.5ZM10.1667 48.7073C13.2847 48.7073 15.8333 46.2073 15.8333 43.0976H13.8333C13.8333 45.0796 12.2033 46.7073 10.1667 46.7073V48.7073ZM15.8333 43.0976C15.8333 39.9878 13.2847 37.4878 10.1667 37.4878V39.4878C12.2033 39.4878 13.8333 41.1155 13.8333 43.0976H15.8333ZM26.1667 37.4878C23.0487 37.4878 20.5 39.9878 20.5 43.0976H22.5C22.5 41.1155 24.13 39.4878 26.1667 39.4878V37.4878ZM20.5 43.0976C20.5 46.2073 23.0487 48.7073 26.1667 48.7073V46.7073C24.13 46.7073 22.5 45.0796 22.5 43.0976H20.5ZM26.1667 48.7073C29.2847 48.7073 31.8333 46.2073 31.8333 43.0976H29.8333C29.8333 45.0796 28.2033 46.7073 26.1667 46.7073V48.7073ZM31.8333 43.0976C31.8333 39.9878 29.2847 37.4878 26.1667 37.4878V39.4878C28.2033 39.4878 29.8333 41.1155 29.8333 43.0976H31.8333ZM26.1667 25.6341C23.0487 25.6341 20.5 28.1342 20.5 31.2439H22.5C22.5 29.2618 24.13 27.6341 26.1667 27.6341V25.6341ZM20.5 31.2439C20.5 34.3536 23.0487 36.8537 26.1667 36.8537V34.8537C24.13 34.8537 22.5 33.226 22.5 31.2439H20.5ZM26.1667 36.8537C29.2847 36.8537 31.8333 34.3536 31.8333 31.2439H29.8333C29.8333 33.226 28.2033 34.8537 26.1667 34.8537V36.8537ZM31.8333 31.2439C31.8333 28.1342 29.2847 25.6341 26.1667 25.6341V27.6341C28.2033 27.6341 29.8333 29.2618 29.8333 31.2439H31.8333ZM42.1667 25.6341C39.0487 25.6341 36.5 28.1342 36.5 31.2439H38.5C38.5 29.2618 40.13 27.6341 42.1667 27.6341V25.6341ZM36.5 31.2439C36.5 34.3536 39.0487 36.8537 42.1667 36.8537V34.8537C40.13 34.8537 38.5 33.226 38.5 31.2439H36.5ZM42.1667 36.8537C45.2847 36.8537 47.8333 34.3536 47.8333 31.2439H45.8333C45.8333 33.226 44.2033 34.8537 42.1667 34.8537V36.8537ZM47.8333 31.2439C47.8333 28.1342 45.2847 25.6341 42.1667 25.6341V27.6341C44.2033 27.6341 45.8333 29.2618 45.8333 31.2439H47.8333ZM42.1667 37.4878C39.0487 37.4878 36.5 39.9878 36.5 43.0976H38.5C38.5 41.1155 40.13 39.4878 42.1667 39.4878V37.4878ZM36.5 43.0976C36.5 46.2073 39.0487 48.7073 42.1667 48.7073V46.7073C40.13 46.7073 38.5 45.0796 38.5 43.0976H36.5ZM42.1667 48.7073C45.2847 48.7073 47.8333 46.2073 47.8333 43.0976H45.8333C45.8333 45.0796 44.2033 46.7073 42.1667 46.7073V48.7073ZM47.8333 43.0976C47.8333 39.9878 45.2847 37.4878 42.1667 37.4878V39.4878C44.2033 39.4878 45.8333 41.1155 45.8333 43.0976H47.8333Z" fill="#44240C"/>
<path d="M55.4934 5.96945L52.9286 1L43.5 5.63514L66.398 50L75.8265 45.3649L73.1327 40.1455M55.4934 5.96945L58.9898 4.31081L62.3571 10.2703L58.84 12.4534M55.4934 5.96945L58.84 12.4534M58.84 12.4534L62.7405 20.0106M62.7405 20.0106L66.398 18.2162L69.7653 24.8378L66.3265 26.9586M62.7405 20.0106L66.3265 26.9586M66.3265 26.9586L69.8456 33.7769M69.8456 33.7769L73.1327 32.1216L76.5 38.0811L73.1327 40.1455M69.8456 33.7769L73.1327 40.1455" stroke="#44240C" stroke-width="2" stroke-linejoin="round"/>
</g>
</svg>
