<svg width="40" height="52" viewBox="0 0 40 52" fill="none" xmlns="http://www.w3.org/2000/svg">
<path opacity="0.5" d="M10.1604 20.8712C9.80603 20.4476 9.17536 20.3915 8.75176 20.7458C8.32817 21.1002 8.27206 21.7309 8.62644 22.1545L10.1604 20.8712ZM32.9148 13.3364C33.1195 12.8234 32.8696 12.2417 32.3566 12.037C31.8437 11.8323 31.2619 12.0823 31.0572 12.5952L32.9148 13.3364ZM20.7554 51C20.7554 51.5523 21.2031 52 21.7554 52C22.3077 52 22.7554 51.5523 22.7554 51H20.7554ZM36.2488 1L37.163 0.594715C37.0491 0.337829 36.8324 0.140712 36.5659 0.0516075C36.2994 -0.0374967 36.0077 -0.0103649 35.7622 0.126363L36.2488 1ZM2.14673 11.2564L2.32605 10.2726C1.81522 10.1795 1.3181 10.4929 1.1818 10.9939L2.14673 11.2564ZM20.7554 39.0342V51H22.7554V39.0342H20.7554ZM31.0572 12.5952C30.1338 14.9097 28.9227 17.9524 27.6569 21.1442L29.5161 21.8815C30.7813 18.6911 31.9919 15.6497 32.9148 13.3364L31.0572 12.5952ZM27.6569 21.1442C24.6469 28.7341 21.2988 37.2379 20.8065 38.7187L22.7043 39.3497C23.1732 37.9395 26.4872 29.519 29.5161 21.8815L27.6569 21.1442ZM28.1791 22.426C29.5868 23.0542 31.8328 23.5766 33.9799 22.9903C36.2355 22.3744 38.1827 20.5883 38.9326 17.0175L36.9753 16.6065C36.361 19.5313 34.9016 20.6655 33.4531 21.061C31.896 21.4861 30.1403 21.1111 28.994 20.5996L28.1791 22.426ZM38.9326 17.0175C40.3542 10.2478 38.3511 3.27468 37.163 0.594715L35.3346 1.40529C36.42 3.85353 38.2818 10.3846 36.9753 16.6065L38.9326 17.0175ZM35.7622 0.126363C33.8056 1.21613 30.8527 3.0872 28.332 5.17669C27.0725 6.22073 25.8939 7.34136 24.9995 8.46678C24.1225 9.57038 23.4288 10.7894 23.3172 12.0208L25.309 12.2014C25.3678 11.5525 25.7718 10.7095 26.5653 9.7111C27.3414 8.73449 28.4061 7.71303 29.6083 6.71647C32.0111 4.72476 34.8555 2.92063 36.7354 1.87364L35.7622 0.126363ZM23.3172 12.0208C23.1033 14.3791 23.0809 16.406 23.7652 18.1405C24.4746 19.9384 25.8744 21.2691 28.1375 22.4063L29.0355 20.6193C27.0465 19.6198 26.0965 18.6001 25.6256 17.4065C25.1297 16.1495 25.0966 14.544 25.309 12.2014L23.3172 12.0208ZM8.62644 22.1545C10.281 24.1322 12.7345 27.1758 15.0224 30.2318L16.6235 29.0332C14.3102 25.9433 11.8336 22.8711 10.1604 20.8712L8.62644 22.1545ZM15.0224 30.2318C16.4193 32.0976 17.7465 33.9576 18.7907 35.5769C19.8556 37.2283 20.5617 38.5332 20.7974 39.3209L22.7134 38.7475C22.3868 37.6561 21.5305 36.1352 20.4716 34.4931C19.392 32.8189 18.0342 30.9175 16.6235 29.0332L15.0224 30.2318ZM15.2835 28.7905C14.4444 29.328 12.9024 29.8984 11.127 29.7574C9.39345 29.6197 7.3652 28.7995 5.48602 26.4446L3.92275 27.6921C6.13583 30.4654 8.66631 31.5683 10.9687 31.7511C13.2293 31.9307 15.2004 31.219 16.3624 30.4745L15.2835 28.7905ZM5.48602 26.4446C3.60531 24.0878 2.79281 21.134 2.56805 18.3345C2.34333 15.5355 2.71409 12.9804 3.11166 11.5189L1.1818 10.9939C0.726825 12.6664 0.330286 15.4531 0.574467 18.4946C0.818615 21.5356 1.71122 24.9207 3.92275 27.6921L5.48602 26.4446ZM1.96741 12.2402C3.47834 12.5156 5.90958 13.1196 8.24275 14.0261C10.6222 14.9506 12.7041 16.1171 13.7188 17.4249L15.299 16.199C13.9266 14.43 11.3905 13.1035 8.96709 12.1619C6.49748 11.2023 3.94121 10.567 2.32605 10.2726L1.96741 12.2402ZM13.7188 17.4249C15.2291 19.3717 16.1491 20.6836 16.4326 22.2757C16.7131 23.8512 16.3906 25.8713 14.9082 29.2286L16.7377 30.0364C18.2745 26.5561 18.7869 24.0889 18.4016 21.9251C18.0193 19.7779 16.7726 18.0984 15.299 16.199L13.7188 17.4249Z" fill="#44240C"/>
</svg>
