<svg width="53" height="29" viewBox="0 0 53 29" fill="none" xmlns="http://www.w3.org/2000/svg">
<path d="M1.5 1V0C0.947715 0 0.5 0.447715 0.5 1L1.5 1ZM1.5 28H0.5C0.5 28.5523 0.947715 29 1.5 29L1.5 28ZM51.5 28V29C52.0523 29 52.5 28.5523 52.5 28H51.5ZM51.5 1H52.5C52.5 0.447715 52.0523 0 51.5 0V1ZM0.5 1V28H2.5V1H0.5ZM1.5 29H51.5V27H1.5V29ZM52.5 28V1H50.5V28H52.5ZM51.5 0H1.5V2H51.5V0ZM10.1667 2.63415C7.04866 2.63415 4.5 5.13419 4.5 8.2439H6.5C6.5 6.26182 8.13002 4.63415 10.1667 4.63415V2.63415ZM4.5 8.2439C4.5 11.3536 7.04866 13.8537 10.1667 13.8537V11.8537C8.13002 11.8537 6.5 10.226 6.5 8.2439H4.5ZM10.1667 13.8537C13.2847 13.8537 15.8333 11.3536 15.8333 8.2439H13.8333C13.8333 10.226 12.2033 11.8537 10.1667 11.8537V13.8537ZM15.8333 8.2439C15.8333 5.13419 13.2847 2.63415 10.1667 2.63415V4.63415C12.2033 4.63415 13.8333 6.26182 13.8333 8.2439H15.8333ZM10.1667 14.4878C7.04866 14.4878 4.5 16.9878 4.5 20.0976H6.5C6.5 18.1155 8.13002 16.4878 10.1667 16.4878V14.4878ZM4.5 20.0976C4.5 23.2073 7.04866 25.7073 10.1667 25.7073V23.7073C8.13002 23.7073 6.5 22.0796 6.5 20.0976H4.5ZM10.1667 25.7073C13.2847 25.7073 15.8333 23.2073 15.8333 20.0976H13.8333C13.8333 22.0796 12.2033 23.7073 10.1667 23.7073V25.7073ZM15.8333 20.0976C15.8333 16.9878 13.2847 14.4878 10.1667 14.4878V16.4878C12.2033 16.4878 13.8333 18.1155 13.8333 20.0976H15.8333ZM26.1667 14.4878C23.0487 14.4878 20.5 16.9878 20.5 20.0976H22.5C22.5 18.1155 24.13 16.4878 26.1667 16.4878V14.4878ZM20.5 20.0976C20.5 23.2073 23.0487 25.7073 26.1667 25.7073V23.7073C24.13 23.7073 22.5 22.0796 22.5 20.0976H20.5ZM26.1667 25.7073C29.2847 25.7073 31.8333 23.2073 31.8333 20.0976H29.8333C29.8333 22.0796 28.2033 23.7073 26.1667 23.7073V25.7073ZM31.8333 20.0976C31.8333 16.9878 29.2847 14.4878 26.1667 14.4878V16.4878C28.2033 16.4878 29.8333 18.1155 29.8333 20.0976H31.8333ZM26.1667 2.63415C23.0487 2.63415 20.5 5.13419 20.5 8.2439H22.5C22.5 6.26182 24.13 4.63415 26.1667 4.63415V2.63415ZM20.5 8.2439C20.5 11.3536 23.0487 13.8537 26.1667 13.8537V11.8537C24.13 11.8537 22.5 10.226 22.5 8.2439H20.5ZM26.1667 13.8537C29.2847 13.8537 31.8333 11.3536 31.8333 8.2439H29.8333C29.8333 10.226 28.2033 11.8537 26.1667 11.8537V13.8537ZM31.8333 8.2439C31.8333 5.13419 29.2847 2.63415 26.1667 2.63415V4.63415C28.2033 4.63415 29.8333 6.26182 29.8333 8.2439H31.8333ZM42.1667 2.63415C39.0487 2.63415 36.5 5.13419 36.5 8.2439H38.5C38.5 6.26182 40.13 4.63415 42.1667 4.63415V2.63415ZM36.5 8.2439C36.5 11.3536 39.0487 13.8537 42.1667 13.8537V11.8537C40.13 11.8537 38.5 10.226 38.5 8.2439H36.5ZM42.1667 13.8537C45.2847 13.8537 47.8333 11.3536 47.8333 8.2439H45.8333C45.8333 10.226 44.2033 11.8537 42.1667 11.8537V13.8537ZM47.8333 8.2439C47.8333 5.13419 45.2847 2.63415 42.1667 2.63415V4.63415C44.2033 4.63415 45.8333 6.26182 45.8333 8.2439H47.8333ZM42.1667 14.4878C39.0487 14.4878 36.5 16.9878 36.5 20.0976H38.5C38.5 18.1155 40.13 16.4878 42.1667 16.4878V14.4878ZM36.5 20.0976C36.5 23.2073 39.0487 25.7073 42.1667 25.7073V23.7073C40.13 23.7073 38.5 22.0796 38.5 20.0976H36.5ZM42.1667 25.7073C45.2847 25.7073 47.8333 23.2073 47.8333 20.0976H45.8333C45.8333 22.0796 44.2033 23.7073 42.1667 23.7073V25.7073ZM47.8333 20.0976C47.8333 16.9878 45.2847 14.4878 42.1667 14.4878V16.4878C44.2033 16.4878 45.8333 18.1155 45.8333 20.0976H47.8333Z" fill="#44240C"/>
</svg>
