<svg width="26" height="21" viewBox="0 0 26 21" fill="none" xmlns="http://www.w3.org/2000/svg">
<path d="M1 0.5C0.723858 0.5 0.5 0.723858 0.5 1C0.5 1.27614 0.723858 1.5 1 1.5V0.5ZM7 1L7.48809 0.891535C7.43726 0.662766 7.23435 0.5 7 0.5V1ZM9.68 13.39L10.1705 13.2926L10.169 13.2859L9.68 13.39ZM11.68 15V14.4999L11.6704 14.5001L11.68 15ZM21.4 15L21.4096 14.5H21.4V15ZM23.4 13.39L22.91 13.2906L22.9096 13.2926L23.4 13.39ZM25 5.5L25.49 5.59937C25.5198 5.45233 25.4821 5.29968 25.3871 5.18352C25.2921 5.06737 25.15 5 25 5V5.5ZM14.5 18.5C14.5 19.0523 14.0523 19.5 13.5 19.5V20.5C14.6046 20.5 15.5 19.6046 15.5 18.5H14.5ZM13.5 19.5C12.9477 19.5 12.5 19.0523 12.5 18.5H11.5C11.5 19.6046 12.3954 20.5 13.5 20.5V19.5ZM12.5 18.5C12.5 17.9477 12.9477 17.5 13.5 17.5V16.5C12.3954 16.5 11.5 17.3954 11.5 18.5H12.5ZM13.5 17.5C14.0523 17.5 14.5 17.9477 14.5 18.5H15.5C15.5 17.3954 14.6046 16.5 13.5 16.5V17.5ZM21.5 18.5C21.5 19.0523 21.0523 19.5 20.5 19.5V20.5C21.6046 20.5 22.5 19.6046 22.5 18.5H21.5ZM20.5 19.5C19.9477 19.5 19.5 19.0523 19.5 18.5H18.5C18.5 19.6046 19.3954 20.5 20.5 20.5V19.5ZM19.5 18.5C19.5 17.9477 19.9477 17.5 20.5 17.5V16.5C19.3954 16.5 18.5 17.3954 18.5 18.5H19.5ZM20.5 17.5C21.0523 17.5 21.5 17.9477 21.5 18.5H22.5C22.5 17.3954 21.6046 16.5 20.5 16.5V17.5ZM1 1.5H7V0.5H1V1.5ZM9.18958 13.4874C9.30389 14.0629 9.61697 14.5799 10.074 14.9478L10.7011 14.1688C10.4269 13.9481 10.239 13.6379 10.1704 13.2926L9.18958 13.4874ZM10.074 14.9478C10.5311 15.3157 11.103 15.5112 11.6896 15.4999L11.6704 14.5001C11.3184 14.5068 10.9753 14.3896 10.7011 14.1688L10.074 14.9478ZM11.68 15.5H21.4V14.5H11.68V15.5ZM21.3904 15.4999C21.977 15.5112 22.5489 15.3157 23.006 14.9478L22.3789 14.1688C22.1047 14.3896 21.7616 14.5068 21.4096 14.5001L21.3904 15.4999ZM23.006 14.9478C23.463 14.5799 23.7761 14.0629 23.8904 13.4874L22.9096 13.2926C22.841 13.6379 22.6531 13.9481 22.3789 14.1688L23.006 14.9478ZM23.89 13.4894L25.49 5.59937L24.51 5.40063L22.91 13.2906L23.89 13.4894ZM25 5H8V6H25V5ZM6.51191 1.10847L7.51191 5.60847L8.48809 5.39153L7.48809 0.891535L6.51191 1.10847ZM7.51096 5.60413L9.19096 13.4941L10.169 13.2859L8.48904 5.39587L7.51096 5.60413Z" fill="#36170F"/>
</svg>
