<svg width="18" height="17" viewBox="0 0 18 17" fill="none" xmlns="http://www.w3.org/2000/svg">
<path opacity="0.5" d="M12.7526 0C11.9133 0 11.1112 0.20033 10.3685 0.595464C9.86292 0.864387 9.39849 1.22169 9 1.64561C8.60148 1.22169 8.13708 0.864387 7.63152 0.595464C6.8888 0.20033 6.08667 0 5.24739 0C2.35399 0 0 2.45107 0 5.46383C0 7.5977 1.08234 9.86405 3.21692 12.2C4.99917 14.1504 7.18122 15.7762 8.69786 16.7967L9 17L9.30214 16.7967C10.8188 15.7763 13.0008 14.1504 14.7831 12.2C16.9177 9.86405 18 7.5977 18 5.46383C18 2.45107 15.646 0 12.7526 0Z" fill="#FBE4E8"/>
</svg>
