<svg width="20" height="19" viewBox="0 0 20 19" fill="none" xmlns="http://www.w3.org/2000/svg">
<path fill-rule="evenodd" clip-rule="evenodd" d="M9.99972 4.68678L9.27223 3.659C8.52775 2.60723 7.33005 1.92589 5.97684 1.92589C4.76458 1.92589 3.75686 2.27819 3.06231 2.92593C2.38267 3.55976 1.9 4.57185 1.9 6.11996C1.9 7.0678 2.34412 8.171 3.14538 9.35764C3.93571 10.5281 5.00701 11.6823 6.10587 12.7118C7.20067 13.7375 8.29929 14.6176 9.12628 15.2424C9.46931 15.5015 9.76434 15.7158 9.99137 15.8773C10.2197 15.7098 10.5174 15.4871 10.864 15.218C11.6923 14.5752 12.7928 13.6731 13.8896 12.632C14.9905 11.5869 16.0643 10.4237 16.8566 9.26025C17.6629 8.07627 18.1 7.00421 18.1 6.12C18.1 3.80414 16.2744 1.92589 14.0227 1.92589C12.6699 1.92589 11.4719 2.60723 10.7273 3.65905L9.99972 4.68678ZM9.39341 2.40373C8.50257 1.5348 7.30154 1 5.97684 1C3.22862 1 1 2.5999 1 6.11996C1 11.0169 9.99977 17 9.99977 17C9.99977 17 19 10.7932 19 6.12C19 3.29273 16.7714 1 14.0227 1C12.6983 1 11.4971 1.53482 10.6062 2.40377C10.3837 2.62072 10.1806 2.85849 9.99977 3.11397C9.81893 2.85848 9.61584 2.62069 9.39341 2.40373Z" fill="white"/>
<path d="M9.99977 17L9.72296 17.4164L10.0049 17.6038L10.2836 17.4116L9.99977 17ZM9.99977 17C10.2836 17.4116 10.2837 17.4115 10.2839 17.4114L10.2843 17.4111L10.2858 17.4101L10.2913 17.4063L10.3118 17.3921C10.3296 17.3796 10.3557 17.3613 10.3895 17.3374C10.4571 17.2897 10.5555 17.2194 10.6804 17.1286C10.9302 16.9471 11.2861 16.6832 11.7126 16.3522C12.565 15.6906 13.7036 14.7577 14.8441 13.6751C15.9825 12.5945 17.1354 11.3529 18.007 10.0729C18.8715 8.80342 19.5 7.43752 19.5 6.12C19.5 3.03002 17.0608 0.5 14.0227 0.5C12.56 0.5 11.2357 1.09142 10.2571 2.04582C10.1684 2.13226 10.0826 2.22169 9.9998 2.31394C9.91696 2.22168 9.83116 2.13225 9.74253 2.0458C8.76406 1.09139 7.4398 0.5 5.97684 0.5C4.50919 0.5 3.13169 0.927823 2.11682 1.8743C1.0955 2.82679 0.5 4.24997 0.5 6.11996C0.5 7.48935 1.12475 8.88153 1.99183 10.1657C2.86444 11.458 4.01861 12.6937 5.15804 13.7612C6.29961 14.8307 7.43913 15.7431 8.29216 16.3876C8.71908 16.7101 9.07525 16.9663 9.32533 17.1423C9.45039 17.2303 9.54899 17.2983 9.61672 17.3445C9.65058 17.3676 9.67674 17.3853 9.69462 17.3974L9.71519 17.4112L9.7207 17.4149L9.72224 17.4159L9.7227 17.4162C9.72285 17.4163 9.72296 17.4164 9.99977 17ZM9.59162 4.97565L9.9997 5.55217L10.4078 4.97568L11.1354 3.94795C11.7932 3.01877 12.8437 2.42589 14.0227 2.42589C15.985 2.42589 17.6 4.06684 17.6 6.12C17.6 6.85496 17.2289 7.82526 16.4433 8.97882C15.6789 10.1013 14.6329 11.237 13.5453 12.2693C12.4641 13.2957 11.3771 14.1868 10.5574 14.8231C10.3475 14.986 10.1557 15.1317 9.98694 15.2581C9.821 15.1374 9.6331 14.9986 9.42768 14.8434C8.60999 14.2257 7.52591 13.357 6.44771 12.3469C5.36331 11.331 4.32121 10.2055 3.55976 9.07784C2.78187 7.9258 2.4 6.92266 2.4 6.11996C2.4 4.68222 2.84408 3.81315 3.40333 3.29159C3.98389 2.75015 4.85849 2.42589 5.97684 2.42589C7.15623 2.42589 8.20647 3.01876 8.86412 3.94787L9.59162 4.97565Z" stroke="black" stroke-opacity="0.2"/>
</svg>
