<svg width="36" height="36" viewBox="0 0 36 36" fill="none" xmlns="http://www.w3.org/2000/svg">
<path d="M1 8.57799L0.00319737 8.49808C0.00106663 8.52466 0 8.55132 0 8.57799H1ZM1 29.0104H0C0 29.0704 0.00539845 29.1303 0.0161301 29.1893L1 29.0104ZM28.7699 35V36C28.8672 36 28.964 35.9858 29.0572 35.9578L28.7699 35ZM34.7595 6.68543L35.759 6.65603L34.7595 6.68543ZM8.0786 1.24052L8.04414 0.241115C8.02791 0.241674 8.01171 0.242629 7.99553 0.243977L8.0786 1.24052ZM0 8.57799V29.0104H2V8.57799H0ZM0.0161301 29.1893C0.441659 31.5297 2.89902 36 9.16762 36V34C4.11045 34 2.28435 30.4842 1.98387 28.8315L0.0161301 29.1893ZM9.16762 36C9.17868 36 9.18975 36 9.20084 36C9.21194 36 9.22304 36 9.23417 36C9.24529 36 9.25643 36 9.26758 36C9.27873 36 9.2899 36 9.30109 36C9.31227 36 9.32347 36 9.33469 36C9.3459 36 9.35713 36 9.36838 36C9.37962 36 9.39088 36 9.40216 36C9.41343 36 9.42472 36 9.43603 36C9.44734 36 9.45866 36 9.46999 36C9.48133 36 9.49268 36 9.50405 36C9.51541 36 9.52679 36 9.53819 36C9.54959 36 9.561 36 9.57242 36C9.58385 36 9.59529 36 9.60674 36C9.6182 36 9.62967 36 9.64115 36C9.65264 36 9.66413 36 9.67565 36C9.68716 36 9.69869 36 9.71023 36C9.72178 36 9.73333 36 9.7449 36C9.75648 36 9.76806 36 9.77966 36C9.79126 36 9.80288 36 9.81451 36C9.82613 36 9.83778 36 9.84943 36C9.86109 36 9.87276 36 9.88445 36C9.89613 36 9.90783 36 9.91955 36C9.93126 36 9.94299 36 9.95473 36C9.96647 36 9.97823 36 9.99 36C10.0018 36 10.0136 36 10.0254 36C10.0371 36 10.049 36 10.0608 36C10.0726 36 10.0844 36 10.0963 36C10.1082 36 10.12 36 10.1319 36C10.1438 36 10.1557 36 10.1676 36C10.1795 36 10.1914 36 10.2033 36C10.2153 36 10.2272 36 10.2392 36C10.2511 36 10.2631 36 10.2751 36C10.2871 36 10.2991 36 10.3111 36C10.3231 36 10.3352 36 10.3472 36C10.3592 36 10.3713 36 10.3834 36C10.3954 36 10.4075 36 10.4196 36C10.4317 36 10.4438 36 10.4559 36C10.468 36 10.4802 36 10.4923 36C10.5045 36 10.5166 36 10.5288 36C10.541 36 10.5531 36 10.5653 36C10.5775 36 10.5897 36 10.602 36C10.6142 36 10.6264 36 10.6387 36C10.6509 36 10.6632 36 10.6755 36C10.6877 36 10.7 36 10.7123 36C10.7246 36 10.7369 36 10.7492 36C10.7616 36 10.7739 36 10.7862 36C10.7986 36 10.8109 36 10.8233 36C10.8357 36 10.8481 36 10.8605 36C10.8729 36 10.8853 36 10.8977 36C10.9101 36 10.9226 36 10.935 36C10.9474 36 10.9599 36 10.9724 36C10.9848 36 10.9973 36 11.0098 36C11.0223 36 11.0348 36 11.0473 36C11.0598 36 11.0724 36 11.0849 36C11.0974 36 11.11 36 11.1226 36C11.1351 36 11.1477 36 11.1603 36C11.1729 36 11.1855 36 11.1981 36C11.2107 36 11.2233 36 11.2359 36C11.2486 36 11.2612 36 11.2739 36C11.2865 36 11.2992 36 11.3119 36C11.3245 36 11.3372 36 11.3499 36C11.3626 36 11.3754 36 11.3881 36C11.4008 36 11.4135 36 11.4263 36C11.439 36 11.4518 36 11.4645 36C11.4773 36 11.4901 36 11.5029 36C11.5157 36 11.5285 36 11.5413 36C11.5541 36 11.5669 36 11.5797 36C11.5926 36 11.6054 36 11.6183 36C11.6311 36 11.644 36 11.6569 36C11.6698 36 11.6826 36 11.6955 36C11.7084 36 11.7213 36 11.7343 36C11.7472 36 11.7601 36 11.773 36C11.786 36 11.7989 36 11.8119 36C11.8249 36 11.8378 36 11.8508 36C11.8638 36 11.8768 36 11.8898 36C11.9028 36 11.9158 36 11.9288 36C11.9418 36 11.9549 36 11.9679 36C11.9809 36 11.994 36 12.0071 36C12.0201 36 12.0332 36 12.0463 36C12.0594 36 12.0725 36 12.0856 36C12.0987 36 12.1118 36 12.1249 36C12.138 36 12.1511 36 12.1643 36C12.1774 36 12.1906 36 12.2037 36C12.2169 36 12.2301 36 12.2432 36C12.2564 36 12.2696 36 12.2828 36C12.296 36 12.3092 36 12.3224 36C12.3357 36 12.3489 36 12.3621 36C12.3754 36 12.3886 36 12.4019 36C12.4151 36 12.4284 36 12.4416 36C12.4549 36 12.4682 36 12.4815 36C12.4948 36 12.5081 36 12.5214 36C12.5347 36 12.548 36 12.5614 36C12.5747 36 12.588 36 12.6014 36C12.6147 36 12.6281 36 12.6414 36C12.6548 36 12.6682 36 12.6816 36C12.6949 36 12.7083 36 12.7217 36C12.7351 36 12.7485 36 12.7619 36C12.7754 36 12.7888 36 12.8022 36C12.8157 36 12.8291 36 12.8426 36C12.856 36 12.8695 36 12.8829 36C12.8964 36 12.9099 36 12.9234 36C12.9368 36 12.9503 36 12.9638 36C12.9773 36 12.9908 36 13.0044 36C13.0179 36 13.0314 36 13.0449 36C13.0585 36 13.072 36 13.0856 36C13.0991 36 13.1127 36 13.1262 36C13.1398 36 13.1534 36 13.167 36C13.1805 36 13.1941 36 13.2077 36C13.2213 36 13.2349 36 13.2486 36C13.2622 36 13.2758 36 13.2894 36C13.303 36 13.3167 36 13.3303 36C13.344 36 13.3576 36 13.3713 36C13.3849 36 13.3986 36 13.4123 36C13.426 36 13.4396 36 13.4533 36C13.467 36 13.4807 36 13.4944 36C13.5081 36 13.5218 36 13.5356 36C13.5493 36 13.563 36 13.5767 36C13.5905 36 13.6042 36 13.618 36C13.6317 36 13.6455 36 13.6592 36C13.673 36 13.6868 36 13.7005 36C13.7143 36 13.7281 36 13.7419 36C13.7557 36 13.7695 36 13.7833 36C13.7971 36 13.8109 36 13.8247 36C13.8385 36 13.8523 36 13.8662 36C13.88 36 13.8938 36 13.9077 36C13.9215 36 13.9354 36 13.9492 36C13.9631 36 13.977 36 13.9908 36C14.0047 36 14.0186 36 14.0325 36C14.0463 36 14.0602 36 14.0741 36C14.088 36 14.1019 36 14.1158 36C14.1297 36 14.1437 36 14.1576 36C14.1715 36 14.1854 36 14.1994 36C14.2133 36 14.2272 36 14.2412 36C14.2551 36 14.2691 36 14.283 36C14.297 36 14.3109 36 14.3249 36C14.3389 36 14.3529 36 14.3668 36C14.3808 36 14.3948 36 14.4088 36C14.4228 36 14.4368 36 14.4508 36C14.4648 36 14.4788 36 14.4928 36C14.5068 36 14.5209 36 14.5349 36C14.5489 36 14.5629 36 14.577 36C14.591 36 14.6051 36 14.6191 36C14.6332 36 14.6472 36 14.6613 36C14.6753 36 14.6894 36 14.7035 36C14.7175 36 14.7316 36 14.7457 36C14.7598 36 14.7738 36 14.7879 36C14.802 36 14.8161 36 14.8302 36C14.8443 36 14.8584 36 14.8725 36C14.8867 36 14.9008 36 14.9149 36C14.929 36 14.9431 36 14.9573 36C14.9714 36 14.9855 36 14.9997 36C15.0138 36 15.0279 36 15.0421 36C15.0562 36 15.0704 36 15.0846 36C15.0987 36 15.1129 36 15.127 36C15.1412 36 15.1554 36 15.1696 36C15.1837 36 15.1979 36 15.2121 36C15.2263 36 15.2405 36 15.2547 36C15.2689 36 15.2831 36 15.2973 36C15.3115 36 15.3257 36 15.3399 36C15.3541 36 15.3683 36 15.3825 36C15.3967 36 15.411 36 15.4252 36C15.4394 36 15.4537 36 15.4679 36C15.4821 36 15.4964 36 15.5106 36C15.5249 36 15.5391 36 15.5533 36C15.5676 36 15.5819 36 15.5961 36C15.6104 36 15.6246 36 15.6389 36C15.6532 36 15.6674 36 15.6817 36C15.696 36 15.7103 36 15.7245 36C15.7388 36 15.7531 36 15.7674 36C15.7817 36 15.796 36 15.8103 36C15.8245 36 15.8388 36 15.8531 36C15.8674 36 15.8817 36 15.8961 36C15.9104 36 15.9247 36 15.939 36C15.9533 36 15.9676 36 15.9819 36C15.9963 36 16.0106 36 16.0249 36C16.0392 36 16.0536 36 16.0679 36C16.0822 36 16.0966 36 16.1109 36C16.1252 36 16.1396 36 16.1539 36C16.1683 36 16.1826 36 16.1969 36C16.2113 36 16.2256 36 16.24 36C16.2544 36 16.2687 36 16.2831 36C16.2974 36 16.3118 36 16.3262 36C16.3405 36 16.3549 36 16.3693 36C16.3836 36 16.398 36 16.4124 36C16.4267 36 16.4411 36 16.4555 36C16.4699 36 16.4843 36 16.4986 36C16.513 36 16.5274 36 16.5418 36C16.5562 36 16.5706 36 16.585 36C16.5994 36 16.6137 36 16.6281 36C16.6425 36 16.6569 36 16.6713 36C16.6857 36 16.7001 36 16.7145 36C16.7289 36 16.7433 36 16.7578 36C16.7722 36 16.7866 36 16.801 36C16.8154 36 16.8298 36 16.8442 36C16.8586 36 16.873 36 16.8875 36C16.9019 36 16.9163 36 16.9307 36C16.9451 36 16.9596 36 16.974 36C16.9884 36 17.0028 36 17.0173 36C17.0317 36 17.0461 36 17.0605 36C17.075 36 17.0894 36 17.1038 36C17.1183 36 17.1327 36 17.1471 36C17.1616 36 17.176 36 17.1904 36C17.2049 36 17.2193 36 17.2337 36C17.2482 36 17.2626 36 17.2771 36C17.2915 36 17.3059 36 17.3204 36C17.3348 36 17.3493 36 17.3637 36C17.3781 36 17.3926 36 17.407 36C17.4215 36 17.4359 36 17.4504 36C17.4648 36 17.4793 36 17.4937 36C17.5082 36 17.5226 36 17.537 36C17.5515 36 17.5659 36 17.5804 36C17.5948 36 17.6093 36 17.6237 36C17.6382 36 17.6526 36 17.6671 36C17.6815 36 17.696 36 17.7104 36C17.7249 36 17.7393 36 17.7538 36C17.7682 36 17.7827 36 17.7971 36C17.8116 36 17.826 36 17.8405 36C17.8549 36 17.8694 36 17.8838 36C17.8983 36 17.9128 36 17.9272 36C17.9417 36 17.9561 36 17.9706 36C17.985 36 17.9995 36 18.0139 36C18.0284 36 18.0428 36 18.0572 36C18.0717 36 18.0861 36 18.1006 36C18.115 36 18.1295 36 18.1439 36C18.1584 36 18.1728 36 18.1873 36C18.2017 36 18.2162 36 18.2306 36C18.2451 36 18.2595 36 18.2739 36C18.2884 36 18.3028 36 18.3173 36C18.3317 36 18.3462 36 18.3606 36C18.375 36 18.3895 36 18.4039 36C18.4184 36 18.4328 36 18.4472 36C18.4617 36 18.4761 36 18.4905 36C18.505 36 18.5194 36 18.5338 36C18.5483 36 18.5627 36 18.5771 36C18.5916 36 18.606 36 18.6204 36C18.6348 36 18.6493 36 18.6637 36C18.6781 36 18.6925 36 18.707 36C18.7214 36 18.7358 36 18.7502 36C18.7646 36 18.779 36 18.7935 36C18.8079 36 18.8223 36 18.8367 36C18.8511 36 18.8655 36 18.8799 36C18.8943 36 18.9087 36 18.9231 36C18.9376 36 18.952 36 18.9664 36C18.9808 36 18.9952 36 19.0096 36C19.024 36 19.0383 36 19.0527 36C19.0671 36 19.0815 36 19.0959 36C19.1103 36 19.1247 36 19.1391 36C19.1535 36 19.1678 36 19.1822 36C19.1966 36 19.211 36 19.2254 36C19.2397 36 19.2541 36 19.2685 36C19.2828 36 19.2972 36 19.3116 36C19.3259 36 19.3403 36 19.3547 36C19.369 36 19.3834 36 19.3977 36C19.4121 36 19.4265 36 19.4408 36C19.4552 36 19.4695 36 19.4838 36C19.4982 36 19.5125 36 19.5269 36C19.5412 36 19.5556 36 19.5699 36C19.5842 36 19.5986 36 19.6129 36C19.6272 36 19.6415 36 19.6559 36C19.6702 36 19.6845 36 19.6988 36C19.7131 36 19.7274 36 19.7417 36C19.7561 36 19.7704 36 19.7847 36C19.799 36 19.8133 36 19.8276 36C19.8419 36 19.8561 36 19.8704 36C19.8847 36 19.899 36 19.9133 36C19.9276 36 19.9419 36 19.9561 36C19.9704 36 19.9847 36 19.9989 36C20.0132 36 20.0275 36 20.0417 36C20.056 36 20.0703 36 20.0845 36C20.0988 36 20.113 36 20.1273 36C20.1415 36 20.1558 36 20.17 36C20.1842 36 20.1985 36 20.2127 36C20.2269 36 20.2411 36 20.2554 36C20.2696 36 20.2838 36 20.298 36C20.3122 36 20.3264 36 20.3407 36C20.3549 36 20.3691 36 20.3833 36C20.3975 36 20.4116 36 20.4258 36C20.44 36 20.4542 36 20.4684 36C20.4826 36 20.4967 36 20.5109 36C20.5251 36 20.5392 36 20.5534 36C20.5676 36 20.5817 36 20.5959 36C20.61 36 20.6242 36 20.6383 36C20.6525 36 20.6666 36 20.6807 36C20.6949 36 20.709 36 20.7231 36C20.7372 36 20.7514 36 20.7655 36C20.7796 36 20.7937 36 20.8078 36C20.8219 36 20.836 36 20.8501 36C20.8642 36 20.8783 36 20.8924 36C20.9065 36 20.9205 36 20.9346 36C20.9487 36 20.9627 36 20.9768 36C20.9909 36 21.0049 36 21.019 36C21.033 36 21.0471 36 21.0611 36C21.0752 36 21.0892 36 21.1032 36C21.1173 36 21.1313 36 21.1453 36C21.1593 36 21.1733 36 21.1874 36C21.2014 36 21.2154 36 21.2294 36C21.2434 36 21.2573 36 21.2713 36C21.2853 36 21.2993 36 21.3133 36C21.3272 36 21.3412 36 21.3552 36C21.3691 36 21.3831 36 21.397 36C21.411 36 21.4249 36 21.4389 36C21.4528 36 21.4667 36 21.4807 36C21.4946 36 21.5085 36 21.5224 36C21.5363 36 21.5502 36 21.5641 36C21.578 36 21.5919 36 21.6058 36C21.6197 36 21.6336 36 21.6475 36C21.6613 36 21.6752 36 21.6891 36C21.7029 36 21.7168 36 21.7306 36C21.7445 36 21.7583 36 21.7722 36C21.786 36 21.7998 36 21.8137 36C21.8275 36 21.8413 36 21.8551 36C21.8689 36 21.8827 36 21.8965 36C21.9103 36 21.9241 36 21.9379 36C21.9517 36 21.9654 36 21.9792 36C21.993 36 22.0067 36 22.0205 36C22.0342 36 22.048 36 22.0617 36C22.0755 36 22.0892 36 22.1029 36C22.1166 36 22.1304 36 22.1441 36C22.1578 36 22.1715 36 22.1852 36C22.1989 36 22.2126 36 22.2262 36C22.2399 36 22.2536 36 22.2672 36C22.2809 36 22.2946 36 22.3082 36C22.3219 36 22.3355 36 22.3491 36C22.3628 36 22.3764 36 22.39 36C22.4037 36 22.4173 36 22.4309 36C22.4445 36 22.4581 36 22.4717 36C22.4852 36 22.4988 36 22.5124 36C22.526 36 22.5395 36 22.5531 36C22.5666 36 22.5802 36 22.5937 36C22.6073 36 22.6208 36 22.6343 36C22.6479 36 22.6614 36 22.6749 36C22.6884 36 22.7019 36 22.7154 36C22.7289 36 22.7423 36 22.7558 36C22.7693 36 22.7828 36 22.7962 36C22.8097 36 22.8231 36 22.8366 36C22.85 36 22.8634 36 22.8769 36C22.8903 36 22.9037 36 22.9171 36C22.9305 36 22.9439 36 22.9573 36C22.9707 36 22.9841 36 22.9974 36C23.0108 36 23.0242 36 23.0375 36C23.0509 36 23.0642 36 23.0775 36C23.0909 36 23.1042 36 23.1175 36C23.1308 36 23.1442 36 23.1575 36C23.1707 36 23.184 36 23.1973 36C23.2106 36 23.2239 36 23.2371 36C23.2504 36 23.2636 36 23.2769 36C23.2901 36 23.3034 36 23.3166 36C23.3298 36 23.343 36 23.3562 36C23.3694 36 23.3826 36 23.3958 36C23.409 36 23.4222 36 23.4354 36C23.4485 36 23.4617 36 23.4748 36C23.488 36 23.5011 36 23.5143 36C23.5274 36 23.5405 36 23.5536 36C23.5667 36 23.5798 36 23.5929 36C23.606 36 23.6191 36 23.6321 36C23.6452 36 23.6583 36 23.6713 36C23.6844 36 23.6974 36 23.7104 36C23.7235 36 23.7365 36 23.7495 36C23.7625 36 23.7755 36 23.7885 36C23.8015 36 23.8145 36 23.8274 36C23.8404 36 23.8534 36 23.8663 36C23.8793 36 23.8922 36 23.9051 36C23.918 36 23.931 36 23.9439 36C23.9568 36 23.9697 36 23.9825 36C23.9954 36 24.0083 36 24.0212 36C24.034 36 24.0469 36 24.0597 36C24.0726 36 24.0854 36 24.0982 36C24.111 36 24.1238 36 24.1366 36C24.1494 36 24.1622 36 24.175 36C24.1878 36 24.2005 36 24.2133 36C24.226 36 24.2388 36 24.2515 36C24.2643 36 24.277 36 24.2897 36C24.3024 36 24.3151 36 24.3278 36C24.3405 36 24.3531 36 24.3658 36C24.3785 36 24.3911 36 24.4038 36C24.4164 36 24.429 36 24.4416 36C24.4543 36 24.4669 36 24.4795 36C24.4921 36 24.5046 36 24.5172 36C24.5298 36 24.5424 36 24.5549 36C24.5674 36 24.58 36 24.5925 36C24.605 36 24.6175 36 24.63 36C24.6425 36 24.655 36 24.6675 36C24.68 36 24.6925 36 24.7049 36C24.7174 36 24.7298 36 24.7422 36C24.7547 36 24.7671 36 24.7795 36C24.7919 36 24.8043 36 24.8167 36C24.8291 36 24.8414 36 24.8538 36C24.8661 36 24.8785 36 24.8908 36C24.9031 36 24.9155 36 24.9278 36C24.9401 36 24.9524 36 24.9647 36C24.9769 36 24.9892 36 25.0015 36C25.0137 36 25.026 36 25.0382 36C25.0504 36 25.0626 36 25.0748 36C25.0871 36 25.0992 36 25.1114 36C25.1236 36 25.1358 36 25.1479 36C25.1601 36 25.1722 36 25.1844 36C25.1965 36 25.2086 36 25.2207 36C25.2328 36 25.2449 36 25.257 36C25.2691 36 25.2811 36 25.2932 36C25.3052 36 25.3173 36 25.3293 36C25.3413 36 25.3533 36 25.3653 36C25.3773 36 25.3893 36 25.4013 36C25.4132 36 25.4252 36 25.4371 36C25.4491 36 25.461 36 25.4729 36C25.4849 36 25.4968 36 25.5086 36C25.5205 36 25.5324 36 25.5443 36C25.5561 36 25.568 36 25.5798 36C25.5917 36 25.6035 36 25.6153 36C25.6271 36 25.6389 36 25.6507 36C25.6625 36 25.6742 36 25.686 36C25.6977 36 25.7095 36 25.7212 36C25.7329 36 25.7446 36 25.7563 36C25.768 36 25.7797 36 25.7914 36C25.803 36 25.8147 36 25.8263 36C25.838 36 25.8496 36 25.8612 36C25.8728 36 25.8844 36 25.896 36C25.9076 36 25.9191 36 25.9307 36C25.9423 36 25.9538 36 25.9653 36C25.9768 36 25.9883 36 25.9998 36C26.0113 36 26.0228 36 26.0343 36C26.0458 36 26.0572 36 26.0686 36C26.0801 36 26.0915 36 26.1029 36C26.1143 36 26.1257 36 26.1371 36C26.1485 36 26.1598 36 26.1712 36C26.1825 36 26.1939 36 26.2052 36C26.2165 36 26.2278 36 26.2391 36C26.2504 36 26.2616 36 26.2729 36C26.2841 36 26.2954 36 26.3066 36C26.3178 36 26.3291 36 26.3403 36C26.3514 36 26.3626 36 26.3738 36C26.385 36 26.3961 36 26.4072 36C26.4184 36 26.4295 36 26.4406 36C26.4517 36 26.4628 36 26.4739 36C26.4849 36 26.496 36 26.507 36C26.5181 36 26.5291 36 26.5401 36C26.5511 36 26.5621 36 26.5731 36C26.5841 36 26.595 36 26.606 36C26.6169 36 26.6278 36 26.6388 36C26.6497 36 26.6606 36 26.6715 36C26.6823 36 26.6932 36 26.7041 36C26.7149 36 26.7257 36 26.7366 36C26.7474 36 26.7582 36 26.769 36C26.7797 36 26.7905 36 26.8013 36C26.812 36 26.8228 36 26.8335 36C26.8442 36 26.8549 36 26.8656 36C26.8763 36 26.8869 36 26.8976 36C26.9083 36 26.9189 36 26.9295 36C26.9401 36 26.9507 36 26.9613 36C26.9719 36 26.9825 36 26.993 36C27.0036 36 27.0141 36 27.0246 36C27.0352 36 27.0457 36 27.0562 36C27.0666 36 27.0771 36 27.0876 36C27.098 36 27.1084 36 27.1189 36C27.1293 36 27.1397 36 27.1501 36C27.1605 36 27.1708 36 27.1812 36C27.1915 36 27.2019 36 27.2122 36C27.2225 36 27.2328 36 27.2431 36C27.2533 36 27.2636 36 27.2739 36C27.2841 36 27.2943 36 27.3045 36C27.3148 36 27.3249 36 27.3351 36C27.3453 36 27.3555 36 27.3656 36C27.3757 36 27.3859 36 27.396 36C27.4061 36 27.4162 36 27.4262 36C27.4363 36 27.4464 36 27.4564 36C27.4664 36 27.4764 36 27.4864 36C27.4964 36 27.5064 36 27.5164 36C27.5263 36 27.5363 36 27.5462 36C27.5561 36 27.566 36 27.5759 36C27.5858 36 27.5957 36 27.6056 36C27.6154 36 27.6252 36 27.6351 36C27.6449 36 27.6547 36 27.6645 36C27.6742 36 27.684 36 27.6937 36C27.7035 36 27.7132 36 27.7229 36C27.7326 36 27.7423 36 27.752 36C27.7617 36 27.7713 36 27.7809 36C27.7906 36 27.8002 36 27.8098 36C27.8194 36 27.829 36 27.8385 36C27.8481 36 27.8576 36 27.8671 36C27.8766 36 27.8861 36 27.8956 36C27.9051 36 27.9146 36 27.924 36C27.9335 36 27.9429 36 27.9523 36C27.9617 36 27.9711 36 27.9805 36C27.9898 36 27.9992 36 28.0085 36C28.0178 36 28.0271 36 28.0364 36C28.0457 36 28.055 36 28.0642 36C28.0735 36 28.0827 36 28.0919 36C28.1012 36 28.1104 36 28.1195 36C28.1287 36 28.1379 36 28.147 36C28.1561 36 28.1652 36 28.1743 36C28.1834 36 28.1925 36 28.2016 36C28.2106 36 28.2197 36 28.2287 36C28.2377 36 28.2467 36 28.2557 36C28.2647 36 28.2736 36 28.2825 36C28.2915 36 28.3004 36 28.3093 36C28.3182 36 28.3271 36 28.3359 36C28.3448 36 28.3536 36 28.3624 36C28.3713 36 28.3801 36 28.3888 36C28.3976 36 28.4064 36 28.4151 36C28.4238 36 28.4326 36 28.4413 36C28.45 36 28.4586 36 28.4673 36C28.4759 36 28.4846 36 28.4932 36C28.5018 36 28.5104 36 28.519 36C28.5275 36 28.5361 36 28.5446 36C28.5532 36 28.5617 36 28.5702 36C28.5786 36 28.5871 36 28.5956 36C28.604 36 28.6124 36 28.6208 36C28.6293 36 28.6376 36 28.646 36C28.6544 36 28.6627 36 28.671 36C28.6794 36 28.6877 36 28.6959 36C28.7042 36 28.7125 36 28.7207 36C28.729 36 28.7372 36 28.7454 36C28.7536 36 28.7617 36 28.7699 36V34C28.7617 34 28.7536 34 28.7454 34C28.7372 34 28.729 34 28.7207 34C28.7125 34 28.7042 34 28.6959 34C28.6877 34 28.6794 34 28.671 34C28.6627 34 28.6544 34 28.646 34C28.6376 34 28.6293 34 28.6208 34C28.6124 34 28.604 34 28.5956 34C28.5871 34 28.5786 34 28.5702 34C28.5617 34 28.5532 34 28.5446 34C28.5361 34 28.5275 34 28.519 34C28.5104 34 28.5018 34 28.4932 34C28.4846 34 28.4759 34 28.4673 34C28.4586 34 28.45 34 28.4413 34C28.4326 34 28.4238 34 28.4151 34C28.4064 34 28.3976 34 28.3888 34C28.3801 34 28.3713 34 28.3624 34C28.3536 34 28.3448 34 28.3359 34C28.3271 34 28.3182 34 28.3093 34C28.3004 34 28.2915 34 28.2825 34C28.2736 34 28.2647 34 28.2557 34C28.2467 34 28.2377 34 28.2287 34C28.2197 34 28.2106 34 28.2016 34C28.1925 34 28.1834 34 28.1743 34C28.1652 34 28.1561 34 28.147 34C28.1379 34 28.1287 34 28.1195 34C28.1104 34 28.1012 34 28.0919 34C28.0827 34 28.0735 34 28.0642 34C28.055 34 28.0457 34 28.0364 34C28.0271 34 28.0178 34 28.0085 34C27.9992 34 27.9898 34 27.9805 34C27.9711 34 27.9617 34 27.9523 34C27.9429 34 27.9335 34 27.924 34C27.9146 34 27.9051 34 27.8956 34C27.8861 34 27.8766 34 27.8671 34C27.8576 34 27.8481 34 27.8385 34C27.829 34 27.8194 34 27.8098 34C27.8002 34 27.7906 34 27.7809 34C27.7713 34 27.7617 34 27.752 34C27.7423 34 27.7326 34 27.7229 34C27.7132 34 27.7035 34 27.6937 34C27.684 34 27.6742 34 27.6645 34C27.6547 34 27.6449 34 27.6351 34C27.6252 34 27.6154 34 27.6056 34C27.5957 34 27.5858 34 27.5759 34C27.566 34 27.5561 34 27.5462 34C27.5363 34 27.5263 34 27.5164 34C27.5064 34 27.4964 34 27.4864 34C27.4764 34 27.4664 34 27.4564 34C27.4464 34 27.4363 34 27.4262 34C27.4162 34 27.4061 34 27.396 34C27.3859 34 27.3757 34 27.3656 34C27.3555 34 27.3453 34 27.3351 34C27.3249 34 27.3148 34 27.3045 34C27.2943 34 27.2841 34 27.2739 34C27.2636 34 27.2533 34 27.2431 34C27.2328 34 27.2225 34 27.2122 34C27.2019 34 27.1915 34 27.1812 34C27.1708 34 27.1605 34 27.1501 34C27.1397 34 27.1293 34 27.1189 34C27.1084 34 27.098 34 27.0876 34C27.0771 34 27.0666 34 27.0562 34C27.0457 34 27.0352 34 27.0246 34C27.0141 34 27.0036 34 26.993 34C26.9825 34 26.9719 34 26.9613 34C26.9507 34 26.9401 34 26.9295 34C26.9189 34 26.9083 34 26.8976 34C26.8869 34 26.8763 34 26.8656 34C26.8549 34 26.8442 34 26.8335 34C26.8228 34 26.812 34 26.8013 34C26.7905 34 26.7797 34 26.769 34C26.7582 34 26.7474 34 26.7366 34C26.7257 34 26.7149 34 26.7041 34C26.6932 34 26.6823 34 26.6715 34C26.6606 34 26.6497 34 26.6388 34C26.6278 34 26.6169 34 26.606 34C26.595 34 26.5841 34 26.5731 34C26.5621 34 26.5511 34 26.5401 34C26.5291 34 26.5181 34 26.507 34C26.496 34 26.4849 34 26.4739 34C26.4628 34 26.4517 34 26.4406 34C26.4295 34 26.4184 34 26.4072 34C26.3961 34 26.385 34 26.3738 34C26.3626 34 26.3514 34 26.3403 34C26.3291 34 26.3178 34 26.3066 34C26.2954 34 26.2841 34 26.2729 34C26.2616 34 26.2504 34 26.2391 34C26.2278 34 26.2165 34 26.2052 34C26.1939 34 26.1825 34 26.1712 34C26.1598 34 26.1485 34 26.1371 34C26.1257 34 26.1143 34 26.1029 34C26.0915 34 26.0801 34 26.0686 34C26.0572 34 26.0458 34 26.0343 34C26.0228 34 26.0113 34 25.9998 34C25.9883 34 25.9768 34 25.9653 34C25.9538 34 25.9423 34 25.9307 34C25.9191 34 25.9076 34 25.896 34C25.8844 34 25.8728 34 25.8612 34C25.8496 34 25.838 34 25.8263 34C25.8147 34 25.803 34 25.7914 34C25.7797 34 25.768 34 25.7563 34C25.7446 34 25.7329 34 25.7212 34C25.7095 34 25.6977 34 25.686 34C25.6742 34 25.6625 34 25.6507 34C25.6389 34 25.6271 34 25.6153 34C25.6035 34 25.5917 34 25.5798 34C25.568 34 25.5561 34 25.5443 34C25.5324 34 25.5205 34 25.5086 34C25.4968 34 25.4849 34 25.4729 34C25.461 34 25.4491 34 25.4371 34C25.4252 34 25.4132 34 25.4013 34C25.3893 34 25.3773 34 25.3653 34C25.3533 34 25.3413 34 25.3293 34C25.3173 34 25.3052 34 25.2932 34C25.2811 34 25.2691 34 25.257 34C25.2449 34 25.2328 34 25.2207 34C25.2086 34 25.1965 34 25.1844 34C25.1722 34 25.1601 34 25.1479 34C25.1358 34 25.1236 34 25.1114 34C25.0992 34 25.0871 34 25.0748 34C25.0626 34 25.0504 34 25.0382 34C25.026 34 25.0137 34 25.0015 34C24.9892 34 24.9769 34 24.9647 34C24.9524 34 24.9401 34 24.9278 34C24.9155 34 24.9031 34 24.8908 34C24.8785 34 24.8661 34 24.8538 34C24.8414 34 24.8291 34 24.8167 34C24.8043 34 24.7919 34 24.7795 34C24.7671 34 24.7547 34 24.7422 34C24.7298 34 24.7174 34 24.7049 34C24.6925 34 24.68 34 24.6675 34C24.655 34 24.6425 34 24.63 34C24.6175 34 24.605 34 24.5925 34C24.58 34 24.5674 34 24.5549 34C24.5424 34 24.5298 34 24.5172 34C24.5046 34 24.4921 34 24.4795 34C24.4669 34 24.4543 34 24.4416 34C24.429 34 24.4164 34 24.4038 34C24.3911 34 24.3785 34 24.3658 34C24.3531 34 24.3405 34 24.3278 34C24.3151 34 24.3024 34 24.2897 34C24.277 34 24.2643 34 24.2515 34C24.2388 34 24.226 34 24.2133 34C24.2005 34 24.1878 34 24.175 34C24.1622 34 24.1494 34 24.1366 34C24.1238 34 24.111 34 24.0982 34C24.0854 34 24.0726 34 24.0597 34C24.0469 34 24.034 34 24.0212 34C24.0083 34 23.9954 34 23.9825 34C23.9697 34 23.9568 34 23.9439 34C23.931 34 23.918 34 23.9051 34C23.8922 34 23.8793 34 23.8663 34C23.8534 34 23.8404 34 23.8274 34C23.8145 34 23.8015 34 23.7885 34C23.7755 34 23.7625 34 23.7495 34C23.7365 34 23.7235 34 23.7104 34C23.6974 34 23.6844 34 23.6713 34C23.6583 34 23.6452 34 23.6321 34C23.6191 34 23.606 34 23.5929 34C23.5798 34 23.5667 34 23.5536 34C23.5405 34 23.5274 34 23.5143 34C23.5011 34 23.488 34 23.4748 34C23.4617 34 23.4485 34 23.4354 34C23.4222 34 23.409 34 23.3958 34C23.3826 34 23.3694 34 23.3562 34C23.343 34 23.3298 34 23.3166 34C23.3034 34 23.2901 34 23.2769 34C23.2636 34 23.2504 34 23.2371 34C23.2239 34 23.2106 34 23.1973 34C23.184 34 23.1707 34 23.1575 34C23.1442 34 23.1308 34 23.1175 34C23.1042 34 23.0909 34 23.0775 34C23.0642 34 23.0509 34 23.0375 34C23.0242 34 23.0108 34 22.9974 34C22.9841 34 22.9707 34 22.9573 34C22.9439 34 22.9305 34 22.9171 34C22.9037 34 22.8903 34 22.8769 34C22.8634 34 22.85 34 22.8366 34C22.8231 34 22.8097 34 22.7962 34C22.7828 34 22.7693 34 22.7558 34C22.7423 34 22.7289 34 22.7154 34C22.7019 34 22.6884 34 22.6749 34C22.6614 34 22.6479 34 22.6343 34C22.6208 34 22.6073 34 22.5937 34C22.5802 34 22.5666 34 22.5531 34C22.5395 34 22.526 34 22.5124 34C22.4988 34 22.4852 34 22.4717 34C22.4581 34 22.4445 34 22.4309 34C22.4173 34 22.4037 34 22.39 34C22.3764 34 22.3628 34 22.3491 34C22.3355 34 22.3219 34 22.3082 34C22.2946 34 22.2809 34 22.2672 34C22.2536 34 22.2399 34 22.2262 34C22.2126 34 22.1989 34 22.1852 34C22.1715 34 22.1578 34 22.1441 34C22.1304 34 22.1166 34 22.1029 34C22.0892 34 22.0755 34 22.0617 34C22.048 34 22.0342 34 22.0205 34C22.0067 34 21.993 34 21.9792 34C21.9654 34 21.9517 34 21.9379 34C21.9241 34 21.9103 34 21.8965 34C21.8827 34 21.8689 34 21.8551 34C21.8413 34 21.8275 34 21.8137 34C21.7998 34 21.786 34 21.7722 34C21.7583 34 21.7445 34 21.7306 34C21.7168 34 21.7029 34 21.6891 34C21.6752 34 21.6613 34 21.6475 34C21.6336 34 21.6197 34 21.6058 34C21.5919 34 21.578 34 21.5641 34C21.5502 34 21.5363 34 21.5224 34C21.5085 34 21.4946 34 21.4807 34C21.4667 34 21.4528 34 21.4389 34C21.4249 34 21.411 34 21.397 34C21.3831 34 21.3691 34 21.3552 34C21.3412 34 21.3272 34 21.3133 34C21.2993 34 21.2853 34 21.2713 34C21.2573 34 21.2434 34 21.2294 34C21.2154 34 21.2014 34 21.1874 34C21.1733 34 21.1593 34 21.1453 34C21.1313 34 21.1173 34 21.1032 34C21.0892 34 21.0752 34 21.0611 34C21.0471 34 21.033 34 21.019 34C21.0049 34 20.9909 34 20.9768 34C20.9627 34 20.9487 34 20.9346 34C20.9205 34 20.9065 34 20.8924 34C20.8783 34 20.8642 34 20.8501 34C20.836 34 20.8219 34 20.8078 34C20.7937 34 20.7796 34 20.7655 34C20.7514 34 20.7372 34 20.7231 34C20.709 34 20.6949 34 20.6807 34C20.6666 34 20.6525 34 20.6383 34C20.6242 34 20.61 34 20.5959 34C20.5817 34 20.5676 34 20.5534 34C20.5392 34 20.5251 34 20.5109 34C20.4967 34 20.4826 34 20.4684 34C20.4542 34 20.44 34 20.4258 34C20.4116 34 20.3975 34 20.3833 34C20.3691 34 20.3549 34 20.3407 34C20.3264 34 20.3122 34 20.298 34C20.2838 34 20.2696 34 20.2554 34C20.2411 34 20.2269 34 20.2127 34C20.1985 34 20.1842 34 20.17 34C20.1558 34 20.1415 34 20.1273 34C20.113 34 20.0988 34 20.0845 34C20.0703 34 20.056 34 20.0417 34C20.0275 34 20.0132 34 19.9989 34C19.9847 34 19.9704 34 19.9561 34C19.9419 34 19.9276 34 19.9133 34C19.899 34 19.8847 34 19.8704 34C19.8561 34 19.8419 34 19.8276 34C19.8133 34 19.799 34 19.7847 34C19.7704 34 19.7561 34 19.7417 34C19.7274 34 19.7131 34 19.6988 34C19.6845 34 19.6702 34 19.6559 34C19.6415 34 19.6272 34 19.6129 34C19.5986 34 19.5842 34 19.5699 34C19.5556 34 19.5412 34 19.5269 34C19.5125 34 19.4982 34 19.4838 34C19.4695 34 19.4552 34 19.4408 34C19.4265 34 19.4121 34 19.3977 34C19.3834 34 19.369 34 19.3547 34C19.3403 34 19.3259 34 19.3116 34C19.2972 34 19.2828 34 19.2685 34C19.2541 34 19.2397 34 19.2254 34C19.211 34 19.1966 34 19.1822 34C19.1678 34 19.1535 34 19.1391 34C19.1247 34 19.1103 34 19.0959 34C19.0815 34 19.0671 34 19.0527 34C19.0383 34 19.024 34 19.0096 34C18.9952 34 18.9808 34 18.9664 34C18.952 34 18.9376 34 18.9231 34C18.9087 34 18.8943 34 18.8799 34C18.8655 34 18.8511 34 18.8367 34C18.8223 34 18.8079 34 18.7935 34C18.779 34 18.7646 34 18.7502 34C18.7358 34 18.7214 34 18.707 34C18.6925 34 18.6781 34 18.6637 34C18.6493 34 18.6348 34 18.6204 34C18.606 34 18.5916 34 18.5771 34C18.5627 34 18.5483 34 18.5338 34C18.5194 34 18.505 34 18.4905 34C18.4761 34 18.4617 34 18.4472 34C18.4328 34 18.4184 34 18.4039 34C18.3895 34 18.375 34 18.3606 34C18.3462 34 18.3317 34 18.3173 34C18.3028 34 18.2884 34 18.2739 34C18.2595 34 18.2451 34 18.2306 34C18.2162 34 18.2017 34 18.1873 34C18.1728 34 18.1584 34 18.1439 34C18.1295 34 18.115 34 18.1006 34C18.0861 34 18.0717 34 18.0572 34C18.0428 34 18.0284 34 18.0139 34C17.9995 34 17.985 34 17.9706 34C17.9561 34 17.9417 34 17.9272 34C17.9128 34 17.8983 34 17.8838 34C17.8694 34 17.8549 34 17.8405 34C17.826 34 17.8116 34 17.7971 34C17.7827 34 17.7682 34 17.7538 34C17.7393 34 17.7249 34 17.7104 34C17.696 34 17.6815 34 17.6671 34C17.6526 34 17.6382 34 17.6237 34C17.6093 34 17.5948 34 17.5804 34C17.5659 34 17.5515 34 17.537 34C17.5226 34 17.5082 34 17.4937 34C17.4793 34 17.4648 34 17.4504 34C17.4359 34 17.4215 34 17.407 34C17.3926 34 17.3781 34 17.3637 34C17.3493 34 17.3348 34 17.3204 34C17.3059 34 17.2915 34 17.2771 34C17.2626 34 17.2482 34 17.2337 34C17.2193 34 17.2049 34 17.1904 34C17.176 34 17.1616 34 17.1471 34C17.1327 34 17.1183 34 17.1038 34C17.0894 34 17.075 34 17.0605 34C17.0461 34 17.0317 34 17.0173 34C17.0028 34 16.9884 34 16.974 34C16.9596 34 16.9451 34 16.9307 34C16.9163 34 16.9019 34 16.8875 34C16.873 34 16.8586 34 16.8442 34C16.8298 34 16.8154 34 16.801 34C16.7866 34 16.7722 34 16.7578 34C16.7433 34 16.7289 34 16.7145 34C16.7001 34 16.6857 34 16.6713 34C16.6569 34 16.6425 34 16.6281 34C16.6137 34 16.5994 34 16.585 34C16.5706 34 16.5562 34 16.5418 34C16.5274 34 16.513 34 16.4986 34C16.4843 34 16.4699 34 16.4555 34C16.4411 34 16.4267 34 16.4124 34C16.398 34 16.3836 34 16.3693 34C16.3549 34 16.3405 34 16.3262 34C16.3118 34 16.2974 34 16.2831 34C16.2687 34 16.2544 34 16.24 34C16.2256 34 16.2113 34 16.1969 34C16.1826 34 16.1683 34 16.1539 34C16.1396 34 16.1252 34 16.1109 34C16.0966 34 16.0822 34 16.0679 34C16.0536 34 16.0392 34 16.0249 34C16.0106 34 15.9963 34 15.9819 34C15.9676 34 15.9533 34 15.939 34C15.9247 34 15.9104 34 15.8961 34C15.8817 34 15.8674 34 15.8531 34C15.8388 34 15.8245 34 15.8103 34C15.796 34 15.7817 34 15.7674 34C15.7531 34 15.7388 34 15.7245 34C15.7103 34 15.696 34 15.6817 34C15.6674 34 15.6532 34 15.6389 34C15.6246 34 15.6104 34 15.5961 34C15.5819 34 15.5676 34 15.5533 34C15.5391 34 15.5249 34 15.5106 34C15.4964 34 15.4821 34 15.4679 34C15.4537 34 15.4394 34 15.4252 34C15.411 34 15.3967 34 15.3825 34C15.3683 34 15.3541 34 15.3399 34C15.3257 34 15.3115 34 15.2973 34C15.2831 34 15.2689 34 15.2547 34C15.2405 34 15.2263 34 15.2121 34C15.1979 34 15.1837 34 15.1696 34C15.1554 34 15.1412 34 15.127 34C15.1129 34 15.0987 34 15.0846 34C15.0704 34 15.0562 34 15.0421 34C15.0279 34 15.0138 34 14.9997 34C14.9855 34 14.9714 34 14.9573 34C14.9431 34 14.929 34 14.9149 34C14.9008 34 14.8867 34 14.8725 34C14.8584 34 14.8443 34 14.8302 34C14.8161 34 14.802 34 14.7879 34C14.7738 34 14.7598 34 14.7457 34C14.7316 34 14.7175 34 14.7035 34C14.6894 34 14.6753 34 14.6613 34C14.6472 34 14.6332 34 14.6191 34C14.6051 34 14.591 34 14.577 34C14.5629 34 14.5489 34 14.5349 34C14.5209 34 14.5068 34 14.4928 34C14.4788 34 14.4648 34 14.4508 34C14.4368 34 14.4228 34 14.4088 34C14.3948 34 14.3808 34 14.3668 34C14.3529 34 14.3389 34 14.3249 34C14.3109 34 14.297 34 14.283 34C14.2691 34 14.2551 34 14.2412 34C14.2272 34 14.2133 34 14.1994 34C14.1854 34 14.1715 34 14.1576 34C14.1437 34 14.1297 34 14.1158 34C14.1019 34 14.088 34 14.0741 34C14.0602 34 14.0463 34 14.0325 34C14.0186 34 14.0047 34 13.9908 34C13.977 34 13.9631 34 13.9492 34C13.9354 34 13.9215 34 13.9077 34C13.8938 34 13.88 34 13.8662 34C13.8523 34 13.8385 34 13.8247 34C13.8109 34 13.7971 34 13.7833 34C13.7695 34 13.7557 34 13.7419 34C13.7281 34 13.7143 34 13.7005 34C13.6868 34 13.673 34 13.6592 34C13.6455 34 13.6317 34 13.618 34C13.6042 34 13.5905 34 13.5767 34C13.563 34 13.5493 34 13.5356 34C13.5218 34 13.5081 34 13.4944 34C13.4807 34 13.467 34 13.4533 34C13.4396 34 13.426 34 13.4123 34C13.3986 34 13.3849 34 13.3713 34C13.3576 34 13.344 34 13.3303 34C13.3167 34 13.303 34 13.2894 34C13.2758 34 13.2622 34 13.2486 34C13.2349 34 13.2213 34 13.2077 34C13.1941 34 13.1805 34 13.167 34C13.1534 34 13.1398 34 13.1262 34C13.1127 34 13.0991 34 13.0856 34C13.072 34 13.0585 34 13.0449 34C13.0314 34 13.0179 34 13.0044 34C12.9908 34 12.9773 34 12.9638 34C12.9503 34 12.9368 34 12.9234 34C12.9099 34 12.8964 34 12.8829 34C12.8695 34 12.856 34 12.8426 34C12.8291 34 12.8157 34 12.8022 34C12.7888 34 12.7754 34 12.7619 34C12.7485 34 12.7351 34 12.7217 34C12.7083 34 12.6949 34 12.6816 34C12.6682 34 12.6548 34 12.6414 34C12.6281 34 12.6147 34 12.6014 34C12.588 34 12.5747 34 12.5614 34C12.548 34 12.5347 34 12.5214 34C12.5081 34 12.4948 34 12.4815 34C12.4682 34 12.4549 34 12.4416 34C12.4284 34 12.4151 34 12.4019 34C12.3886 34 12.3754 34 12.3621 34C12.3489 34 12.3357 34 12.3224 34C12.3092 34 12.296 34 12.2828 34C12.2696 34 12.2564 34 12.2432 34C12.2301 34 12.2169 34 12.2037 34C12.1906 34 12.1774 34 12.1643 34C12.1511 34 12.138 34 12.1249 34C12.1118 34 12.0987 34 12.0856 34C12.0725 34 12.0594 34 12.0463 34C12.0332 34 12.0201 34 12.0071 34C11.994 34 11.9809 34 11.9679 34C11.9549 34 11.9418 34 11.9288 34C11.9158 34 11.9028 34 11.8898 34C11.8768 34 11.8638 34 11.8508 34C11.8378 34 11.8249 34 11.8119 34C11.7989 34 11.786 34 11.773 34C11.7601 34 11.7472 34 11.7343 34C11.7213 34 11.7084 34 11.6955 34C11.6826 34 11.6698 34 11.6569 34C11.644 34 11.6311 34 11.6183 34C11.6054 34 11.5926 34 11.5797 34C11.5669 34 11.5541 34 11.5413 34C11.5285 34 11.5157 34 11.5029 34C11.4901 34 11.4773 34 11.4645 34C11.4518 34 11.439 34 11.4263 34C11.4135 34 11.4008 34 11.3881 34C11.3754 34 11.3626 34 11.3499 34C11.3372 34 11.3245 34 11.3119 34C11.2992 34 11.2865 34 11.2739 34C11.2612 34 11.2486 34 11.2359 34C11.2233 34 11.2107 34 11.1981 34C11.1855 34 11.1729 34 11.1603 34C11.1477 34 11.1351 34 11.1226 34C11.11 34 11.0974 34 11.0849 34C11.0724 34 11.0598 34 11.0473 34C11.0348 34 11.0223 34 11.0098 34C10.9973 34 10.9848 34 10.9724 34C10.9599 34 10.9474 34 10.935 34C10.9226 34 10.9101 34 10.8977 34C10.8853 34 10.8729 34 10.8605 34C10.8481 34 10.8357 34 10.8233 34C10.8109 34 10.7986 34 10.7862 34C10.7739 34 10.7616 34 10.7492 34C10.7369 34 10.7246 34 10.7123 34C10.7 34 10.6877 34 10.6755 34C10.6632 34 10.6509 34 10.6387 34C10.6264 34 10.6142 34 10.602 34C10.5897 34 10.5775 34 10.5653 34C10.5531 34 10.541 34 10.5288 34C10.5166 34 10.5045 34 10.4923 34C10.4802 34 10.468 34 10.4559 34C10.4438 34 10.4317 34 10.4196 34C10.4075 34 10.3954 34 10.3834 34C10.3713 34 10.3592 34 10.3472 34C10.3352 34 10.3231 34 10.3111 34C10.2991 34 10.2871 34 10.2751 34C10.2631 34 10.2511 34 10.2392 34C10.2272 34 10.2153 34 10.2033 34C10.1914 34 10.1795 34 10.1676 34C10.1557 34 10.1438 34 10.1319 34C10.12 34 10.1082 34 10.0963 34C10.0844 34 10.0726 34 10.0608 34C10.049 34 10.0371 34 10.0254 34C10.0136 34 10.0018 34 9.99 34C9.97823 34 9.96647 34 9.95473 34C9.94299 34 9.93126 34 9.91955 34C9.90783 34 9.89613 34 9.88445 34C9.87276 34 9.86109 34 9.84943 34C9.83778 34 9.82613 34 9.81451 34C9.80288 34 9.79126 34 9.77966 34C9.76806 34 9.75648 34 9.7449 34C9.73333 34 9.72178 34 9.71023 34C9.69869 34 9.68716 34 9.67565 34C9.66413 34 9.65264 34 9.64115 34C9.62967 34 9.6182 34 9.60674 34C9.59529 34 9.58385 34 9.57242 34C9.561 34 9.54959 34 9.53819 34C9.52679 34 9.51541 34 9.50405 34C9.49268 34 9.48133 34 9.46999 34C9.45866 34 9.44734 34 9.43603 34C9.42472 34 9.41343 34 9.40216 34C9.39088 34 9.37962 34 9.36838 34C9.35713 34 9.3459 34 9.33469 34C9.32347 34 9.31227 34 9.30109 34C9.2899 34 9.27873 34 9.26758 34C9.25643 34 9.24529 34 9.23417 34C9.22304 34 9.21194 34 9.20084 34C9.18975 34 9.17868 34 9.16762 34V36ZM29.0572 35.9578C30.0725 35.6532 31.5829 34.9705 32.9147 33.8822C34.2479 32.7928 35.491 31.2202 35.7518 29.1345L33.7672 28.8864C33.5923 30.2855 32.7482 31.4355 31.6492 32.3335C30.5489 33.2326 29.2823 33.8023 28.4825 34.0422L29.0572 35.9578ZM35.7518 29.1345C35.9796 27.3121 36.0225 23.1985 35.9909 18.848C35.959 14.4641 35.8499 9.74631 35.759 6.65603L33.7599 6.71483C33.8505 9.79563 33.9592 14.4979 33.9909 18.8625C34.0229 23.2605 33.975 27.2239 33.7672 28.8864L35.7518 29.1345ZM35.759 6.65603C35.7239 5.46241 35.0698 3.98968 33.9497 2.77723C32.8032 1.53625 31.1043 0.49375 28.8803 0.246637L28.6595 2.2344C30.3559 2.4229 31.6255 3.20883 32.4806 4.13439C33.362 5.08848 33.7424 6.1204 33.7599 6.71483L35.759 6.65603ZM28.8803 0.246637C24.87 -0.198953 13.2752 0.0607321 8.04414 0.241115L8.11306 2.23993C13.4091 2.0573 24.8289 1.80878 28.6595 2.2344L28.8803 0.246637ZM1.9968 8.65789C2.07525 7.67927 2.48693 6.13803 3.45461 4.81347C4.3989 3.52091 5.87196 2.42793 8.16167 2.23706L7.99553 0.243977C5.05796 0.488851 3.08248 1.93247 1.83966 3.63365C0.620234 5.30282 0.106254 7.21244 0.00319737 8.49808L1.9968 8.65789ZM18.4242 8.16762C13.0604 8.16762 8.71212 12.5159 8.71212 17.8797H10.7121C10.7121 13.6205 14.165 10.1676 18.4242 10.1676V8.16762ZM8.71212 17.8797C8.71212 23.2436 13.0604 27.5919 18.4242 27.5919V25.5919C14.165 25.5919 10.7121 22.139 10.7121 17.8797H8.71212ZM18.4242 27.5919C23.7881 27.5919 28.1364 23.2436 28.1364 17.8797H26.1364C26.1364 22.139 22.6835 25.5919 18.4242 25.5919V27.5919ZM28.1364 17.8797C28.1364 12.5159 23.7881 8.16762 18.4242 8.16762V10.1676C22.6835 10.1676 26.1364 13.6205 26.1364 17.8797H28.1364ZM28.2254 4.90057C26.7709 4.90057 25.5919 6.07964 25.5919 7.53409H27.5919C27.5919 7.18421 27.8755 6.90057 28.2254 6.90057V4.90057ZM25.5919 7.53409C25.5919 8.98855 26.7709 10.1676 28.2254 10.1676V8.16762C27.8755 8.16762 27.5919 7.88398 27.5919 7.53409H25.5919ZM28.2254 10.1676C29.6798 10.1676 30.8589 8.98855 30.8589 7.53409H28.8589C28.8589 7.88398 28.5753 8.16762 28.2254 8.16762V10.1676ZM30.8589 7.53409C30.8589 6.07964 29.6798 4.90057 28.2254 4.90057V6.90057C28.5753 6.90057 28.8589 7.18421 28.8589 7.53409H30.8589Z" fill="#44240C"/>
</svg>
