<svg width="15" height="15" viewBox="0 0 15 15" fill="none" xmlns="http://www.w3.org/2000/svg">
<path d="M14.0291 12.2412C13.6736 11.3992 13.1577 10.6344 12.5102 9.98932C11.8647 9.34242 11.1 8.82664 10.2583 8.47048C10.2508 8.46671 10.2433 8.46482 10.2357 8.46105C11.4097 7.61307 12.1729 6.23178 12.1729 4.67337C12.1729 2.09171 10.0812 0 7.49954 0C4.91788 0 2.82617 2.09171 2.82617 4.67337C2.82617 6.23178 3.58936 7.61306 4.76336 8.46294C4.75582 8.46671 4.74828 8.46859 4.74074 8.47236C3.89652 8.82852 3.13898 9.3392 2.48886 9.99121C1.84195 10.6367 1.32618 11.4015 0.970014 12.2431C0.620119 13.0671 0.431412 13.9505 0.41411 14.8455C0.413607 14.8656 0.417134 14.8856 0.424485 14.9043C0.431836 14.9231 0.44286 14.9401 0.456909 14.9545C0.470959 14.9689 0.487748 14.9804 0.506288 14.9882C0.524829 14.996 0.544745 15 0.564863 15H1.69552C1.77843 15 1.84439 14.934 1.84627 14.853C1.88396 13.3982 2.46813 12.0358 3.50079 11.0031C4.56926 9.93467 5.98823 9.34673 7.49954 9.34673C9.01084 9.34673 10.4298 9.93467 11.4983 11.0031C12.5309 12.0358 13.1151 13.3982 13.1528 14.853C13.1547 14.9359 13.2206 15 13.3036 15H14.4342C14.4543 15 14.4742 14.996 14.4928 14.9882C14.5113 14.9804 14.5281 14.9689 14.5422 14.9545C14.5562 14.9401 14.5672 14.9231 14.5746 14.9043C14.5819 14.8856 14.5855 14.8656 14.585 14.8455C14.5661 13.9447 14.3796 13.0685 14.0291 12.2412ZM7.49954 7.91457C6.63459 7.91457 5.82052 7.57726 5.20808 6.96482C4.59564 6.35239 4.25833 5.53832 4.25833 4.67337C4.25833 3.80842 4.59564 2.99435 5.20808 2.38191C5.82052 1.76947 6.63459 1.43216 7.49954 1.43216C8.36449 1.43216 9.17856 1.76947 9.79099 2.38191C10.4034 2.99435 10.7407 3.80842 10.7407 4.67337C10.7407 5.53832 10.4034 6.35239 9.79099 6.96482C9.17856 7.57726 8.36449 7.91457 7.49954 7.91457Z" fill="#A27758"/>
</svg>
