<svg width="33" height="33" viewBox="0 0 33 33" fill="none" xmlns="http://www.w3.org/2000/svg">
<path d="M16.4995 0.109619C7.62212 0.109619 0.399518 7.33222 0.399518 16.2096C0.399518 18.9816 1.11562 21.7074 2.47362 24.1126L0.425418 31.4206C0.358218 31.6607 0.423318 31.9183 0.596918 32.0968C0.730618 32.2347 0.912618 32.3096 1.09952 32.3096C1.15552 32.3096 1.21222 32.3026 1.26752 32.2893L8.89472 30.4C11.2236 31.6502 13.8465 32.3096 16.4995 32.3096C25.3769 32.3096 32.5995 25.087 32.5995 16.2096C32.5995 7.33222 25.3769 0.109619 16.4995 0.109619ZM24.5985 21.8908C24.2541 22.8442 22.6021 23.7143 21.8083 23.8312C21.0957 23.9355 20.1941 23.9803 19.2043 23.6695C18.6044 23.4805 17.8344 23.2299 16.8481 22.8092C12.702 21.041 9.99442 16.9187 9.78722 16.6464C9.58072 16.3741 8.09952 14.4337 8.09952 12.4254C8.09952 10.4171 9.16702 9.42942 9.54642 9.02062C9.92582 8.61182 10.3731 8.50962 10.6489 8.50962C10.9247 8.50962 11.1998 8.51312 11.4413 8.52432C11.6954 8.53692 12.0363 8.42842 12.3716 9.22502C12.716 10.0426 13.5427 12.0509 13.6449 12.256C13.7485 12.4604 13.8171 12.6991 13.6799 12.9714C13.5427 13.2437 13.4741 13.4138 13.2669 13.6525C13.0597 13.8912 12.8329 14.1845 12.6467 14.3679C12.4395 14.5716 12.2246 14.7921 12.4654 15.2009C12.7062 15.6097 13.5357 16.946 14.7649 18.0282C16.3434 19.4184 17.6755 19.8496 18.0885 20.054C18.5015 20.2584 18.743 20.2241 18.9838 19.9518C19.2246 19.6788 20.017 18.7597 20.2921 18.3516C20.5672 17.9435 20.843 18.0107 21.2224 18.1472C21.6018 18.283 23.6339 19.27 24.0469 19.4744C24.4599 19.6788 24.7357 19.781 24.8393 19.9511C24.9429 20.1205 24.9429 20.9381 24.5985 21.8908Z" fill="#FFF6E9"/>
</svg>
