<svg width="33" height="33" viewBox="0 0 33 33" fill="none" xmlns="http://www.w3.org/2000/svg">
<path d="M16.5004 0.109619C7.62299 0.109619 0.400391 7.33222 0.400391 16.2096C0.400391 25.087 7.62299 32.3096 16.5004 32.3096C25.3785 32.3096 32.6004 25.087 32.6004 16.2096C32.6004 7.33222 25.3785 0.109619 16.5004 0.109619ZM23.4815 19.3841C25.0474 20.7743 25.3729 21.2706 25.4261 21.3553C26.075 22.3843 24.7065 22.5096 24.7065 22.5096H21.8225C21.8225 22.5096 21.1204 22.5173 20.5205 22.1197C19.5426 21.4792 18.5185 20.2374 17.7989 20.453C17.1948 20.6336 17.2004 21.4498 17.2004 22.1477C17.2004 22.3976 16.9855 22.5096 16.5004 22.5096C16.0153 22.5096 15.8137 22.5096 15.5988 22.5096C14.0189 22.5096 12.3046 21.9776 10.5945 20.1905C8.17529 17.6642 6.05359 12.5752 6.05359 12.5752C6.05359 12.5752 5.92829 12.319 6.06479 12.1629C6.21949 11.9879 6.64019 12.0103 6.64019 12.0103L9.43669 12.0096C9.43669 12.0096 9.69989 12.0593 9.88889 12.1923C10.045 12.3015 10.1318 12.5101 10.1318 12.5101C10.1318 12.5101 10.6015 14.0613 11.2 15.0504C12.369 16.981 12.9129 17.03 13.3098 16.8221C13.8894 16.5211 13.7004 14.4687 13.7004 14.4687C13.7004 14.4687 13.7263 13.5874 13.4239 13.1947C13.1908 12.8909 12.7449 12.7292 12.5503 12.704C12.3928 12.6837 12.656 12.4079 12.9913 12.2504C13.4393 12.0509 14.049 11.9998 15.1004 12.0096C15.9187 12.0173 16.1546 12.0663 16.4738 12.1398C17.4391 12.3624 17.2004 12.9497 17.2004 15.0119C17.2004 15.6727 17.1094 16.6016 17.6078 16.9096C17.8227 17.0426 18.5591 17.205 19.8695 15.077C20.4918 14.0676 20.9867 12.3932 20.9867 12.3932C20.9867 12.3932 21.0889 12.2091 21.2478 12.1181C21.4102 12.025 21.4053 12.0271 21.6279 12.0271C21.8505 12.0271 24.0828 12.0096 24.5728 12.0096C25.0621 12.0096 25.5213 12.004 25.6004 12.291C25.7138 12.7033 25.2392 14.1159 24.0366 15.6489C22.0605 18.1647 21.8414 17.9295 23.4815 19.3841Z" fill="#FFF6E9"/>
</svg>
