<svg width="35" height="36" viewBox="0 0 35 36" fill="none" xmlns="http://www.w3.org/2000/svg">
<g clip-path="url(#clip0_243_1485)">
<path d="M22.7502 18.2096C22.7502 19.602 22.1971 20.9374 21.2125 21.9219C20.2279 22.9065 18.8926 23.4596 17.5002 23.4596C16.1078 23.4596 14.7725 22.9065 13.7879 21.9219C12.8033 20.9374 12.2502 19.602 12.2502 18.2096C12.2502 17.9104 12.2817 17.6181 12.3359 17.3346H10.5002V24.3294C10.5002 24.8159 10.8939 25.2096 11.3804 25.2096H23.6217C23.8549 25.2091 24.0783 25.1162 24.243 24.9512C24.4077 24.7861 24.5002 24.5625 24.5002 24.3294V17.3346H22.6644C22.7187 17.6181 22.7502 17.9104 22.7502 18.2096ZM17.5002 21.7096C17.9599 21.7095 18.4152 21.6188 18.8399 21.4428C19.2646 21.2667 19.6504 21.0088 19.9754 20.6836C20.3004 20.3584 20.5582 19.9724 20.734 19.5476C20.9099 19.1229 21.0003 18.6676 21.0002 18.2079C21.0001 17.7481 20.9094 17.2929 20.7334 16.8682C20.5573 16.4435 20.2994 16.0576 19.9742 15.7326C19.649 15.4076 19.263 15.1498 18.8382 14.974C18.4135 14.7982 17.9582 14.7077 17.4984 14.7079C16.57 14.7081 15.6796 15.0772 15.0232 15.7339C14.3668 16.3906 13.9982 17.2811 13.9984 18.2096C13.9987 19.1381 14.3677 20.0285 15.0244 20.6848C15.6812 21.3412 16.5717 21.7098 17.5002 21.7096ZM21.7002 14.5346H23.7984C23.9378 14.5346 24.0716 14.4794 24.1703 14.3809C24.269 14.2825 24.3247 14.149 24.3252 14.0096V11.9114C24.3252 11.7717 24.2697 11.6377 24.1709 11.5389C24.0721 11.4401 23.9382 11.3846 23.7984 11.3846H21.7002C21.5605 11.3846 21.4265 11.4401 21.3277 11.5389C21.2289 11.6377 21.1734 11.7717 21.1734 11.9114V14.0096C21.1752 14.2984 21.4114 14.5346 21.7002 14.5346ZM17.5002 1.40961C13.0446 1.40961 8.77141 3.1796 5.6208 6.33021C2.47019 9.48082 0.700195 13.754 0.700195 18.2096C0.700195 22.6652 2.47019 26.9384 5.6208 30.089C8.77141 33.2396 13.0446 35.0096 17.5002 35.0096C19.7064 35.0096 21.891 34.5751 23.9293 33.7308C25.9676 32.8865 27.8196 31.649 29.3796 30.089C30.9396 28.529 32.1771 26.677 33.0214 24.6387C33.8657 22.6004 34.3002 20.4158 34.3002 18.2096C34.3002 16.0034 33.8657 13.8188 33.0214 11.7805C32.1771 9.74225 30.9396 7.89024 29.3796 6.33021C27.8196 4.77019 25.9676 3.53271 23.9293 2.68843C21.891 1.84415 19.7064 1.40961 17.5002 1.40961ZM26.2502 25.0154C26.2502 26.0846 25.3752 26.9596 24.3059 26.9596H10.6944C9.6252 26.9596 8.7502 26.0846 8.7502 25.0154V11.4039C8.7502 10.3346 9.6252 9.45961 10.6944 9.45961H24.3059C25.3752 9.45961 26.2502 10.3346 26.2502 11.4039V25.0154Z" fill="#FFF6E9"/>
</g>
<defs>
<clipPath id="clip0_243_1485">
<rect width="35" height="35" fill="white" transform="translate(0 0.709595)"/>
</clipPath>
</defs>
</svg>
