<svg width="2540" height="817" viewBox="0 0 2540 817" fill="none" xmlns="http://www.w3.org/2000/svg">
<path opacity="0.8" d="M34.5 261.616C31.6667 265.935 26 274.871 26 276.067C26 277.263 25 283.874 24.5 287.03L20 302.976C17.5 308.292 12.2 319.521 11 321.912C9.5 324.902 3.5 346.828 2.5 363.273C1.7 376.428 0.833333 387.026 0.5 390.68L0 416.593C2.83333 422.24 8.5 435.03 8.5 441.01C8.5 446.99 10.1667 449.149 11 449.481L12.5 465.926L13.5 480.875L14.5 492.835L20 518.249L27.5 558.115L35 581.535L44.5 617.414L50 632.862L52 643.825C54.1667 648.808 60 660.568 66 667.744C72 674.92 85.8333 688.009 92 693.657L110 719.569L124.5 735.515L141 749.966C143.833 751.794 150.7 755.747 155.5 756.943C160.3 758.139 165.5 760.099 167.5 760.929H181H196.5L223.5 766.909L243.5 769.401H268.5L292.5 771.394L307 774.384L326.5 783.354L342 792.323L352 797.306L359 802.29L372 811.259L383.5 816.242L387.5 811.758L390.5 807.771L394.5 802.29L398 785.347L396 776.875C399 767.906 405.5 749.169 407.5 745.98C407.9 741.595 408.667 731.196 409 726.545L407.5 701.63L410.5 691.165V647.811L409 624.391L418 601.966L421 566.088L425 542.168L429 521.737L431.5 508.781L433.5 498.316L436 486.357L437.5 478.384L444.5 450.478L451 425.562L460 390.182L466 366.761L470 349.818L476 332.875L487 301.98L491 291.017L501 276.067L513.5 256.633L522 246.667L532 235.205L545 220.256L553 211.286L566.5 197.333L577.5 186.869L592.5 174.411L605.5 164.444L623.5 150.492L636.5 140.525L648 132.552L658.5 125.576L674.5 116.606L692.5 108.633L704 104.148L751.5 86.7071L780 75.7441L793.5 71.7576L813 65.7778L833.5 59.798L848.5 55.8114C853.833 54.1504 866.5 50.5293 874.5 49.3333C882.5 48.1374 889.833 46.5095 892.5 45.8451L897 44.8485H912H920L924.5 45.3468L930.5 46.8418C917.167 41.5264 883.3 29.4007 854.5 23.4209C825.7 17.4411 807.167 14.6173 801.5 13.9529L742 6.47811L696 1.99327L649.5 0H614L594 0.996633C584.167 0.996633 559.6 2.79057 540 9.96633C520.4 17.1421 479.5 31.2278 461.5 37.3737L398.5 63.7845L356 83.7172L310 105.145L264 128.067L194.5 161.953L161 178.896C158.333 181.221 147.3 185.872 124.5 185.872C106.9 204.609 103.167 209.957 103.5 210.29L102 214.276C100.167 215.771 96 218.462 94 217.266C92 216.07 78.1667 220.422 71.5 222.747L58.5 230.721L34.5 261.616Z" fill="#0D2372"/>
<path d="M532 503.798L533 497.818L534 493.832L535 488.849L536.5 479.879L538 473.401L539 467.421L539.5 464.431L540 459.946L540.5 455.96L541 451.973L542.5 444.997L544 435.529L544.5 428.054L545.5 424.068L547 417.091L547.5 413.603L548.5 409.118L549.5 404.135L550 400.647L551 397.159L552 393.172L553.5 387.192L554.5 381.711L556.5 373.738L557.5 363.273L558 351.812V340.849V327.893V321.414V319.421L560 308.957L563 292.014L565.5 290.519L569.5 288.526L575 286.034L582 283.044L589.5 277.563L610.5 263.111L629.5 249.159L638 242.182L643.5 237.199L650 232.216L654.5 228.728L659.5 224.741L664.5 220.755L671.5 215.273L675 212.283L679 207.798L683 203.812L686 200.822L690.5 196.835L695.5 192.35L701.5 186.371L708.5 179.394L714.5 173.913L719 169.926L726.5 164.943L731.5 160.957L749.5 151.489L764.5 143.017L776.5 136.539L794.5 125.576L803 120.095L808.5 117.105L813 115.111L823 110.128L835.5 105.643L848 100.162L849 99.6636L857 98.1687L866.5 96.1754L880 93.6838L890.5 92.1889L902 90.1956L909.5 89.199L915.5 88.2024L929 87.2057L934.5 86.7074L943.5 85.2125L949 84.2158H996.5L1015 85.7108L1060.5 87.2057L1085.5 92.1889L1123 94.6805L1151.5 99.6636H1171L1231.5 104.148L1269 107.637H1304L1307.5 110.627L1334 114.115L1375.5 119.098C1383 119.929 1399.5 121.49 1405.5 121.091C1411.5 120.693 1421 120.925 1425 121.091H1440.5C1449.5 122.42 1468.6 125.377 1473 126.573C1477.4 127.769 1495.83 131.058 1504.5 132.553L1540.5 137.037C1552.33 138.034 1576.2 140.027 1577 140.027C1577.8 140.027 1601 141.024 1612.5 141.522L1653 143.017L1679.5 144.512L1719.5 147.004L1759.5 149.495L1790 151.987L1822.5 154.478L1889 158.963L1962 163.946L2039 170.425L2108.5 178.398L2165.5 184.377L2210 189.361L2262 196.835L2311.5 208.795L2341.5 216.27L2375 219.758L2392 221.751H2413L2434 224.243C2439 224.077 2451.1 224.542 2459.5 227.731C2467.9 230.92 2481.33 235.372 2487 237.199L2506.5 247.165C2510.83 250.82 2520.1 259.524 2522.5 265.105C2524.9 270.686 2528.17 275.735 2529.5 277.563L2535.5 289.522L2538 306.963L2539.5 322.909L2392 621.899L2383 620.903L2360 663.26L2353.5 805.778L1877.5 728.041L1108.5 599.973L532 503.798Z" fill="#621717"/>
<path d="M931.999 47.3392C929.333 46.5087 922.999 44.8477 918.999 44.8477H898.499L857.499 52.8207L775.499 77.2382L708.499 102.652C697.666 105.974 670.099 116.805 646.499 133.548C622.899 150.291 609.333 161.122 605.499 164.444C596.999 170.423 576.299 186.37 561.499 202.316C546.699 218.262 523.666 244.506 513.999 255.636C507.333 265.934 493.499 287.328 491.499 290.518C489.499 293.707 476.333 331.712 469.999 350.316L450.499 427.555L437.499 478.383L424.999 541.669L420.999 566.585L417.999 601.966L408.999 624.39L410.499 648.309V674.221V691.164L407.499 702.127L408.999 726.046L407.499 745.979L397.999 770.895L395.999 776.875L397.999 785.346L394.499 802.289C392.166 805.611 386.799 812.953 383.999 815.743C381.199 818.534 394.166 808.933 400.999 803.784L414.999 791.824L422.499 780.363C426.166 775.712 434.099 764.616 436.499 757.44C441.299 749.866 446.499 740.996 448.499 737.508L456.499 726.046L461.499 716.08L468.499 703.622L475.999 686.679L482.499 669.238L485.999 657.279L491.999 639.838L499.999 613.427L508.999 590.006L512.499 576.053L517.499 563.097L522.499 541.669L528.999 514.76L532.999 497.319L537.499 473.898L539.499 459.945L543.499 435.528L546.499 416.592L549.499 401.144L552.999 386.693L555.999 373.238L557.499 355.299V338.854V319.42L561.999 294.006L562.499 291.514L581.999 282.545L599.499 270.087L611.999 261.615L631.999 246.666L647.499 233.211L659.499 224.242L674.999 211.784L684.999 200.821L695.999 191.353L713.999 173.413L731.499 160.457L752.499 149.494L780.499 133.548L804.499 118.598L822.999 109.629L837.499 104.147L848.999 99.1642L864.999 95.6759L887.999 92.1877L915.499 87.7029L935.499 86.2079L948.999 83.7163H968.999H996.499L993.499 69.2652C990.999 67.438 984.999 63.2854 980.999 61.2921C976.999 59.2988 966.332 55.4784 961.499 53.8174L954.499 50.8275L946.999 49.8308L938.999 48.8342L931.999 47.3392Z" fill="#FF0202"/>
</svg>
