<svg width="849" height="330" viewBox="0 0 849 330" fill="none" xmlns="http://www.w3.org/2000/svg">
<path d="M154.5 70.5C150 73 140.6 77.9 139 77.5C137.4 77.1 127 78.3333 122 79C114.833 80 99.7 82 96.5 82C93.3 82 82.8333 87.3333 78 90L44.5 97.5L35.5 101L17 126.5L6 153L0 214.5L3 236.5L6 246.5L216.5 281.5L499.5 329.5H500L500.5 303.5L501.5 291L502.5 278L503 271.5L504.5 261L506 254L510 237.5L514 228.5L518.5 219L520 216L523 205.5L524.5 200L526 189C528.333 184.667 533.4 175.6 535 174C536.6 172.4 541 166.333 543 163.5L558.5 144L572 135.5L586 131.5C587.5 131 591 130 593 130C594 130.5 594.5 130.5 595 130.5C595.5 130.5 599.5 130.5 602 127.5C603.2 124.3 603.5 123.167 603.5 123L613 111.5L624.5 99C628.833 99 638.2 98.8 641 98C644.5 97 654.5 97 661 92C666.6 88.4 679 82.5 684.5 80L723 61L770.5 38L848.5 0C845.333 1.33333 836.4 4.4 826 6C815.6 7.6 811.667 7.66667 811 7.5C806 8.83333 794.2 12.1 787 14.5C779.8 16.9 773 18.5 770.5 19C766.167 20 756.7 21.8 753.5 21C750.3 20.2 742.167 20.6667 738.5 21C733.167 24.6667 720.3 32.2 711.5 33C702.7 33.8 695.167 35 692.5 35.5C685.667 36.6667 670 38.8 662 38C654 37.2 640.667 43.3333 635 46.5C627.833 47.5 611.4 49.4 603 49C594.6 48.6 584.5 54.5 580.5 57.5L548.5 63C535.5 65.1667 507.7 69.2 500.5 68C493.3 66.8 484.833 65.8333 481.5 65.5C478.167 69.1667 469 76.4 459 76C449 75.6 427.167 76.8333 417.5 77.5C412.333 80 399.7 85.1 390.5 85.5C379 86 352.5 90 344.5 88.5C338.1 87.3 322.167 91.3333 315 93.5L296 101.5L285 102.5L275 107.5H260C252.833 111 234.8 118.2 220 119C205.2 119.8 182.833 121.333 173.5 122L162.5 105L154.5 82V70.5Z" fill="#12DF33"/>
</svg>
