<svg width="982" height="656" viewBox="0 0 982 656" fill="none" xmlns="http://www.w3.org/2000/svg">
<path d="M650.5 28.4998L661 26.4998H679C686.167 21.9998 702.3 12.2998 709.5 9.49982C716.7 6.69982 726.5 5.66649 730.5 5.49982L747.5 9.49982C750.667 6.49982 758.2 0.599821 763 0.999821C769 1.49982 777.5 9.49982 779.5 9.49982C781.1 9.49982 789.5 28.1666 793.5 37.5L830.5 144L844 190.5L857.5 230.5C864.167 240.333 877.9 262.2 879.5 271C881.1 279.8 888.5 302 892 312L907 350.5L936 404L957 443.5L982 491.5L915 520L879.5 536.5L857 541H847.5L816.5 551C811.667 552.167 801.4 554.5 799 554.5C796.6 554.5 794 554.833 793 555H789.5H775.5L782.5 550.5L797.5 541.5L804 537.5L840 523.5L856 516C856.667 515.5 857.6 513.8 856 511C854.4 508.2 850.333 501.5 848.5 498.5L840 482.5L837 476.5L831.5 469L823 456.5L814 443.5L806 427L789 397.5L774.5 362C772.667 353.833 766.8 333.1 758 315.5C749.2 297.9 746.333 288.833 746 286.5L738 268.5C737 265.833 733.7 259.3 728.5 254.5C724.9 242.1 719.667 229.667 717.5 225L703 179L683.5 122L668.5 76.5L661 54.5L651.5 33L649.5 29.5L650.5 28.4998Z" fill="#0013C1"/>
<path d="M3.50039 25.9999C1.83372 27.9999 -0.999611 33.9999 1.00039 41.9999C3.50039 51.9999 7.5 65.4999 8.5 68.4999C9.3 70.8999 16.8333 90.8332 20.5 100.5C22.6667 108.333 27.9 127.5 31.5 141.5C35.1 155.5 37.3333 158 38 157.5L56 222L88.5 311L131.5 442.5C135.167 455 142.6 480.9 143 484.5C143.4 488.1 151.5 502.333 155.5 509C156.833 511.833 159.9 519.7 161.5 528.5C163.1 537.3 166.833 554.167 168.5 561.5C169.167 566.333 172.4 578 180 586C187.6 594 191.5 598.333 192.5 599.5V617.5L199 638.5L211 655.5L224 655L229 654H241.5L251 653L263.5 652.5L277.5 649L292.5 643.5L297 641.5H312L322 636.5L333 635.5C339.667 632.333 354 626 358 626C362 625.2 369.667 623.333 373 622.5H404.5C413.667 622.5 436.5 620.4 454.5 612C478.1 610.8 497.667 609.833 504.5 609.5L518.5 599.5C523 600.167 535.2 601.7 548 602.5C561.6 600.1 600.333 594.167 618 591.5C620.167 589.333 626.7 584.7 635.5 583.5C644.3 582.3 653.5 582 657 582H671.5C674.5 579.167 683.3 573.2 694.5 572H706C712 571.5 725.8 570.2 733 569C740.2 567.8 744 567.5 745 567.5C745.5 567.667 747.4 567.8 751 567C755.5 566 772 557.5 775 555L804 537.5L850 519.5L856 516C857 515.5 857.6 512.4 852 504C846.4 495.6 839.333 481.5 836.5 475.5L829.5 466.5L813 442L807 429L788 395L772 357L765 333.5L754 305.5L736 263.5L726.5 250.5L716 221L706.5 190.5L694.5 154.5L672.5 91.4999L665 66.4999L661.5 55.9999L655 39.9999C650.667 31.1666 640.5 11.5999 634.5 3.9999C628.5 -3.6001 613 1.83323 606 5.4999C602 6.3332 592 7.19982 584 3.9999C576 0.79998 562 12.6667 556 19L552 22.5C548.167 24.1667 539.3 27.2 534.5 26C529.7 24.8 509.833 29.5 500.5 32L457.5 37H428L394.5 35.5H338C327.2 35.5 289.5 33.1667 272 32H231C217.333 30.3333 187.9 27.5 179.5 29.5C171.1 31.5 163.333 33 160.5 33.5H82.5L26.5 32L10 25.9999C9.33359 25.4999 7.1007 24.7998 3.50039 25.9999Z" fill="#00D1FF"/>
</svg>
