<svg width="11" height="9" viewBox="0 0 11 9" fill="none" xmlns="http://www.w3.org/2000/svg">
<path d="M9.10779 0.97346L4.27315 6.48416L1.89282 3.77013L1.89278 3.77008C1.63175 3.4726 1.1939 3.4726 0.93287 3.77008L0.932664 3.77032C0.689112 4.04859 0.689112 4.48747 0.932664 4.76574L0.932835 4.76593L3.79277 8.02665C3.79281 8.0267 3.79285 8.02675 3.79289 8.02679C3.79291 8.02681 3.79292 8.02683 3.79294 8.02685C4.05354 8.32438 4.49189 8.32438 4.7525 8.02687C4.75256 8.02679 4.75262 8.02672 4.75269 8.02665L10.0671 1.96867L10.0673 1.96845C10.3109 1.69019 10.3109 1.25084 10.0673 0.97257L10.0671 0.972354C9.80676 0.675538 9.36842 0.675931 9.10799 0.97324C9.10792 0.973313 9.10786 0.973387 9.10779 0.97346Z" fill="#A2683E" stroke="#BA967D" stroke-width="0.5"/>
</svg>
